<svg xmlns="http://www.w3.org/2000/svg"
     xmlns:xlink="http://www.w3.org/1999/xlink"
     viewBox="0 0 701.313 668.771">
<defs>
<clipPath id="aboutimg">
<path d="M400.921-59.747c50.773,16.32,85.952,74.347,84.864,130.2-.725,56.213-37.355,109.888-58.027,167.189-20.672,57.664-25.749,118.592-58.027,155.221-32.277,36.267-91.755,48.235-156.309,55.488C148.505,455.6,78.511,458.141,22.66,429.127-33.553,400.477-75.26,340.274-82.15,278.621c-6.891-62.016,21.4-125.483,62.016-164.651C20.122,74.439,73.071,58.845,114.777,39.623c42.069-19.584,72.9-42.795,121.131-67.093C284.505-51.769,350.511-76.43,400.921-59.747Z"
      transform="matrix(0.951, -0.309, 0.309, 0.951, 1265.948, 359.724)"
      fill="#4dc781" />
</clipPath>
</defs>
<g transform="translate(-960 -205.615)">
<path d="M400.921-59.747c50.773,16.32,85.952,74.347,84.864,130.2-.725,56.213-37.355,109.888-58.027,167.189-20.672,57.664-25.749,118.592-58.027,155.221-32.277,36.267-91.755,48.235-156.309,55.488C148.505,455.6,78.511,458.141,22.66,429.127-33.553,400.477-75.26,340.274-82.15,278.621c-6.891-62.016,21.4-125.483,62.016-164.651C20.122,74.439,73.071,58.845,114.777,39.623c42.069-19.584,72.9-42.795,121.131-67.093C284.505-51.769,350.511-76.43,400.921-59.747Z"
      transform="translate(1147.345 355.82)"
      fill="#4dc781"
      opacity="0.25" />
<path d="M400.921-59.747c50.773,16.32,85.952,74.347,84.864,130.2-.725,56.213-37.355,109.888-58.027,167.189-20.672,57.664-25.749,118.592-58.027,155.221-32.277,36.267-91.755,48.235-156.309,55.488C148.505,455.6,78.511,458.141,22.66,429.127-33.553,400.477-75.26,340.274-82.15,278.621c-6.891-62.016,21.4-125.483,62.016-164.651C20.122,74.439,73.071,58.845,114.777,39.623c42.069-19.584,72.9-42.795,121.131-67.093C284.505-51.769,350.511-76.43,400.921-59.747Z"
      transform="matrix(0.951, -0.309, 0.309, 0.951, 1059.264, 417.752)"
      fill="#4dc781" />
<g transform="translate(-206.685 58.028)"
   clip-path="url(#aboutimg)">
<image id="clip-about"
       transform="translate(1157 172)"
       xlink:href="img/about.png" />
</g>
</g>
</svg>