<svg width="100%" height="100%" viewBox="0 0 1771 521" version="1.1" xmlns="http://www.w3.org/2000/svg" xmlns:xlink="http://www.w3.org/1999/xlink" xml:space="preserve" style="fill-rule:evenodd;clip-rule:evenodd;stroke-linejoin:round;stroke-miterlimit:2;"><g transform="matrix(4.16667,0,0,4.16667,-513.029,-567.798)"><g transform="matrix(114.476,0,0,114.476,137,234)"><path d="M0.576,-0.179c-0.046,0.046 -0.115,0.071 -0.176,0.071c-0.173,0 -0.24,-0.121 -0.241,-0.237c-0.001,-0.117 0.072,-0.243 0.241,-0.243c0.061,-0 0.123,0.021 0.169,0.066l0.088,-0.085c-0.072,-0.071 -0.162,-0.107 -0.257,-0.107c-0.253,0 -0.372,0.186 -0.371,0.369c0.001,0.182 0.111,0.361 0.371,0.361c0.101,-0 0.194,-0.033 0.266,-0.104l-0.09,-0.091Z" style="fill:#222831;fill-rule:nonzero;"/></g><g transform="matrix(114.476,0,0,114.476,214.958,234)"><path d="M0.04,-0.701l0,0.701l0.122,-0l-0,-0.252c-0,-0.074 0.05,-0.135 0.122,-0.135c0.065,-0 0.112,0.038 0.112,0.128l0,0.259l0.122,-0l-0,-0.26c-0,-0.145 -0.062,-0.24 -0.202,-0.24c-0.056,0 -0.11,0.017 -0.154,0.074l-0,-0.275l-0.122,0Z" style="fill:#222831;fill-rule:nonzero;"/></g><g transform="matrix(114.476,0,0,114.476,281.468,234)"><path d="M0.529,-0.203c0.019,-0.203 -0.084,-0.305 -0.249,-0.305c-0.16,0 -0.262,0.108 -0.262,0.258c-0,0.158 0.101,0.263 0.271,0.263c0.075,-0 0.16,-0.026 0.212,-0.08l-0.078,-0.077c-0.028,0.029 -0.087,0.046 -0.132,0.046c-0.086,0 -0.139,-0.044 -0.147,-0.105l0.385,-0Zm-0.383,-0.101c0.018,-0.064 0.072,-0.096 0.138,-0.096c0.07,-0 0.12,0.032 0.128,0.096l-0.266,0Z" style="fill:#222831;fill-rule:nonzero;"/></g><g transform="matrix(114.476,0,0,114.476,347.063,234)"><path d="M0.49,-0l-0,-0.264c-0,-0.065 0.041,-0.122 0.107,-0.122c0.066,-0 0.093,0.055 0.093,0.12l0,0.266l0.122,-0l-0,-0.266c-0,-0.148 -0.069,-0.234 -0.209,-0.234c-0.064,0 -0.121,0.02 -0.165,0.09c-0.028,-0.068 -0.087,-0.092 -0.146,-0.092c-0.047,0 -0.104,0.018 -0.13,0.068l-0.009,-0.06l-0.113,0l0,0.494l0.122,-0l-0,-0.264c-0,-0.065 0.039,-0.124 0.105,-0.124c0.067,0 0.101,0.059 0.101,0.124l0,0.264l0.122,-0Z" style="fill:#222831;fill-rule:nonzero;"/></g><g transform="matrix(114.476,0,0,114.476,449.633,234)"><path d="M0.23,-0.701l-0.037,0.151l-0.11,0l0,0.115l0.083,-0l-0.046,0.183l-0.106,0l-0,0.117l0.076,-0l-0.033,0.135l0.133,-0l0.033,-0.135l0.11,-0l-0.033,0.135l0.134,-0l0.033,-0.135l0.106,-0l-0,-0.117l-0.079,0l0.047,-0.182l0.101,-0l0,-0.116l-0.072,0l0.037,-0.151l-0.133,0l-0.038,0.151l-0.109,0l0.037,-0.151l-0.134,0Zm0.188,0.258l-0.05,0.198l-0.126,0l0.05,-0.198l0.126,-0Z" style="fill:#7bc74d;fill-rule:nonzero;"/></g></g></svg>