<svg xmlns="http://www.w3.org/2000/svg"
    xmlns:xlink="http://www.w3.org/1999/xlink" viewBox="0 0 1076.958 984.168">
    <defs>
        <clipPath id="hero_clip">
            <path d="M712.455,8.03C787.178,32.052,838.95,117.45,837.348,199.644c-1.068,82.729-54.979,161.721-85.4,246.051-30.423,84.863-37.9,174.531-85.4,228.437-47.5,53.373-135.031,70.986-230.036,81.661-95.538,10.675-198.548,14.411-280.744-28.288C73.043,685.341,11.663,596.742,1.523,506.007-8.618,414.74,33.013,321.335,92.79,263.691c59.246-58.175,137.171-81.127,198.55-109.416C353.253,125.455,398.62,91.3,469.607,55.532,541.127,19.776,638.267-16.518,712.455,8.03Z" transform="translate(0 258.752) rotate(-18)" fill="var(--primary)"/>
        </clipPath>
    </defs>
    <g transform="translate(-830 -70.12)">
        <g transform="translate(124.736 -113.017)">
            <path d="M749.682,8.449c78.627,25.277,133.1,115.137,131.419,201.627-1.123,87.052-57.852,170.171-89.86,258.907-32.012,89.3-39.875,183.65-89.86,240.374-49.984,56.162-142.086,74.7-242.055,85.928C358.8,806.518,250.4,810.449,163.913,765.519,76.859,721.152,12.273,627.922,1.6,532.446-9.068,436.411,34.738,338.125,97.638,277.47c62.341-61.215,144.338-85.366,208.925-115.133,65.149-30.326,112.886-66.27,187.582-103.9C569.4,20.809,671.617-17.381,749.682,8.449Z" transform="translate(859.644 273.92)" fill="var(--primary)" opacity="0.25"/>
            <path d="M712.455,8.03C787.178,32.052,838.95,117.45,837.348,199.644c-1.068,82.729-54.979,161.721-85.4,246.051-30.423,84.863-37.9,174.531-85.4,228.437-47.5,53.373-135.031,70.986-230.036,81.661-95.538,10.675-198.548,14.411-280.744-28.288C73.043,685.341,11.663,596.742,1.523,506.007-8.618,414.74,33.013,321.335,92.79,263.691c59.246-58.175,137.171-81.127,198.55-109.416C353.253,125.455,398.62,91.3,469.607,55.532,541.127,19.776,638.267-16.518,712.455,8.03Z" transform="translate(705.264 441.889) rotate(-18)" fill="var(--primary)"/>
            <g transform="translate(705.264 183.137)" clip-path="url(#hero_clip)">
                <image width="713" height="865" transform="translate(276 78.377)" xlink:href="/img/hero.png"/>
            </g>
        </g>
        <path d="M623,514.155l62.092,76.33,82.781-76.33,64.5,76.33,74.18-76.33,64.5,76.33,84.931-76.33" transform="translate(798.007 197.845)" fill="none" stroke="var(--primary)" stroke-linecap="round" stroke-linejoin="round" stroke-width="75"/>
    </g>
</svg>