<svg xmlns="http://www.w3.org/2000/svg" xmlns:xlink="http://www.w3.org/1999/xlink" viewBox="0 0 32 32"><defs><clipPath id="a"><path d="M10.144.941C15.6,2.555,20.01-.772,20.01,4.75A10.005,10.005,0,0,1,0,4.75C0-.772,4.849-.624,10.144.941Z" clip-rule="evenodd"/></clipPath></defs><g transform="translate(-0.875 32.002) rotate(-90)"><rect width="32" height="32" transform="translate(0.002 0.875)" fill="none"/><g transform="translate(0.514 6.447)"><g transform="translate(15.09 0.099) rotate(90)"><path d="M10.144.941C15.6,2.555,20.01-.772,20.01,4.75A10.005,10.005,0,0,1,0,4.75C0-.772,4.849-.624,10.144.941Z" transform="translate(0 0)" fill="var(--primary)" fill-rule="evenodd"/><g transform="translate(0 0)" clip-path="url(#a)"><g transform="translate(3.1 6.912) rotate(-90)"><g transform="translate(4.647 0.762) rotate(90)"><ellipse cx="0.892" cy="0.832" rx="0.892" ry="0.832" fill="#fff"/></g><g transform="translate(0.881 2.074) rotate(90)"><ellipse cx="0.472" cy="0.44" rx="0.472" ry="0.44" transform="translate(0 0)" fill="#fff"/></g><g transform="translate(0.881 0.29) rotate(90)"><ellipse cx="0.472" cy="0.44" rx="0.472" ry="0.44" transform="translate(0 0)" fill="#fff"/></g><g transform="translate(2.253 1.273) rotate(90)"><ellipse cx="0.381" cy="0.355" rx="0.381" ry="0.355" fill="#fff"/></g><g transform="translate(2.964 0) rotate(90)"><ellipse cx="0.381" cy="0.355" rx="0.381" ry="0.355" fill="#fff"/></g></g></g></g><g transform="translate(31.317 0) rotate(90)"><path d="M12.59,4.606l-5.549.2V0l7.607.275h2.128l-.3,10.235a9.007,9.007,0,0,1,1.538,1.246,10.939,10.939,0,0,1,1.853,2.5A12.8,12.8,0,0,1,21.4,19.644a10.714,10.714,0,0,1-1.119,5.5,11.111,11.111,0,0,1-1.187,1.825,12.076,12.076,0,0,1-3.208,2.8,11.327,11.327,0,0,1-1.92.92,10.409,10.409,0,0,1-9.9-1.529,10.112,10.112,0,0,1-1.7-1.679,10.721,10.721,0,0,1-1.264-2,10.988,10.988,0,0,1-.865-2.494,10.1,10.1,0,0,1-.221-2.614A9.373,9.373,0,0,1,.966,16.72a10.251,10.251,0,0,1,2.22-2.99h0a10.108,10.108,0,0,0-1.976,3.1,8.962,8.962,0,0,0-.662,3.551,9.469,9.469,0,0,0,.384,2.43A10.174,10.174,0,0,0,1.9,25.056a9.735,9.735,0,0,0,1.275,1.728,8.895,8.895,0,0,0,5.793,2.831,8.6,8.6,0,0,0,4.27-.716,9.325,9.325,0,0,0,1.521-.871A9.888,9.888,0,0,0,16.1,26.9,9.689,9.689,0,0,0,17.2,25.561a8.686,8.686,0,0,0,.822-1.491,8.052,8.052,0,0,0,.527-4.184,9.752,9.752,0,0,0-1.459-4.007,7.624,7.624,0,0,0-1.414-1.645A5.691,5.691,0,0,0,13.948,13.2l-1.1-.464Z" transform="translate(0 0)" fill="#222831" fill-rule="evenodd"/></g></g></g></svg>