<svg class="logo" xmlns="http://www.w3.org/2000/svg" xmlns:xlink="http://www.w3.org/1999/xlink" xml:space="preserve" version="1.1" width="48" height="48" viewBox="0 0 1472 1470"><path d="M741.784,803.365c243.885,72.116 440.908,-76.577 440.908,170.193c0,246.769 -200.345,447.115 -447.115,447.115c-246.77,0 -447.115,-200.346 -447.115,-447.115c-0,-246.77 216.68,-240.166 453.322,-170.193Z" fill="#85cb33"></path><clipPath id="clip-logo"><path d="M741.784,803.365c243.885,72.116 440.908,-76.577 440.908,170.193c0,246.769 -200.345,447.115 -447.115,447.115c-246.77,0 -447.115,-200.346 -447.115,-447.115c-0,-246.77 216.68,-240.166 453.322,-170.193Z"></path></clipPath><g clip-path="url(#clip-logo)"><g><ellipse cx="500.934" cy="899.666" rx="39.863" ry="37.166" fill="#e5f5d2"></ellipse><ellipse cx="540.796" cy="1050.52" rx="21.104" ry="19.676" fill="#e5f5d2"></ellipse><ellipse cx="461.071" cy="1050.52" rx="21.104" ry="19.676" fill="#e5f5d2"></ellipse><ellipse cx="500.934" cy="985.379" rx="17.035" ry="15.882" fill="#e5f5d2"></ellipse><ellipse cx="444.036" cy="953.615" rx="17.035" ry="15.882" fill="#e5f5d2"></ellipse></g></g><path d="M430.772,649.695c-40.891,38.053 -74.741,83.56 -99.225,133.608c-24.874,50.843 -39.825,106.233 -42.653,163.277c-1.94,39.148 1.667,78.429 9.892,116.804c8.275,38.611 21.477,76.091 38.672,111.477c15.463,31.822 34.475,61.769 56.486,89.358c22.271,27.914 47.83,53.05 76.134,75.035c61.76,47.973 134.58,78.224 210.247,90.5c77.055,12.502 156.914,5.069 231.984,-22.177c29.852,-10.835 58.466,-24.849 85.798,-41.101c27.353,-16.265 53.005,-35.232 77.002,-56.022c24.151,-20.924 46.268,-44.218 66.343,-69.178c20.382,-25.344 38.013,-52.751 53.048,-81.561c39.434,-75.565 54.135,-160.874 49.999,-245.72c-4.104,-84.169 -28.908,-167.43 -68.3,-240.722c-22.062,-41.049 -50.204,-78.757 -82.818,-111.778c-20.711,-20.969 -43.626,-39.52 -68.408,-55.518c0,-0 13.111,-457.571 13.111,-457.571l-95.103,0l-339.931,-12.296l-0,214.799c-0,0 147.705,-5.343 248.387,-8.985c4.372,120.871 11.215,310.063 11.215,310.063l0,53.253l49.052,20.736c28.567,10.876 54.707,26.364 77.4,46.239c24.336,21.313 45.802,46.107 63.207,73.532c33.95,53.5 57.432,115.351 65.179,179.053c7.708,63.375 1.903,128.194 -23.553,186.978c-10.097,23.317 -22.27,45.702 -36.733,66.617c-14.744,21.32 -31.21,41.435 -49.48,59.736c-18.44,18.47 -38.314,35.581 -59.775,50.54c-21.481,14.975 -44.12,28.235 -67.994,38.91c-60.536,27.069 -126.272,37.75 -190.838,32.019c-65.992,-5.858 -130.59,-27.571 -186.824,-65.068c-26.423,-17.619 -50.607,-38.217 -72.078,-61.463c-21.739,-23.536 -40.901,-49.418 -56.989,-77.217c-18.246,-31.528 -32.926,-65.265 -43.151,-100.367c-10.293,-35.337 -16.308,-71.836 -17.146,-108.583c-1.245,-54.626 9.366,-108.482 29.597,-158.71c20.539,-50.993 50.752,-98.1 88.297,-138.446l-0.051,-0.051Z"></path></svg>