<svg width="100%" height="100%" viewBox="0 0 1024 1024" version="1.1" xmlns="http://www.w3.org/2000/svg" xmlns:xlink="http://www.w3.org/1999/xlink" xml:space="preserve" style="fill-rule:evenodd;clip-rule:evenodd;stroke-linejoin:round;stroke-miterlimit:2;"><g id="spc"><path d="M759.73,78.419l250.328,433.581l-250.328,433.581l-500.656,-0l-250.328,-433.581l250.328,-433.581l500.656,0Z" style="fill:#2d4059;"/><path d="M638.982,28.404l354.017,354.017l-129.58,483.596l-483.596,129.579l-354.017,-354.017l129.579,-483.596l483.597,-129.579Z" style="fill:#ff5722;"/><path d="M509.402,11.344l433.581,250.328l-0,500.656l-433.581,250.328l-433.58,-250.328l-0,-500.656l433.58,-250.328Z" style="fill:#222831;"/><path d="M509.402,88.256l366.974,211.872l-0,423.744l-366.974,211.872l-366.973,-211.872l-0,-423.744l366.973,-211.872Z" style="fill:#222831;"/><path d="M509.402,88.256l366.974,211.872l-0,423.744l-366.974,211.872l-366.973,-211.872l-0,-423.744l366.973,-211.872l0,-0Zm0,-0l295.79,240.103c-0,-0 -39.536,313.759 -39.536,313.759c-45.944,21.337 -116.236,54.581 -179.775,87.097c-28.074,14.367 -54.725,28.62 -77.512,41.08c-22.582,-12 -48.82,-25.644 -76.416,-39.4c-64.876,-32.342 -136.612,-65.402 -182.716,-86.278c0,0 -39.205,-317.211 -39.205,-317.211c0,-0 299.37,-239.15 299.37,-239.15l0,-0Z" style="fill:#393e46;"/><path d="M378.581,455.223c-16.818,-34.278 -52.701,-44.114 -87.337,-44.114c-40.991,0.317 -86.057,19.037 -86.057,64.765c0,49.88 41.888,61.953 87.328,67.354c29.552,3.177 51.477,11.755 51.477,32.724c0,24.146 -24.785,33.36 -51.159,33.36c-27.01,-0 -52.74,-10.802 -62.577,-35.266l-34.915,18.109c16.51,40.637 51.416,54.598 96.856,54.598c49.572,-0 93.366,-21.259 93.366,-70.801c-0,-53.057 -43.159,-65.13 -89.552,-70.849c-26.692,-3.177 -49.571,-8.578 -49.571,-27.958c-0,-16.521 14.934,-29.548 46.075,-29.548c24.15,0 45.123,12.074 52.747,24.782l33.319,-17.156Z" style="fill:#eee;fill-rule:nonzero;"/><path d="M459.888,458.397l62.892,-0c53.362,-0 53.679,78.812 -0,78.812l-62.892,0l0,-78.812Zm62.892,-39.982c-34.94,-0.318 -69.873,-0 -104.779,-0l-0,222.62l41.887,0l0,-65.432l62.892,0c108.948,0 108.63,-157.188 -0,-157.188Z" style="fill:#eee;fill-rule:nonzero;"/><path d="M800.073,584.213c-14.611,14.615 -36.528,22.558 -55.904,22.558c-54.95,-0 -76.231,-38.444 -76.549,-75.299c-0.317,-37.172 22.869,-77.204 76.549,-77.204c19.376,-0 39.069,6.672 53.68,20.969l27.952,-26.998c-22.87,-22.53 -51.457,-33.953 -81.632,-33.953c-80.357,-0 -118.119,59.045 -117.802,117.186c0.318,57.824 35.224,114.645 117.802,114.645c32.081,0 61.621,-10.471 84.49,-33l-28.586,-28.904Z" style="fill:#eee;fill-rule:nonzero;"/></g></svg>