<?xml version="1.0" encoding="UTF-8" standalone="no"?>
<!DOCTYPE svg PUBLIC "-//W3C//DTD SVG 1.1//EN" "http://www.w3.org/Graphics/SVG/1.1/DTD/svg11.dtd">
<svg width="100%" height="100%" viewBox="0 0 1024 1024" version="1.1" xmlns="http://www.w3.org/2000/svg" xmlns:xlink="http://www.w3.org/1999/xlink" xml:space="preserve" xmlns:serif="http://www.serif.com/" style="fill-rule:evenodd;clip-rule:evenodd;stroke-linecap:round;stroke-linejoin:round;stroke-miterlimit:1.5;">
    <g id="CHN">
        <g>
            <g id="Universal-Bg" serif:id="Universal Bg">
                <clipPath id="_clip1">
                    <path d="M982.643,144.253C982.643,93.398 941.355,52.11 890.5,52.11L124.402,52.11C73.547,52.11 32.258,93.398 32.258,144.253L32.258,881.401C32.258,932.256 73.547,973.544 124.402,973.544L890.5,973.544C941.355,973.544 982.643,932.256 982.643,881.401L982.643,144.253Z"/>
                </clipPath>
                <g clip-path="url(#_clip1)">
                    <rect x="-1.599" y="593.14" width="1144.17" height="445.228" style="fill:rgb(4,119,191);stroke:black;stroke-opacity:0.33;stroke-width:1.67px;"/>
                    <rect x="-5.767" y="0" width="1086.06" height="535.349" style="fill:rgb(3,74,166);stroke:black;stroke-opacity:0.33;stroke-width:1.67px;"/>
                    <rect x="-31.045" y="346.236" width="1106.69" height="348.459" style="fill:rgb(4,104,191);stroke:black;stroke-opacity:0.33;stroke-width:1.67px;"/>
                    <rect x="702.677" y="0" width="381.402" height="1047.82" style="fill:rgb(4,157,217);stroke:black;stroke-opacity:0.33;stroke-width:1.67px;"/>
                </g>
            </g>
            <g>
                <clipPath id="_clip2">
                    <path d="M982.643,144.253C982.643,93.398 941.355,52.11 890.5,52.11L124.402,52.11C73.547,52.11 32.258,93.398 32.258,144.253L32.258,881.401C32.258,932.256 73.547,973.544 124.402,973.544L890.5,973.544C941.355,973.544 982.643,932.256 982.643,881.401L982.643,144.253Z"/>
                </clipPath>
                <g clip-path="url(#_clip2)">
                    <rect x="-1.599" y="593.14" width="1144.17" height="445.228" style="fill:rgb(4,119,191);stroke:black;stroke-opacity:0.33;stroke-width:1.67px;"/>
                    <rect x="-5.767" y="0" width="1086.06" height="535.349" style="fill:rgb(3,74,166);stroke:black;stroke-opacity:0.33;stroke-width:1.67px;"/>
                    <rect x="-31.045" y="346.236" width="1106.69" height="348.459" style="fill:rgb(4,104,191);stroke:black;stroke-opacity:0.33;stroke-width:1.67px;"/>
                    <rect x="702.677" y="0" width="381.402" height="1047.82" style="fill:rgb(4,157,217);stroke:black;stroke-opacity:0.33;stroke-width:1.67px;"/>
                </g>
            </g>
        </g>
        <path d="M329.558,634.906C329.558,636.595 328.221,638.988 325.546,642.085C298.097,673.898 264.102,689.804 223.561,689.804C181.332,689.804 147.548,674.391 122.21,643.563C98.562,614.847 86.737,578.951 86.737,535.877C86.737,492.803 98.773,456.767 122.844,427.769C148.463,396.519 182.317,380.894 224.406,380.894C267.058,380.894 300.068,395.323 323.435,424.18C325.687,427.136 326.813,429.599 326.813,431.57C326.813,433.963 323.083,441.036 315.622,452.79C308.162,464.544 303.657,470.421 302.109,470.421C300.279,470.421 295.985,466.972 289.229,460.075C280.924,451.629 273.111,445.294 265.791,441.071C253.685,434.174 240.313,430.725 225.673,430.725C197.801,430.725 176.123,441.353 160.639,462.609C146.844,481.612 139.947,505.542 139.947,534.399C139.947,563.256 146.774,587.397 160.428,606.823C175.912,628.642 197.52,639.551 225.251,639.551C239.046,639.551 252.348,636.102 265.158,629.205C273.604,624.7 282.19,618.295 290.918,609.99C298.238,603.093 302.25,599.644 302.953,599.644C303.798,599.644 308.443,605.239 316.889,616.43C325.335,627.621 329.558,633.78 329.558,634.906Z" style="fill:white;fill-rule:nonzero;"/>
        <path d="M619.254,678.825C619.254,682.062 617.142,683.681 612.919,683.681C610.526,683.681 606.831,683.47 601.834,683.048C596.837,682.625 593.071,682.414 590.538,682.414C587.863,682.414 583.816,682.625 578.397,683.048C572.977,683.47 568.93,683.681 566.256,683.681C563.018,683.681 561.399,682.062 561.399,678.825C561.399,666.156 561.786,647.152 562.56,621.815C563.335,596.477 563.722,577.473 563.722,564.804C563.722,559.315 562.103,556.147 558.865,555.303C554.642,554.177 530.29,553.614 485.808,553.614C441.467,553.614 417.114,554.177 412.751,555.303C409.654,556.147 408.105,559.315 408.105,564.804C408.105,577.192 408.457,595.843 409.161,620.759C409.865,645.674 410.217,664.326 410.217,676.713C410.217,681.358 408.457,683.681 404.938,683.681C402.264,683.681 398.252,683.47 392.903,683.048C387.554,682.625 383.542,682.414 380.867,682.414C378.333,682.414 374.568,682.625 369.571,683.048C364.574,683.47 360.808,683.681 358.274,683.681C354.755,683.681 352.996,682.062 352.996,678.825C352.996,663.34 353.735,640.079 355.213,609.04C356.691,578.001 357.43,554.74 357.43,539.255C357.43,522.927 356.691,498.398 355.213,465.67C353.735,432.942 352.996,408.414 352.996,392.085C352.996,388.988 354.755,387.44 358.274,387.44C360.808,387.44 364.679,387.651 369.887,388.073C375.096,388.495 379.037,388.707 381.712,388.707C384.246,388.707 388.187,388.495 393.536,388.073C398.885,387.651 402.827,387.44 405.36,387.44C408.598,387.44 410.217,388.707 410.217,391.24C410.217,403.346 409.689,421.54 408.633,445.822C407.577,470.104 407.05,488.298 407.05,500.404C407.05,504.346 408.528,506.739 411.484,507.583C415.003,508.85 439.778,509.484 485.808,509.484C530.853,509.484 555.487,508.85 559.71,507.583C562.948,506.739 564.566,503.712 564.566,498.504C564.566,486.679 564.179,468.873 563.405,445.083C562.631,421.294 562.244,403.487 562.244,391.663C562.244,388.847 563.863,387.44 567.1,387.44C569.775,387.44 573.681,387.651 578.819,388.073C583.957,388.495 587.863,388.707 590.538,388.707C593.071,388.707 596.872,388.495 601.94,388.073C607.007,387.651 610.808,387.44 613.342,387.44C617.002,387.44 618.832,388.988 618.832,392.085C618.832,408.414 618.128,432.942 616.72,465.67C615.312,498.398 614.609,522.927 614.609,539.255C614.609,554.74 615.383,578.001 616.931,609.04C618.48,640.079 619.254,663.34 619.254,678.825Z" style="fill:white;fill-rule:nonzero;"/>
        <path d="M928.164,392.085C928.164,408.273 927.601,432.696 926.475,465.353C925.349,498.011 924.786,522.504 924.786,538.833C924.786,554.177 924.927,577.157 925.208,607.773C925.49,638.39 925.63,661.37 925.63,676.713C925.63,681.358 923.871,683.681 920.352,683.681C918.24,683.681 915.073,683.47 910.85,683.048C906.627,682.625 903.46,682.414 901.348,682.414C899.096,682.414 895.647,682.625 891.002,683.048C886.357,683.47 882.908,683.681 880.656,683.681C878.122,683.681 875.096,681.358 871.576,676.713C841.171,635.75 795.07,574.658 733.274,493.436C723.702,481.049 718.142,474.151 716.593,472.744C715.186,472.744 714.482,475.629 714.482,481.401C714.482,503.079 714.834,535.631 715.538,579.057C716.241,622.483 716.593,655.035 716.593,676.713C716.593,681.358 715.186,683.681 712.37,683.681C709.977,683.681 706.317,683.47 701.391,683.048C696.464,682.625 692.804,682.414 690.411,682.414C687.877,682.414 684.112,682.625 679.115,683.048C674.117,683.47 670.352,683.681 667.818,683.681C664.299,683.681 662.539,682.273 662.539,679.458C662.539,663.974 663.278,640.642 664.756,609.462C666.234,578.283 666.973,554.88 666.973,539.255C666.973,522.223 666.34,491.536 665.073,447.195C664.792,435.652 664.088,418.338 662.962,395.252L662.75,392.507C662.61,390.396 664.299,389.27 667.818,389.129C676.968,388.988 684.147,388.707 689.355,388.284C691.326,388.143 695.056,387.58 700.546,386.595C705.191,385.75 708.851,385.328 711.526,385.328C712.793,385.328 714.975,387.369 718.071,391.451C750.448,435.933 799.997,502.093 866.72,589.931C869.676,593.591 872.421,596.758 874.955,599.433C875.94,593.521 876.433,580.007 876.433,558.892C876.433,540.593 875.764,513.143 874.427,476.544C873.09,439.945 872.421,412.566 872.421,394.408C872.421,389.762 873.829,387.44 876.644,387.44C879.178,387.44 883.014,387.651 888.152,388.073C893.29,388.495 897.125,388.707 899.659,388.707C902.334,388.707 906.346,388.495 911.695,388.073C917.044,387.651 921.056,387.44 923.73,387.44C926.686,387.44 928.164,388.988 928.164,392.085Z" style="fill:white;fill-rule:nonzero;"/>
    </g>
</svg>
