<?xml version="1.0" encoding="UTF-8" standalone="no"?>
<!DOCTYPE svg PUBLIC "-//W3C//DTD SVG 1.1//EN" "http://www.w3.org/Graphics/SVG/1.1/DTD/svg11.dtd">
<svg width="100%" height="100%" viewBox="0 0 2363 2363" version="1.1" xmlns="http://www.w3.org/2000/svg" xmlns:xlink="http://www.w3.org/1999/xlink" xml:space="preserve" xmlns:serif="http://www.serif.com/" style="fill-rule:evenodd;clip-rule:evenodd;stroke-linecap:round;stroke-linejoin:round;stroke-miterlimit:1.5;">
    <path d="M1288.43,718.261L1288.43,512.865" style="fill:none;stroke:white;stroke-width:16.67px;"/>
    <path d="M1742.38,1190.23L1947.78,1190.23" style="fill:none;stroke:white;stroke-width:16.67px;"/>
    <path d="M672.608,1039.62L817.845,1184.85" style="fill:none;stroke:white;stroke-width:16.67px;"/>
    <path d="M672.608,1326.34L817.845,1181.1" style="fill:none;stroke:white;stroke-width:16.67px;"/>
    <path d="M1288.43,718.261L1288.43,512.865" style="fill:none;stroke:white;stroke-width:16.67px;"/>
    <path d="M1281.43,1643.94L1281.43,1849.34" style="fill:none;stroke:white;stroke-width:16.67px;"/>
    <path d="M1099.16,997.933L1471.83,1372.2" style="fill:none;stroke:white;stroke-width:16.67px;"/>
    <path d="M1471.83,994.477L1095.71,1372.2" style="fill:none;stroke:white;stroke-width:16.67px;"/>
    <g>
        <path d="M2339.8,1190.23L2241.8,1359.98L2045.79,1359.98L1947.78,1190.23L2045.79,1020.47L2241.8,1020.47L2339.8,1190.23Z" style="fill:none;stroke:white;stroke-width:16.67px;"/>
        <path d="M2339.8,1190.23L2241.8,1359.98L2045.79,1359.98L1947.78,1190.23L2045.79,1020.47L2241.8,1020.47L2339.8,1190.23Z" style="fill:none;stroke:white;stroke-width:16.67px;"/>
        <path d="M2362.2,1190.23C2362.2,1202.59 2352.17,1212.63 2339.8,1212.63C2327.44,1212.63 2317.4,1202.59 2317.4,1190.23C2317.4,1177.86 2327.44,1167.82 2339.8,1167.82C2352.17,1167.82 2362.2,1177.86 2362.2,1190.23Z" style="fill:white;stroke:white;stroke-width:16.67px;"/>
        <path d="M2261.63,1359.98C2261.63,1372.34 2251.59,1382.38 2239.23,1382.38C2226.87,1382.38 2216.83,1372.34 2216.83,1359.98C2216.83,1347.61 2226.87,1337.58 2239.23,1337.58C2251.59,1337.58 2261.63,1347.61 2261.63,1359.98Z" style="fill:white;stroke:white;stroke-width:16.67px;"/>
        <path d="M2065.85,1359.98C2065.85,1372.34 2055.81,1382.38 2043.45,1382.38C2031.09,1382.38 2021.05,1372.34 2021.05,1359.98C2021.05,1347.61 2031.09,1337.58 2043.45,1337.58C2055.81,1337.58 2065.85,1347.61 2065.85,1359.98Z" style="fill:white;stroke:white;stroke-width:16.67px;"/>
        <path d="M1970.18,1190.23C1970.18,1202.59 1960.14,1212.63 1947.78,1212.63C1935.41,1212.63 1925.38,1202.59 1925.38,1190.23C1925.38,1177.86 1935.41,1167.82 1947.78,1167.82C1960.14,1167.82 1970.18,1177.86 1970.18,1190.23Z" style="fill:white;stroke:white;stroke-width:16.67px;"/>
        <path d="M2065.85,1020.47C2065.85,1032.84 2055.81,1042.88 2043.45,1042.88C2031.09,1042.88 2021.05,1032.84 2021.05,1020.47C2021.05,1008.11 2031.09,998.072 2043.45,998.072C2055.81,998.072 2065.85,1008.11 2065.85,1020.47Z" style="fill:white;stroke:white;stroke-width:16.67px;"/>
        <path d="M2261.63,1020.47C2261.63,1032.84 2251.59,1042.88 2239.23,1042.88C2226.87,1042.88 2216.83,1032.84 2216.83,1020.47C2216.83,1008.11 2226.87,998.072 2239.23,998.072C2251.59,998.072 2261.63,1008.11 2261.63,1020.47Z" style="fill:white;stroke:white;stroke-width:16.67px;"/>
    </g>
    <g>
        <path d="M1288.43,120.84L1458.19,218.847L1458.19,414.859L1288.43,512.865L1118.68,414.859L1118.68,218.847L1288.43,120.84Z" style="fill:none;stroke:white;stroke-width:16.67px;"/>
        <path d="M1288.43,120.84L1458.19,218.847L1458.19,414.859L1288.43,512.865L1118.68,414.859L1118.68,218.847L1288.43,120.84Z" style="fill:none;stroke:white;stroke-width:16.67px;"/>
        <circle cx="1288.43" cy="120.84" r="22.401" style="fill:white;stroke:white;stroke-width:16.67px;"/>
        <circle cx="1458.19" cy="221.413" r="22.401" style="fill:white;stroke:white;stroke-width:16.67px;"/>
        <circle cx="1458.19" cy="417.194" r="22.401" style="fill:white;stroke:white;stroke-width:16.67px;"/>
        <circle cx="1288.43" cy="512.865" r="22.401" style="fill:white;stroke:white;stroke-width:16.67px;"/>
        <circle cx="1118.68" cy="417.194" r="22.401" style="fill:white;stroke:white;stroke-width:16.67px;"/>
        <circle cx="1118.68" cy="221.413" r="22.401" style="fill:white;stroke:white;stroke-width:16.67px;"/>
    </g>
    <circle cx="1283.77" cy="1185.07" r="22.401" style="fill:white;stroke:white;stroke-width:16.67px;"/>
    <g>
        <path d="M394.297,1604.7L343.565,1415.37L482.167,1276.77L671.5,1327.5L722.232,1516.83L583.63,1655.44L394.297,1604.7Z" style="fill:none;stroke:white;stroke-width:16.67px;"/>
        <path d="M394.297,1604.7L343.565,1415.37L482.167,1276.77L671.5,1327.5L722.232,1516.83L583.63,1655.44L394.297,1604.7Z" style="fill:none;stroke:white;stroke-width:16.67px;"/>
        <path d="M378.456,1620.55C369.714,1611.8 369.714,1597.61 378.456,1588.86C387.199,1580.12 401.394,1580.12 410.137,1588.86C418.879,1597.61 418.879,1611.8 410.137,1620.55C401.394,1629.29 387.199,1629.29 378.456,1620.55Z" style="fill:white;stroke:white;stroke-width:16.67px;"/>
        <path d="M329.539,1429.4C320.797,1420.65 320.797,1406.46 329.539,1397.72C338.282,1388.97 352.477,1388.97 361.22,1397.72C369.962,1406.46 369.962,1420.65 361.22,1429.4C352.477,1438.14 338.282,1438.14 329.539,1429.4Z" style="fill:white;stroke:white;stroke-width:16.67px;"/>
        <path d="M467.978,1290.96C459.235,1282.22 459.235,1268.02 467.978,1259.28C476.72,1250.54 490.916,1250.54 499.658,1259.28C508.401,1268.02 508.401,1282.22 499.658,1290.96C490.916,1299.7 476.72,1299.7 467.978,1290.96Z" style="fill:white;stroke:white;stroke-width:16.67px;"/>
        <path d="M655.66,1343.34C646.917,1334.6 646.917,1320.4 655.66,1311.66C664.402,1302.92 678.598,1302.92 687.34,1311.66C696.083,1320.4 696.083,1334.6 687.34,1343.34C678.598,1352.08 664.402,1352.08 655.66,1343.34Z" style="fill:white;stroke:white;stroke-width:16.67px;"/>
        <path d="M708.043,1531.02C699.3,1522.28 699.3,1508.09 708.043,1499.34C716.785,1490.6 730.981,1490.6 739.723,1499.34C748.466,1508.09 748.466,1522.28 739.723,1531.02C730.981,1539.77 716.785,1539.77 708.043,1531.02Z" style="fill:white;stroke:white;stroke-width:16.67px;"/>
        <path d="M569.605,1669.46C560.862,1660.72 560.862,1646.52 569.605,1637.78C578.347,1629.04 592.543,1629.04 601.285,1637.78C610.027,1646.52 610.027,1660.72 601.285,1669.46C592.543,1678.2 578.347,1678.2 569.605,1669.46Z" style="fill:white;stroke:white;stroke-width:16.67px;"/>
    </g>
    <g>
        <path d="M1281.43,2241.36L1111.68,2143.36L1111.68,1947.35L1281.43,1849.34L1451.19,1947.35L1451.19,2143.36L1281.43,2241.36Z" style="fill:none;stroke:white;stroke-width:16.67px;"/>
        <path d="M1281.43,2241.36L1111.68,2143.36L1111.68,1947.35L1281.43,1849.34L1451.19,1947.35L1451.19,2143.36L1281.43,2241.36Z" style="fill:none;stroke:white;stroke-width:16.67px;"/>
        <circle cx="1281.43" cy="2241.36" r="22.401" style="fill:white;stroke:white;stroke-width:16.67px;"/>
        <circle cx="1111.68" cy="2140.79" r="22.401" style="fill:white;stroke:white;stroke-width:16.67px;"/>
        <circle cx="1111.68" cy="1945.01" r="22.401" style="fill:white;stroke:white;stroke-width:16.67px;"/>
        <circle cx="1281.43" cy="1849.34" r="22.401" style="fill:white;stroke:white;stroke-width:16.67px;"/>
        <circle cx="1451.19" cy="1945.01" r="22.401" style="fill:white;stroke:white;stroke-width:16.67px;"/>
        <circle cx="1451.19" cy="2140.79" r="22.401" style="fill:white;stroke:white;stroke-width:16.67px;"/>
    </g>
    <g>
        <path d="M1288.43,120.84L1458.19,218.847L1458.19,414.859L1288.43,512.865L1118.68,414.859L1118.68,218.847L1288.43,120.84Z" style="fill:none;stroke:white;stroke-width:16.67px;"/>
        <path d="M1288.43,120.84L1458.19,218.847L1458.19,414.859L1288.43,512.865L1118.68,414.859L1118.68,218.847L1288.43,120.84Z" style="fill:none;stroke:white;stroke-width:16.67px;"/>
        <circle cx="1288.43" cy="120.84" r="22.401" style="fill:white;stroke:white;stroke-width:16.67px;"/>
        <circle cx="1458.19" cy="221.413" r="22.401" style="fill:white;stroke:white;stroke-width:16.67px;"/>
        <circle cx="1458.19" cy="417.194" r="22.401" style="fill:white;stroke:white;stroke-width:16.67px;"/>
        <circle cx="1288.43" cy="512.865" r="22.401" style="fill:white;stroke:white;stroke-width:16.67px;"/>
        <circle cx="1118.68" cy="417.194" r="22.401" style="fill:white;stroke:white;stroke-width:16.67px;"/>
        <circle cx="1118.68" cy="221.413" r="22.401" style="fill:white;stroke:white;stroke-width:16.67px;"/>
    </g>
    <g>
        <path d="M1126.22,801.783L1291.61,715.761L1445.15,801.783" style="fill:none;stroke:white;stroke-width:16.67px;"/>
        <path d="M903.52,1345.01L817.498,1179.62L903.52,1026.08" style="fill:none;stroke:white;stroke-width:16.67px;"/>
        <path d="M1449.94,1557.92L1284.55,1643.94L1131.01,1557.92" style="fill:none;stroke:white;stroke-width:16.67px;"/>
        <path d="M1287.38,1621.87C1299.56,1623.99 1307.73,1635.6 1305.61,1647.78C1303.5,1659.96 1291.89,1668.13 1279.71,1666.01C1267.53,1663.9 1259.36,1652.29 1261.47,1640.11C1263.59,1627.93 1275.2,1619.76 1287.38,1621.87Z" style="fill:white;stroke:white;stroke-width:16.67px;"/>
        <path d="M824.323,1158.51C836.504,1160.63 844.674,1172.24 842.556,1184.42C840.438,1196.6 828.829,1204.77 816.648,1202.65C804.468,1200.53 796.298,1188.92 798.415,1176.74C800.533,1164.56 812.142,1156.39 824.323,1158.51Z" style="fill:white;stroke:white;stroke-width:16.67px;"/>
        <path d="M1659.14,1026.08L1745.16,1191.47L1659.14,1345.01" style="fill:none;stroke:white;stroke-width:16.67px;"/>
        <g id="Ebene1">
        </g>
        <path d="M1295.45,697.03C1307.63,699.148 1315.8,710.756 1313.68,722.937C1311.56,735.118 1299.95,743.288 1287.77,741.17C1275.59,739.053 1267.42,727.444 1269.54,715.263C1271.66,703.082 1283.27,694.912 1295.45,697.03Z" style="fill:white;stroke:white;stroke-width:16.67px;"/>
        <path d="M1746.22,1168.15C1758.4,1170.27 1766.57,1181.88 1764.45,1194.06C1762.34,1206.24 1750.73,1214.41 1738.55,1212.3C1726.36,1210.18 1718.19,1198.57 1720.31,1186.39C1722.43,1174.21 1734.04,1166.04 1746.22,1168.15Z" style="fill:white;stroke:white;stroke-width:16.67px;"/>
    </g>
    <g>
        <path d="M1468.69,995.552L1445.15,803.849L1621.29,721.2L1753.68,861.824L1659.37,1031.38L1468.69,995.552Z" style="fill:none;stroke:white;stroke-width:16.67px;"/>
        <path d="M1774.49,867.296C1771.96,879.398 1760.08,887.172 1747.98,884.644C1735.88,882.117 1728.1,870.239 1730.63,858.136C1733.16,846.034 1745.04,838.26 1757.14,840.788C1769.24,843.315 1777.02,855.193 1774.49,867.296Z" style="fill:white;stroke:white;stroke-width:16.67px;"/>
        <path d="M1643.74,728.786C1641.21,740.889 1629.33,748.663 1617.23,746.135C1605.12,743.608 1597.35,731.73 1599.88,719.627C1602.41,707.525 1614.28,699.751 1626.39,702.279C1638.49,704.806 1646.26,716.684 1643.74,728.786Z" style="fill:white;stroke:white;stroke-width:16.67px;"/>
        <path d="M1440.38,784.43C1452.64,782.794 1463.92,791.416 1465.55,803.671C1467.19,815.926 1458.57,827.203 1446.31,828.839C1434.06,830.474 1422.78,821.853 1421.14,809.598C1419.51,797.342 1428.13,786.065 1440.38,784.43Z" style="fill:white;stroke:white;stroke-width:16.67px;"/>
        <path d="M1489.1,1001.51C1486.57,1013.61 1474.69,1021.38 1462.59,1018.86C1450.49,1016.33 1442.72,1004.45 1445.24,992.35C1447.77,980.247 1459.65,972.474 1471.75,975.001C1483.85,977.529 1491.63,989.407 1489.1,1001.51Z" style="fill:rgb(2,0,255);stroke:white;stroke-width:16.67px;"/>
        <path d="M1680.28,1035.23C1677.75,1047.33 1665.87,1055.11 1653.77,1052.58C1641.67,1050.05 1633.89,1038.17 1636.42,1026.07C1638.95,1013.97 1650.83,1006.2 1662.93,1008.72C1675.03,1011.25 1682.81,1023.13 1680.28,1035.23Z" style="fill:white;stroke:white;stroke-width:16.67px;"/>
    </g>
    <g>
        <path d="M1473.29,1373.64L1663.43,1339.71L1755.53,1511.1L1622.32,1650.95L1447.88,1565.99L1473.29,1373.64Z" style="fill:none;stroke:white;stroke-width:16.67px;"/>
        <path d="M1617.99,1672.02C1605.76,1670.15 1597.36,1658.71 1599.22,1646.49C1601.09,1634.27 1612.52,1625.86 1624.75,1627.73C1636.97,1629.59 1645.38,1641.03 1643.51,1653.25C1641.64,1665.47 1630.21,1673.88 1617.99,1672.02Z" style="fill:white;stroke:white;stroke-width:16.67px;"/>
        <path d="M1749.18,1533.93C1736.96,1532.06 1728.55,1520.62 1730.42,1508.4C1732.28,1496.18 1743.72,1487.77 1755.94,1489.64C1768.16,1491.5 1776.57,1502.94 1774.7,1515.16C1772.84,1527.38 1761.4,1535.79 1749.18,1533.93Z" style="fill:white;stroke:white;stroke-width:16.67px;"/>
        <path d="M1682.56,1333.9C1684.86,1346.05 1676.87,1357.78 1664.72,1360.08C1652.57,1362.38 1640.84,1354.38 1638.54,1342.24C1636.24,1330.09 1644.24,1318.36 1656.39,1316.06C1668.53,1313.76 1680.26,1321.76 1682.56,1333.9Z" style="fill:white;stroke:white;stroke-width:16.67px;"/>
        <path d="M1468.45,1394.35C1456.23,1392.48 1447.82,1381.04 1449.69,1368.82C1451.56,1356.6 1462.99,1348.19 1475.21,1350.06C1487.44,1351.92 1495.85,1363.36 1493.98,1375.58C1492.11,1387.81 1480.67,1396.21 1468.45,1394.35Z" style="fill:rgb(2,0,255);stroke:white;stroke-width:16.67px;"/>
        <path d="M1445.17,1587.08C1432.95,1585.21 1424.55,1573.78 1426.41,1561.55C1428.28,1549.33 1439.71,1540.92 1451.94,1542.79C1464.16,1544.65 1472.57,1556.09 1470.7,1568.31C1468.84,1580.54 1457.4,1588.94 1445.17,1587.08Z" style="fill:white;stroke:white;stroke-width:16.67px;"/>
    </g>
    <g>
        <path d="M1096.56,1370.46L1130.69,1560.56L959.4,1652.85L819.412,1519.78L904.18,1345.25L1096.56,1370.46Z" style="fill:none;stroke:white;stroke-width:16.67px;"/>
        <path d="M798.337,1515.46C800.19,1503.24 811.618,1494.82 823.842,1496.67C836.066,1498.53 844.487,1509.95 842.634,1522.18C840.781,1534.4 829.352,1542.82 817.128,1540.97C804.904,1539.12 796.484,1527.69 798.337,1515.46Z" style="fill:white;stroke:white;stroke-width:16.67px;"/>
        <path d="M936.566,1646.51C938.419,1634.29 949.847,1625.87 962.071,1627.72C974.296,1629.58 982.716,1641.01 980.863,1653.23C979.01,1665.45 967.581,1673.87 955.357,1672.02C943.133,1670.17 934.713,1658.74 936.566,1646.51Z" style="fill:white;stroke:white;stroke-width:16.67px;"/>
        <path d="M1136.52,1579.69C1124.37,1582 1112.63,1574.02 1110.32,1561.87C1108.01,1549.72 1115.99,1537.99 1128.14,1535.67C1140.29,1533.36 1152.02,1541.35 1154.34,1553.49C1156.65,1565.64 1148.66,1577.37 1136.52,1579.69Z" style="fill:white;stroke:white;stroke-width:16.67px;"/>
        <path d="M1075.85,1365.64C1077.7,1353.42 1089.13,1345 1101.35,1346.85C1113.58,1348.7 1122,1360.13 1120.14,1372.36C1118.29,1384.58 1106.86,1393 1094.64,1391.15C1082.41,1389.29 1073.99,1377.86 1075.85,1365.64Z" style="fill:rgb(2,0,255);stroke:white;stroke-width:16.67px;"/>
        <path d="M883.092,1342.57C884.945,1330.34 896.374,1321.92 908.598,1323.78C920.822,1325.63 929.242,1337.06 927.389,1349.28C925.536,1361.51 914.108,1369.92 901.884,1368.07C889.66,1366.22 881.24,1354.79 883.092,1342.57Z" style="fill:white;stroke:white;stroke-width:16.67px;"/>
    </g>
    <g>
        <path d="M1096.84,996.083L906.043,1026.08L817.498,852.828L953.575,715.761L1126.22,804.297L1096.84,996.083Z" style="fill:none;stroke:white;stroke-width:16.67px;"/>
        <path d="M958.341,694.785C970.522,696.902 978.692,708.511 976.574,720.692C974.457,732.873 962.848,741.043 950.667,738.925C938.486,736.807 930.316,725.199 932.434,713.018C934.552,700.837 946.16,692.667 958.341,694.785Z" style="fill:white;stroke:white;stroke-width:16.67px;"/>
        <path d="M824.323,830.137C836.504,832.255 844.674,843.863 842.556,856.044C840.438,868.225 828.829,876.395 816.648,874.277C804.468,872.16 796.298,860.551 798.415,848.37C800.533,836.189 812.142,828.019 824.323,830.137Z" style="fill:white;stroke:white;stroke-width:16.67px;"/>
        <path d="M886.796,1031.49C884.748,1019.3 892.984,1007.74 905.177,1005.69C917.37,1003.64 928.931,1011.88 930.979,1024.07C933.028,1036.26 924.791,1047.83 912.598,1049.87C900.405,1051.92 888.844,1043.69 886.796,1031.49Z" style="fill:white;stroke:white;stroke-width:16.67px;"/>
        <path d="M1102.11,975.481C1114.29,977.599 1122.46,989.208 1120.34,1001.39C1118.22,1013.57 1106.61,1021.74 1094.43,1019.62C1082.25,1017.5 1074.08,1005.89 1076.2,993.715C1078.32,981.534 1089.93,973.364 1102.11,975.481Z" style="fill:rgb(2,0,255);stroke:white;stroke-width:16.67px;"/>
        <path d="M1129.36,783.273C1141.54,785.39 1149.71,796.999 1147.59,809.18C1145.48,821.361 1133.87,829.531 1121.69,827.413C1109.51,825.296 1101.34,813.687 1103.45,801.506C1105.57,789.325 1117.18,781.155 1129.36,783.273Z" style="fill:white;stroke:white;stroke-width:16.67px;"/>
    </g>
    <g>
        <path d="M675.134,846.122L673.107,1039.25L487.585,1097.88L374.953,940.974L490.865,785.382L675.134,846.122Z" style="fill:none;stroke:white;stroke-width:16.67px;"/>
        <path d="M348.728,932.799C352.834,921.137 365.636,915.003 377.298,919.109C388.959,923.216 395.094,936.017 390.987,947.679C386.881,959.341 374.079,965.475 362.417,961.369C350.755,957.263 344.621,944.461 348.728,932.799Z" style="fill:white;stroke:white;stroke-width:16.67px;"/>
        <path d="M460.01,1087.39C464.116,1075.72 476.918,1069.59 488.579,1073.7C500.241,1077.8 506.375,1090.61 502.269,1102.27C498.163,1113.93 485.361,1120.06 473.699,1115.96C462.037,1111.85 455.903,1099.05 460.01,1087.39Z" style="fill:white;stroke:white;stroke-width:16.67px;"/>
        <circle cx="668.932" cy="1036.73" r="22.401" style="fill:white;stroke:white;stroke-width:16.67px;"/>
        <path d="M649.362,837.517C653.468,825.855 666.27,819.721 677.932,823.827C689.593,827.933 695.728,840.735 691.621,852.397C687.515,864.059 674.713,870.193 663.051,866.086C651.389,861.98 645.255,849.178 649.362,837.517Z" style="fill:rgb(2,0,255);stroke:white;stroke-width:16.67px;"/>
        <path d="M464.323,778.801C468.429,767.139 481.231,761.005 492.893,765.112C504.555,769.218 510.689,782.02 506.582,793.681C502.476,805.343 489.674,811.477 478.012,807.371C466.351,803.265 460.216,790.463 464.323,778.801Z" style="fill:white;stroke:white;stroke-width:16.67px;"/>
    </g>
</svg>
