<?xml version="1.0" encoding="UTF-8" standalone="no"?>
<!DOCTYPE svg PUBLIC "-//W3C//DTD SVG 1.1//EN" "http://www.w3.org/Graphics/SVG/1.1/DTD/svg11.dtd">
<svg width="100%" height="100%" viewBox="0 0 421 62" version="1.1" xmlns="http://www.w3.org/2000/svg" xmlns:xlink="http://www.w3.org/1999/xlink" xml:space="preserve" xmlns:serif="http://www.serif.com/" style="fill-rule:evenodd;clip-rule:evenodd;stroke-linejoin:round;stroke-miterlimit:2;">
    <g>
        <path d="M89.429,32.675C89.429,34.612 89.062,36.431 88.33,38.132C87.597,39.833 86.601,41.314 85.339,42.575C84.078,43.837 82.597,44.834 80.896,45.566C79.195,46.298 77.376,46.665 75.439,46.665C74.267,46.665 73.096,46.518 71.924,46.225L71.924,38.706C72.444,39.015 73.006,39.251 73.608,39.414C74.21,39.576 74.821,39.658 75.439,39.658C76.4,39.658 77.307,39.475 78.161,39.108C79.016,38.742 79.761,38.242 80.395,37.607C81.03,36.972 81.531,36.232 81.897,35.385C82.263,34.539 82.446,33.636 82.446,32.675L82.446,11.655L89.429,11.655L89.429,32.675Z" style="fill:white;fill-rule:nonzero;"/>
        <path d="M104.834,40.268C105.094,40.349 105.355,40.402 105.615,40.427C105.875,40.451 106.136,40.463 106.396,40.463C107.047,40.463 107.674,40.374 108.276,40.195C108.878,40.016 109.444,39.759 109.973,39.426C110.502,39.092 110.974,38.685 111.389,38.205C111.804,37.725 112.142,37.192 112.402,36.606L117.285,41.513C116.666,42.392 115.954,43.181 115.149,43.881C114.343,44.581 113.472,45.175 112.536,45.664C111.601,46.152 110.616,46.522 109.582,46.774C108.549,47.027 107.487,47.153 106.396,47.153C104.557,47.153 102.828,46.811 101.208,46.127C99.589,45.444 98.173,44.492 96.96,43.271C95.748,42.05 94.791,40.598 94.092,38.913C93.392,37.229 93.042,35.377 93.042,33.359C93.042,31.292 93.392,29.404 94.092,27.695C94.791,25.986 95.748,24.529 96.96,23.325C98.173,22.12 99.589,21.184 101.208,20.517C102.828,19.85 104.557,19.516 106.396,19.516C107.487,19.516 108.553,19.646 109.595,19.907C110.636,20.167 111.625,20.542 112.561,21.03C113.497,21.518 114.372,22.116 115.185,22.824C115.999,23.532 116.715,24.326 117.334,25.205L104.834,40.268ZM108.252,26.523C107.943,26.409 107.637,26.336 107.336,26.303C107.035,26.271 106.722,26.254 106.396,26.254C105.485,26.254 104.626,26.421 103.821,26.755C103.015,27.089 102.315,27.565 101.721,28.183C101.127,28.802 100.659,29.546 100.317,30.417C99.975,31.288 99.805,32.268 99.805,33.359C99.805,33.603 99.817,33.88 99.841,34.189C99.866,34.498 99.906,34.812 99.963,35.129C100.02,35.446 100.089,35.751 100.171,36.044C100.252,36.337 100.358,36.598 100.488,36.826L108.252,26.523Z" style="fill:white;fill-rule:nonzero;"/>
        <path d="M127.344,46.665L120.679,46.665L120.679,20.517L122.29,20.517L124.487,23.056C125.561,22.08 126.778,21.327 128.137,20.798C129.496,20.269 130.916,20.004 132.397,20.004C133.992,20.004 135.498,20.31 136.914,20.92C138.33,21.53 139.567,22.369 140.625,23.435C141.683,24.501 142.517,25.746 143.127,27.17C143.738,28.594 144.043,30.112 144.043,31.723L144.043,46.665L137.378,46.665L137.378,31.723C137.378,31.04 137.248,30.393 136.987,29.782C136.727,29.172 136.369,28.639 135.913,28.183C135.457,27.727 134.928,27.369 134.326,27.109C133.724,26.848 133.081,26.718 132.397,26.718C131.697,26.718 131.038,26.848 130.42,27.109C129.801,27.369 129.264,27.727 128.808,28.183C128.353,28.639 127.995,29.172 127.734,29.782C127.474,30.393 127.344,31.04 127.344,31.723L127.344,46.665Z" style="fill:white;fill-rule:nonzero;"/>
        <path d="M163.135,46.665L147.9,46.665L147.9,40.024L163.135,40.024C163.59,40.024 163.981,39.861 164.306,39.536C164.632,39.21 164.795,38.82 164.795,38.364C164.795,37.892 164.632,37.583 164.306,37.436C163.981,37.29 163.59,37.216 163.135,37.216L156.201,37.216C155.045,37.216 153.963,36.997 152.954,36.557C151.945,36.118 151.066,35.52 150.317,34.763C149.569,34.006 148.978,33.123 148.547,32.114C148.116,31.105 147.9,30.022 147.9,28.867C147.9,27.711 148.116,26.629 148.547,25.62C148.978,24.611 149.569,23.732 150.317,22.983C151.066,22.234 151.945,21.644 152.954,21.213C153.963,20.782 155.045,20.566 156.201,20.566L169.702,20.566L169.702,27.207L156.201,27.207C155.745,27.207 155.355,27.369 155.029,27.695C154.704,28.02 154.541,28.411 154.541,28.867C154.541,29.339 154.704,29.742 155.029,30.075C155.355,30.409 155.745,30.576 156.201,30.576L163.135,30.576C164.274,30.576 165.348,30.767 166.357,31.149C167.366,31.532 168.245,32.065 168.994,32.749C169.743,33.432 170.337,34.254 170.776,35.214C171.216,36.175 171.435,37.224 171.435,38.364C171.435,39.519 171.216,40.598 170.776,41.599C170.337,42.6 169.743,43.479 168.994,44.235C168.245,44.992 167.366,45.586 166.357,46.018C165.348,46.449 164.274,46.665 163.135,46.665Z" style="fill:white;fill-rule:nonzero;"/>
        <path d="M196.68,46.665L189.673,46.665L189.673,11.655L196.68,11.655L196.68,29.16L209.717,11.655L217.676,11.655L206.616,26.425L217.676,46.665L209.717,46.665L202.026,32.504L196.68,39.658L196.68,46.665Z" style="fill:white;fill-rule:nonzero;"/>
        <path d="M226.44,46.665L219.775,46.665L219.775,20.517L221.387,20.517L223.584,23.618C224.658,22.641 225.879,21.888 227.246,21.359C228.613,20.83 230.029,20.566 231.494,20.566L237.378,20.566L237.378,27.207L231.494,27.207C230.794,27.207 230.135,27.337 229.516,27.597C228.898,27.858 228.361,28.216 227.905,28.671C227.449,29.127 227.091,29.664 226.831,30.283C226.57,30.901 226.44,31.56 226.44,32.26L226.44,46.665Z" style="fill:white;fill-rule:nonzero;"/>
        <path d="M259.497,43.613C258.96,44.101 258.386,44.561 257.776,44.992C257.165,45.424 256.527,45.798 255.859,46.115C255.192,46.433 254.504,46.685 253.796,46.872C253.088,47.059 252.368,47.153 251.636,47.153C250.024,47.153 248.511,46.868 247.095,46.298C245.679,45.729 244.437,44.919 243.371,43.869C242.305,42.819 241.467,41.542 240.857,40.036C240.246,38.531 239.941,36.842 239.941,34.97L239.941,20.517L246.582,20.517L246.582,34.97C246.582,35.849 246.716,36.634 246.985,37.326C247.253,38.018 247.615,38.6 248.071,39.072C248.527,39.544 249.06,39.902 249.67,40.146C250.281,40.39 250.936,40.512 251.636,40.512C252.319,40.512 252.966,40.354 253.576,40.036C254.187,39.719 254.72,39.3 255.176,38.779C255.631,38.258 255.989,37.668 256.25,37.009C256.51,36.35 256.64,35.67 256.64,34.97L256.64,20.517L263.305,20.517L263.305,46.665L261.694,46.665L259.497,43.613Z" style="fill:white;fill-rule:nonzero;"/>
        <path d="M301.636,46.665L294.995,46.665L294.995,30.063C294.995,29.607 294.909,29.176 294.739,28.769C294.568,28.362 294.328,28.004 294.018,27.695C293.709,27.386 293.351,27.146 292.944,26.975C292.537,26.804 292.106,26.718 291.65,26.718C291.194,26.718 290.767,26.804 290.368,26.975C289.97,27.146 289.62,27.386 289.319,27.695C289.018,28.004 288.782,28.362 288.611,28.769C288.44,29.176 288.354,29.607 288.354,30.063L288.354,46.665L281.689,46.665L281.689,30.063C281.689,29.607 281.604,29.176 281.433,28.769C281.262,28.362 281.022,28.004 280.713,27.695C280.403,27.386 280.045,27.146 279.638,26.975C279.232,26.804 278.8,26.718 278.345,26.718C277.889,26.718 277.462,26.804 277.063,26.975C276.664,27.146 276.314,27.386 276.013,27.695C275.712,28.004 275.476,28.362 275.305,28.769C275.134,29.176 275.049,29.607 275.049,30.063L275.049,46.665L268.384,46.665L268.384,20.517L269.995,20.517L271.802,22.519C272.729,21.738 273.751,21.132 274.866,20.7C275.98,20.269 277.14,20.053 278.345,20.053C279.565,20.053 280.757,20.281 281.921,20.737C283.085,21.193 284.106,21.982 284.985,23.105C285.392,22.552 285.856,22.08 286.377,21.689C286.898,21.298 287.447,20.981 288.025,20.737C288.603,20.493 289.201,20.318 289.819,20.212C290.438,20.106 291.048,20.053 291.65,20.053C293.034,20.053 294.332,20.314 295.544,20.834C296.757,21.355 297.815,22.067 298.718,22.971C299.621,23.874 300.333,24.936 300.854,26.157C301.375,27.377 301.636,28.68 301.636,30.063L301.636,46.665Z" style="fill:white;fill-rule:nonzero;"/>
        <path d="M320.849,46.665L305.615,46.665L305.615,40.024L320.849,40.024C321.305,40.024 321.696,39.861 322.021,39.536C322.347,39.21 322.51,38.82 322.51,38.364C322.51,37.892 322.347,37.583 322.021,37.436C321.696,37.29 321.305,37.216 320.849,37.216L313.916,37.216C312.76,37.216 311.678,36.997 310.669,36.557C309.66,36.118 308.781,35.52 308.032,34.763C307.283,34.006 306.693,33.123 306.262,32.114C305.831,31.105 305.615,30.022 305.615,28.867C305.615,27.711 305.831,26.629 306.262,25.62C306.693,24.611 307.283,23.732 308.032,22.983C308.781,22.234 309.66,21.644 310.669,21.213C311.678,20.782 312.76,20.566 313.916,20.566L327.417,20.566L327.417,27.207L313.916,27.207C313.46,27.207 313.069,27.369 312.744,27.695C312.418,28.02 312.256,28.411 312.256,28.867C312.256,29.339 312.418,29.742 312.744,30.075C313.069,30.409 313.46,30.576 313.916,30.576L320.849,30.576C321.989,30.576 323.063,30.767 324.072,31.149C325.081,31.532 325.96,32.065 326.709,32.749C327.458,33.432 328.052,34.254 328.491,35.214C328.93,36.175 329.15,37.224 329.15,38.364C329.15,39.519 328.93,40.598 328.491,41.599C328.052,42.6 327.458,43.479 326.709,44.235C325.96,44.992 325.081,45.586 324.072,46.018C323.063,46.449 321.989,46.665 320.849,46.665Z" style="fill:white;fill-rule:nonzero;"/>
        <path d="M340.552,13.413C340.552,14.031 340.434,14.609 340.198,15.146C339.962,15.683 339.64,16.151 339.233,16.55C338.826,16.949 338.35,17.266 337.805,17.502C337.26,17.738 336.678,17.856 336.059,17.856C335.441,17.856 334.859,17.738 334.314,17.502C333.769,17.266 333.297,16.949 332.898,16.55C332.499,16.151 332.182,15.683 331.946,15.146C331.71,14.609 331.592,14.031 331.592,13.413C331.592,12.81 331.71,12.237 331.946,11.691C332.182,11.146 332.499,10.674 332.898,10.275C333.297,9.877 333.769,9.559 334.314,9.323C334.859,9.087 335.441,8.969 336.059,8.969C336.678,8.969 337.26,9.087 337.805,9.323C338.35,9.559 338.826,9.877 339.233,10.275C339.64,10.674 339.962,11.146 340.198,11.691C340.434,12.237 340.552,12.81 340.552,13.413ZM339.404,46.665L332.69,46.665L332.69,20.517L339.404,20.517L339.404,46.665Z" style="fill:white;fill-rule:nonzero;"/>
        <path d="M354.883,40.268C355.143,40.349 355.403,40.402 355.664,40.427C355.924,40.451 356.185,40.463 356.445,40.463C357.096,40.463 357.723,40.374 358.325,40.195C358.927,40.016 359.493,39.759 360.022,39.426C360.551,39.092 361.023,38.685 361.438,38.205C361.853,37.725 362.191,37.192 362.451,36.606L367.334,41.513C366.715,42.392 366.003,43.181 365.198,43.881C364.392,44.581 363.521,45.175 362.585,45.664C361.649,46.152 360.665,46.522 359.631,46.774C358.598,47.027 357.536,47.153 356.445,47.153C354.606,47.153 352.877,46.811 351.257,46.127C349.638,45.444 348.222,44.492 347.009,43.271C345.797,42.05 344.84,40.598 344.14,38.913C343.441,37.229 343.091,35.377 343.091,33.359C343.091,31.292 343.441,29.404 344.14,27.695C344.84,25.986 345.797,24.529 347.009,23.325C348.222,22.12 349.638,21.184 351.257,20.517C352.877,19.85 354.606,19.516 356.445,19.516C357.536,19.516 358.602,19.646 359.643,19.907C360.685,20.167 361.674,20.542 362.61,21.03C363.546,21.518 364.42,22.116 365.234,22.824C366.048,23.532 366.764,24.326 367.383,25.205L354.883,40.268ZM358.301,26.523C357.991,26.409 357.686,26.336 357.385,26.303C357.084,26.271 356.771,26.254 356.445,26.254C355.534,26.254 354.675,26.421 353.869,26.755C353.064,27.089 352.364,27.565 351.77,28.183C351.176,28.802 350.708,29.546 350.366,30.417C350.024,31.288 349.853,32.268 349.853,33.359C349.853,33.603 349.866,33.88 349.89,34.189C349.914,34.498 349.955,34.812 350.012,35.129C350.069,35.446 350.138,35.751 350.22,36.044C350.301,36.337 350.407,36.598 350.537,36.826L358.301,26.523Z" style="fill:white;fill-rule:nonzero;"/>
        <path d="M393.384,25.717L388.501,30.625C388.257,29.941 387.923,29.327 387.5,28.781C387.077,28.236 386.601,27.776 386.072,27.402C385.543,27.028 384.969,26.743 384.35,26.547C383.732,26.352 383.097,26.254 382.446,26.254C381.535,26.254 380.676,26.442 379.87,26.816C379.065,27.19 378.365,27.715 377.771,28.391C377.177,29.066 376.709,29.868 376.367,30.795C376.025,31.723 375.854,32.749 375.854,33.872C375.854,34.783 376.025,35.638 376.367,36.435C376.709,37.233 377.177,37.932 377.771,38.535C378.365,39.137 379.065,39.609 379.87,39.951C380.676,40.292 381.535,40.463 382.446,40.463C383.097,40.463 383.724,40.374 384.326,40.195C384.928,40.016 385.494,39.759 386.023,39.426C386.552,39.092 387.024,38.685 387.439,38.205C387.854,37.725 388.192,37.192 388.452,36.606L393.335,41.513C392.716,42.392 392.004,43.181 391.199,43.881C390.393,44.581 389.522,45.175 388.586,45.664C387.65,46.152 386.666,46.522 385.632,46.774C384.599,47.027 383.537,47.153 382.446,47.153C380.607,47.153 378.878,46.807 377.258,46.115C375.639,45.424 374.223,44.475 373.01,43.271C371.798,42.067 370.841,40.659 370.141,39.047C369.442,37.436 369.092,35.711 369.092,33.872C369.092,31.87 369.442,29.998 370.141,28.256C370.841,26.515 371.798,24.997 373.01,23.703C374.223,22.409 375.639,21.388 377.258,20.639C378.878,19.89 380.607,19.516 382.446,19.516C383.537,19.516 384.607,19.654 385.657,19.931C386.706,20.208 387.707,20.611 388.659,21.14C389.612,21.669 390.491,22.316 391.296,23.081C392.102,23.846 392.798,24.724 393.384,25.717Z" style="fill:white;fill-rule:nonzero;"/>
        <path d="M403.345,46.665L396.631,46.665L396.631,10.117L403.345,10.117L403.345,33.164L413.281,20.566L420.947,20.566L412.28,31.455L420.947,46.665L413.281,46.665L407.983,37.167L403.345,43.32L403.345,46.665Z" style="fill:white;fill-rule:nonzero;"/>
        <path d="M33.789,5.5C32.223,3.933 29.679,3.933 28.112,5.5L5.122,28.491C3.555,30.057 3.555,32.601 5.122,34.167L27.828,56.873C29.394,58.44 31.938,58.44 33.504,56.873L56.495,33.882C58.061,32.316 58.061,29.772 56.495,28.206L33.789,5.5Z" style="fill:none;"/>
        <clipPath id="_clip1">
            <path d="M33.789,5.5C32.223,3.933 29.679,3.933 28.112,5.5L5.122,28.491C3.555,30.057 3.555,32.601 5.122,34.167L27.828,56.873C29.394,58.44 31.938,58.44 33.504,56.873L56.495,33.882C58.061,32.316 58.061,29.772 56.495,28.206L33.789,5.5Z"/>
        </clipPath>
        <g clip-path="url(#_clip1)">
            <g id="Ebene1">
                <rect x="-0.514" y="0.677" width="68.036" height="61.018" style="fill:rgb(183,28,28);"/>
            </g>
            <path d="M57.509,6.634C54.934,6.226 52.311,6.226 49.736,6.634L48.773,10.993C46.655,11.502 44.63,12.341 42.773,13.479L39.009,11.077C36.9,12.609 35.045,14.464 33.513,16.573L35.915,20.337C34.777,22.194 33.938,24.219 33.429,26.337L29.07,27.3C28.662,29.875 28.662,32.498 29.07,35.073L33.429,36.036C33.938,38.154 34.777,40.179 35.915,42.036L33.513,45.8C35.045,47.909 36.9,49.764 39.009,51.296L42.773,48.894C44.63,50.032 46.655,50.871 48.773,51.379L49.736,55.739C52.311,56.147 54.934,56.147 57.509,55.739L58.472,51.379C60.59,50.871 62.615,50.032 64.472,48.894L68.236,51.296C70.345,49.764 72.2,47.909 73.732,45.8L71.33,42.036C72.468,40.179 73.307,38.154 73.816,36.036L78.175,35.073C78.583,32.498 78.583,29.875 78.175,27.3L73.816,26.337C73.307,24.219 72.468,22.194 71.33,20.337L73.732,16.573C72.2,14.464 70.345,12.609 68.236,11.077L64.472,13.479C62.615,12.341 60.59,11.502 58.472,10.993L57.509,6.634ZM53.622,20.304C59.629,20.304 64.505,25.18 64.505,31.186C64.505,37.193 59.629,42.069 53.622,42.069C47.616,42.069 42.74,37.193 42.74,31.186C42.74,25.18 47.616,20.304 53.622,20.304Z" style="fill:rgb(235,235,235);"/>
        </g>
    </g>
</svg>
