<?xml version="1.0" encoding="UTF-8" standalone="no"?>
<!DOCTYPE svg PUBLIC "-//W3C//DTD SVG 1.1//EN" "http://www.w3.org/Graphics/SVG/1.1/DTD/svg11.dtd">
<svg width="100%" height="100%" viewBox="0 0 701 511" version="1.1" xmlns="http://www.w3.org/2000/svg" xmlns:xlink="http://www.w3.org/1999/xlink" xml:space="preserve" xmlns:serif="http://www.serif.com/" style="fill-rule:evenodd;clip-rule:evenodd;stroke-linejoin:round;stroke-miterlimit:2;">
    <g opacity="0.1">
        <path d="M700.818,9.984C700.818,4.725 696.548,0.454 691.288,0.454L10.348,0.454C5.088,0.454 0.818,4.725 0.818,9.984L0.818,29.044C0.818,34.303 5.088,38.573 10.348,38.573L691.288,38.573C696.548,38.573 700.818,34.303 700.818,29.044L700.818,9.984Z" style="fill:rgb(133,203,51);"/>
        <path d="M360.348,439.138C365.607,439.138 369.877,434.867 369.877,429.608L369.877,353.053C369.877,347.794 365.607,343.524 360.348,343.524L341.288,343.524C336.029,343.524 331.759,347.794 331.759,353.053L331.759,429.608C331.759,434.867 336.029,439.138 341.288,439.138L360.348,439.138Z" style="fill:rgb(133,203,51);"/>
        <path d="M267.786,506.141C271.418,509.946 277.455,510.087 281.259,506.455L367.744,423.91C371.548,420.278 371.689,414.241 368.058,410.436L354.898,396.649C351.267,392.844 345.229,392.703 341.425,396.335L254.941,478.881C251.136,482.512 250.995,488.549 254.627,492.354L267.786,506.141Z" style="fill:rgb(133,203,51);"/>
        <path d="M446.854,494.505C450.573,490.786 450.573,484.747 446.854,481.028L362.316,396.49C358.597,392.771 352.558,392.771 348.839,396.49L335.362,409.967C331.643,413.686 331.643,419.725 335.362,423.444L419.9,507.982C423.619,511.701 429.658,511.701 433.377,507.982L446.854,494.505Z" style="fill:rgb(133,203,51);"/>
        <path d="M654.902,38.4C654.902,17.457 637.899,0.454 616.957,0.454L84.679,0.454C63.737,0.454 46.734,17.457 46.734,38.4L46.734,341.964C46.734,362.907 63.737,379.91 84.679,379.91L616.957,379.91C637.899,379.91 654.902,362.907 654.902,341.964L654.902,38.4ZM612.452,38.573L85.719,38.573L85.719,343.524L612.452,343.524L612.452,38.573Z" style="fill:rgb(133,203,51);"/>
    </g>
</svg>
