<!DOCTYPE svg PUBLIC "-//W3C//DTD SVG 1.1//EN" "http://www.w3.org/Graphics/SVG/1.1/DTD/svg11.dtd"><svg width="100%" height="100%" viewBox="0 0 4500 4500" version="1.1" xmlns="http://www.w3.org/2000/svg" xmlns:xlink="http://www.w3.org/1999/xlink" xml:space="preserve" style="fill-rule:evenodd;clip-rule:evenodd;stroke-linejoin:round;stroke-miterlimit:2;"><path d="M4085.44,182.551c-12.671,-112.705 -114.461,-193.92 -227.166,-181.249l-3675.72,413.256c-112.705,12.671 -193.92,114.461 -181.249,227.166l413.256,3675.72c12.671,112.705 114.461,193.92 227.166,181.249l3675.72,-413.256c112.705,-12.671 193.92,-114.461 181.249,-227.166l-413.256,-3675.72Z" style="fill:#7bc74d;"/><path d="M4304.94,400.558c0,-113.415 -92.078,-205.493 -205.493,-205.493l-3698.88,-0c-113.415,-0 -205.493,92.078 -205.493,205.493l-0,3698.88c-0,113.415 92.078,205.493 205.493,205.493l3698.88,0c113.415,0 205.493,-92.078 205.493,-205.493l0,-3698.88Z" style="fill:#222831;"/><rect x="1588.48" y="466.667" width="1323.04" height="1821.5" style="fill:#eee;"/><rect x="1528.34" y="466.667" width="1443.32" height="152.659" style="fill:#eee;"/><circle cx="2250" cy="2810.33" r="1223.01" style="fill:#eee;"/><text x="2103.35px" y="4084.98px" style="font-family:'SegoeUIBlack', 'Segoe UI', sans-serif;font-weight:900;font-size:4166.67px;fill:#7bc74d;">#</text></svg>