<svg xmlns="http://www.w3.org/2000/svg" version="1.1" xmlns:xlink="http://www.w3.org/1999/xlink" xmlns:svgjs="http://svgjs.dev/svgjs" viewBox="0 0 800 800"><defs><linearGradient x1="50%" y1="0%" x2="50%" y2="100%" id="ccchaos-grad"><stop stop-color="#9CD919" stop-opacity="1" offset="0%"></stop><stop stop-color="#FFE931" stop-opacity="1" offset="100%"></stop></linearGradient></defs><g stroke-width="2" stroke="url(#ccchaos-grad)" fill="none" stroke-linecap="round"><path d="M399.08 69.14Q407.98 73.02 416.9 76.95 425.82 80.96 434.75 85.07 443.68 89.3 452.63 93.67 461.58 98.18 470.53 102.87 479.5 107.72 488.47 112.74 497.45 117.94 506.43 123.31 515.42 128.85 524.42 134.54 533.42 140.37 542.43 146.33 551.44 152.39 560.45 158.55 569.47 164.77 578.49 171.04 587.51 177.34 596.53 183.63 605.56 189.89 614.58 196.11 623.6 202.27 632.62 208.34 641.64 214.3 650.66 220.15 659.67 225.87 668.69 231.46 677.69 236.89 686.69 242.18 686.81 252.39 686.89 262.59 686.96 272.79 686.99 283 686.99 293.2 686.97 303.41 686.91 313.61 686.83 323.82 686.73 334.02 686.6 344.23 686.45 354.43 686.29 364.64 686.13 374.84 685.96 385.05 685.79 395.25 685.62 405.46 685.47 415.66 685.33 425.87 685.21 436.07 685.12 446.28 685.05 456.48 685.01 466.69 685 476.89 685.01 487.1 685.06 497.3 685.13 507.51 685.23 517.71 685.36 527.92 685.5 538.12 685.65 548.33 681.48 566.14 668.29 578.7 659.43 583.58 650.58 588.42 641.72 593.21 632.86 597.97 623.99 602.7 615.13 607.42 606.25 612.14 597.37 616.85 588.49 621.59 579.6 626.34 570.7 631.12 561.8 635.94 552.89 640.81 543.97 645.72 535.05 650.68 526.12 655.69 517.18 660.76 508.23 665.88 499.28 671.06 490.32 676.28 481.35 681.55 472.38 686.86 463.4 692.2 454.41 697.58 445.42 702.98 436.42 708.4 427.42 713.83 418.41 719.26 409.4 724.69 400.38 730.12 391.52 725.21 382.66 720.33 373.79 715.44 364.92 710.56 356.04 705.68 347.16 700.78 338.27 695.87 329.38 690.93 320.48 685.95 311.57 680.94 302.66 675.89 293.73 670.79 284.81 665.64 275.87 660.44 266.93 655.18 257.97 649.86 249.02 644.5 240.05 639.08 231.08 633.61 222.1 628.1 213.11 622.56 204.12 616.98 195.13 611.38 186.13 605.77 177.12 600.16 168.11 594.55 159.09 588.96 150.08 583.39 141.06 577.86 132.04 572.38 123.01 566.95 113.99 561.58 113.82 551.14 113.65 540.71 113.5 530.28 113.36 519.84 113.23 509.41 113.13 498.98 113.06 488.54 113.01 478.11 113 467.68 113.01 457.24 113.05 446.81 113.12 436.38 113.21 425.94 113.33 415.51 113.47 405.08 113.62 394.64 113.79 384.21 113.96 373.78 114.13 363.34 114.29 352.91 114.45 342.48 114.6 332.05 114.73 321.61 114.83 311.18 114.91 300.75 114.97 290.31 114.99 279.88 114.99 269.45 114.96 259.01 114.89 248.58 114.81 238.15 114.69 227.72 123.57 222.82 132.44 218.07 141.3 213.45 150.16 208.97 159.02 204.6 167.87 200.34 176.73 196.16 185.58 192.05 194.43 187.99 203.28 183.95 212.14 179.92 220.99 175.86 229.84 171.76 238.7 167.6 247.56 163.34 256.43 158.99 265.3 154.5 274.17 149.88 283.05 145.1 291.93 140.17 300.82 135.06 309.72 129.78 318.62 124.32 327.53 118.7 336.45 112.91 345.38 106.97 354.31 100.9 363.25 94.7 372.19 88.41 381.15 82.03 394.59 72.37 399.08 69.14" stroke-dasharray="5 3" transform="rotate(0, 400, 400)" opacity="0.12"></path><path d="M399.01 81.85Q407.6 85.59 416.18 89.39 424.78 93.26 433.38 97.21 441.99 101.27 450.6 105.46 459.22 109.78 467.85 114.24 476.48 118.86 485.12 123.63 493.77 128.57 502.42 133.66 511.08 138.9 519.73 144.29 528.4 149.81 537.07 155.46 545.73 161.22 554.41 167.07 563.08 172.99 571.76 178.97 580.43 184.99 589.11 191.02 597.79 197.04 606.46 203.05 615.13 209.01 623.81 214.91 632.47 220.73 641.14 226.45 649.8 232.08 658.46 237.58 671.49 250.5 675.93 267.85 675.98 277.66 675.99 287.48 675.99 297.29 675.95 307.11 675.89 316.93 675.8 326.74 675.69 336.56 675.57 346.37 675.42 356.19 675.27 366.01 675.11 375.82 674.94 385.64 674.78 395.46 674.62 405.27 674.47 415.09 674.34 424.9 674.22 434.72 674.13 444.54 674.06 454.35 674.01 464.17 674 473.99 674 483.8 674.04 493.62 674.1 503.43 674.19 513.25 674.3 523.07 674.42 532.88 674.57 542.7 670.55 559.79 657.86 571.75 649.35 576.38 640.84 580.97 632.32 585.53 623.81 590.07 615.29 594.59 606.77 599.1 598.24 603.62 589.71 608.14 581.18 612.69 572.64 617.27 564.1 621.87 555.55 626.52 546.99 631.21 538.43 635.95 529.86 640.74 521.29 645.58 512.71 650.47 504.12 655.42 495.52 660.41 486.92 665.46 478.31 670.54 469.7 675.67 461.08 680.83 452.45 686.01 443.82 691.22 435.18 696.45 426.53 701.69 417.88 706.93 400.63 712.44 383.51 708.03 374.97 703.35 366.43 698.68 357.88 694 349.33 689.31 340.77 684.6 332.2 679.87 323.63 675.11 315.05 670.31 306.46 665.47 297.87 660.59 289.27 655.66 280.66 650.68 272.05 645.65 263.43 640.56 254.8 635.42 246.17 630.23 237.53 624.99 228.89 619.71 220.24 614.38 211.59 609.03 202.93 603.64 194.27 598.24 185.6 592.83 176.93 587.41 168.26 582 159.59 576.61 150.91 571.24 142.24 565.9 133.56 560.61 124.88 555.36 124.72 545.34 124.57 535.31 124.42 525.29 124.3 515.26 124.19 505.23 124.1 495.21 124.04 485.18 124 475.16 124 465.13 124.01 455.1 124.06 445.08 124.13 435.05 124.22 425.03 124.34 415 124.47 404.98 124.62 394.95 124.78 384.92 124.94 374.9 125.11 364.87 125.27 354.85 125.42 344.82 125.57 334.8 125.69 324.77 125.8 314.75 125.89 304.72 125.95 294.69 125.99 284.67 125.99 274.64 125.98 264.62 125.93 254.59 130.08 237.28 142.84 225.57 151.37 221.26 159.89 217.06 168.41 212.95 176.93 208.91 185.45 204.94 193.96 201.01 202.47 197.11 210.98 193.21 219.5 189.3 228.01 185.35 236.52 181.35 245.03 177.27 253.55 173.1 262.07 168.82 270.59 164.43 279.11 159.89 287.64 155.22 296.17 150.39 304.71 145.4 313.25 140.26 321.8 134.96 330.35 129.51 338.91 123.92 347.48 118.19 356.05 112.33 364.63 106.38 373.22 100.33 381.81 94.21 394.71 84.94 399.01 81.85" stroke-dasharray="1 4" transform="rotate(4.04, 400, 400)" opacity="0.34"></path><path d="M399 94.56Q407.25 98.17 415.51 101.83 423.78 105.55 432.05 109.35 440.33 113.24 448.61 117.25 456.9 121.37 465.2 125.62 473.5 130.01 481.8 134.54 490.11 139.22 498.43 144.03 506.74 148.99 515.07 154.09 523.39 159.31 531.71 164.65 540.04 170.1 548.37 175.64 556.7 181.26 565.03 186.94 573.36 192.67 581.68 198.43 590.01 204.21 598.34 209.97 606.66 215.72 614.98 221.42 623.3 227.07 631.61 232.65 639.92 238.15 648.23 243.55 660.72 256.16 664.96 272.9 664.99 282.33 664.99 291.77 664.97 301.2 664.93 310.63 664.86 320.06 664.77 329.49 664.66 338.92 664.53 348.35 664.39 357.78 664.24 367.21 664.09 376.64 663.93 386.07 663.77 395.5 663.62 404.93 663.48 414.36 663.35 423.79 663.24 433.22 663.14 442.65 663.07 452.08 663.02 461.51 663 470.94 663 480.37 663.02 489.8 663.07 499.23 663.15 508.66 663.24 518.09 663.36 527.52 663.48 536.95 659.62 553.33 647.44 564.71 639.27 569.1 631.09 573.46 622.92 577.79 614.75 582.11 606.58 586.43 598.4 590.75 590.22 595.07 582.04 599.42 573.85 603.79 565.67 608.19 557.47 612.62 549.27 617.1 541.07 621.62 532.86 626.19 524.65 630.81 516.43 635.48 508.21 640.2 499.97 644.97 491.74 649.79 483.49 654.65 475.24 659.55 466.99 664.49 458.73 669.46 450.46 674.46 442.18 679.48 433.9 684.51 425.62 689.56 417.32 694.61 400.78 699.93 384.32 695.73 376.12 691.26 367.9 686.79 359.68 682.32 351.46 677.83 343.23 673.33 334.99 668.81 326.74 664.26 318.49 659.67 310.24 655.05 301.97 650.39 293.71 645.68 285.43 640.92 277.15 636.11 268.86 631.25 260.57 626.34 252.27 621.38 243.97 616.37 235.67 611.32 227.35 606.22 219.04 601.09 210.72 595.93 202.4 590.74 194.08 585.53 185.75 580.32 177.42 575.1 169.09 569.89 160.77 564.69 152.44 559.51 139.87 547.01 135.48 530.03 135.36 520.42 135.24 510.8 135.15 501.19 135.07 491.57 135.02 481.96 135 472.34 135 462.73 135.02 453.11 135.07 443.49 135.14 433.88 135.24 424.26 135.35 414.65 135.48 405.03 135.62 395.42 135.77 385.8 135.93 376.18 136.09 366.57 136.24 356.95 136.39 347.34 136.53 337.72 136.66 328.11 136.77 318.49 136.86 308.87 136.93 299.26 136.97 289.64 136.99 280.03 136.99 270.41 136.96 260.79 140.97 244.25 153.23 233.21 161.42 229.17 169.61 225.22 177.8 221.34 185.98 217.51 194.16 213.72 202.34 209.95 210.51 206.19 218.68 202.42 226.86 198.62 235.03 194.77 243.2 190.86 251.37 186.87 259.54 182.78 267.71 178.59 275.89 174.29 284.07 169.85 292.24 165.28 300.43 160.57 308.61 155.72 316.8 150.72 325 145.59 333.2 140.32 341.4 134.92 349.61 129.4 357.83 123.77 366.05 118.05 374.28 112.25 382.51 106.39 394.87 97.52 399 94.56" stroke-dasharray="4 4" transform="rotate(8.08, 400, 400)" opacity="0.29"></path><path d="M399.02 107.28Q414.88 114.3 430.76 121.5 438.71 125.22 446.66 129.05 454.61 132.98 462.57 137.02 470.54 141.19 478.51 145.48 486.48 149.91 494.45 154.46 502.43 159.14 510.41 163.95 518.39 168.87 526.37 173.91 534.35 179.05 542.33 184.29 550.32 189.6 558.3 194.99 566.28 200.43 574.26 205.91 582.23 211.41 590.21 216.93 598.18 222.43 606.15 227.92 614.12 233.38 622.08 238.78 630.04 244.13 637.99 249.4 649.94 261.67 653.98 277.79 653.99 286.83 653.99 295.88 653.96 304.93 653.9 313.97 653.83 323.02 653.74 332.07 653.63 341.11 653.5 350.16 653.36 359.2 653.22 368.25 653.07 377.3 652.92 386.34 652.77 395.39 652.62 404.44 652.48 413.48 652.36 422.53 652.25 431.57 652.16 440.62 652.08 449.67 652.03 458.71 652 467.76 652 476.8 652.01 485.85 652.05 494.9 652.11 503.94 652.19 512.99 652.29 522.03 652.41 531.08 648.69 546.76 637.01 557.57 629.18 561.73 621.35 565.86 613.52 569.99 605.69 574.11 597.86 578.23 590.03 582.36 582.19 586.5 574.36 590.67 566.52 594.87 558.68 599.1 550.83 603.37 542.98 607.68 535.13 612.03 527.27 616.43 519.41 620.88 511.55 625.38 503.68 629.93 495.8 634.52 487.92 639.16 480.03 643.84 472.14 648.56 464.24 653.31 456.34 658.09 448.43 662.9 440.51 667.72 432.59 672.57 424.67 677.42 416.73 682.27 400.89 687.41 385.11 683.42 377.23 679.16 369.34 674.89 361.45 670.62 353.55 666.34 345.65 662.04 337.74 657.73 329.83 653.38 321.91 649.01 313.98 644.6 306.05 640.16 298.11 635.67 290.17 631.13 282.22 626.55 274.27 621.92 266.32 617.24 258.35 612.51 250.39 607.74 242.42 602.92 234.45 598.05 226.48 593.15 218.5 588.21 210.52 583.24 202.54 578.25 194.56 573.25 186.58 568.23 178.59 563.21 170.61 558.2 162.63 553.2 150.59 541.14 146.4 524.86 146.28 515.66 146.18 506.45 146.1 497.25 146.04 488.05 146 478.84 145.99 469.64 145.99 460.44 146.02 451.23 146.07 442.03 146.15 432.83 146.24 423.62 146.35 414.42 146.47 405.22 146.61 396.01 146.76 386.81 146.91 377.61 147.06 368.4 147.21 359.2 147.35 350 147.49 340.79 147.62 331.59 147.73 322.39 147.82 313.18 147.89 303.98 147.95 294.78 147.98 285.57 147.98 276.37 147.97 267.17 151.84 251.39 163.61 240.96 179.32 233.47 195.02 226.12 210.7 218.87 226.38 211.58 242.04 204.1 257.7 196.41 265.54 192.41 273.37 188.31 281.2 184.1 289.03 179.77 296.86 175.31 304.7 170.73 312.54 166.02 320.38 161.18 328.23 156.21 336.07 151.12 343.93 145.92 351.78 140.62 359.64 135.22 367.51 129.74 375.38 124.19 383.25 118.58 395.08 110.11 399.02 107.28" stroke-dasharray="5 3" transform="rotate(12.12, 400, 400)" opacity="0.65"></path><path d="M399.09 119.98Q414.29 126.71 429.5 133.63 444.73 140.84 459.97 148.43 475.23 156.44 490.49 164.91 505.76 173.85 521.03 183.23 536.3 193 551.56 203.09 566.82 213.43 582.07 223.9 597.31 234.41 612.53 244.86 627.74 255.14 642.93 265.18 642.99 282.5 642.97 299.83 642.87 317.16 642.7 334.49 642.47 351.82 642.19 369.15 641.9 386.48 641.62 403.8 641.37 421.13 641.17 438.46 641.04 455.79 641 473.12 641.03 490.44 641.15 507.77 641.34 525.1 641.58 542.43 626.59 550.36 611.61 558.22 596.63 566.07 581.65 573.95 566.66 581.92 551.67 590.01 536.68 598.26 521.67 606.69 506.64 615.3 491.6 624.09 476.54 633.05 461.46 642.14 446.36 651.35 431.24 660.63 416.1 669.95 400.94 679.27 385.85 671.12 370.74 662.99 355.61 654.84 340.46 646.64 325.29 638.34 310.1 629.92 294.89 621.34 279.66 612.58 264.42 603.64 249.17 594.51 233.91 585.21 218.64 575.77 203.37 566.22 188.1 556.6 172.83 546.97 157.57 537.38 157.33 519.8 157.14 502.22 157.02 484.64 156.99 467.06 157.03 449.48 157.16 431.9 157.36 414.32 157.61 396.74 157.89 379.15 158.18 361.57 158.46 343.99 158.69 326.41 158.86 308.83 158.96 291.25 158.98 273.67 158.92 256.09 173.98 248.79 189.02 241.7 204.05 234.71 219.07 227.74 234.07 220.67 249.06 213.41 264.04 205.87 279.02 197.96 294 189.63 308.99 180.85 323.98 171.61 338.97 161.92 353.98 151.83 369 141.42 384.04 130.77 399.09 119.98 399.09 119.98 399.09 119.98" stroke-dasharray="1 2" transform="rotate(16.16, 400, 400)" opacity="0.95"></path><path d="M399.2 132.69Q413.73 139.14 428.27 145.76 442.82 152.64 457.39 159.84 471.96 167.41 486.53 175.39 501.11 183.8 515.68 192.6 530.26 201.78 544.82 211.27 559.38 221.01 573.92 230.92 588.46 240.92 602.97 250.9 617.48 260.8 631.96 270.53 631.99 287.09 631.95 303.66 631.84 320.23 631.66 336.79 631.43 353.36 631.17 369.93 630.89 386.49 630.62 403.06 630.38 419.62 630.19 436.19 630.06 452.76 630 469.32 630.02 485.89 630.11 502.45 630.27 519.02 630.48 535.58 616.17 543.07 601.87 550.53 587.56 558.01 573.27 565.54 558.97 573.18 544.66 580.94 530.36 588.87 516.04 596.97 501.71 605.24 487.37 613.68 473.02 622.27 458.65 630.99 444.26 639.82 429.86 648.71 415.43 657.64 400.99 666.56 386.56 658.81 372.1 651.08 357.63 643.34 343.15 635.55 328.64 627.67 314.12 619.67 299.58 611.53 285.03 603.23 270.47 594.75 255.91 586.1 241.33 577.27 226.76 568.3 212.18 559.2 197.61 550.02 183.04 540.8 168.47 531.58 168.26 514.83 168.1 498.08 168.01 481.32 167.99 464.57 168.05 447.82 168.18 431.06 168.37 414.31 168.61 397.55 168.88 380.8 169.16 364.05 169.42 347.29 169.65 330.54 169.83 313.78 169.94 297.03 169.98 280.28 169.95 263.52 184.34 256.67 198.71 249.95 213.07 243.26 227.41 236.54 241.74 229.68 256.06 222.61 270.37 215.25 284.68 207.54 298.98 199.44 313.28 190.93 327.58 182.01 341.88 172.7 356.2 163.05 370.52 153.1 384.85 142.96 399.2 132.69 399.2 132.69 399.2 132.69" stroke-dasharray="4 1" transform="rotate(20.200000000000003, 400, 400)" opacity="0.92"></path><path d="M399.34 145.4Q413.2 151.57 427.07 157.89 440.94 164.43 454.82 171.25 468.7 178.4 482.58 185.91 496.46 193.8 510.34 202.04 524.21 210.63 538.07 219.53 551.92 228.67 565.76 238.01 579.59 247.46 593.41 256.96 607.2 266.42 620.98 275.78 620.99 291.58 620.93 307.39 620.8 323.19 620.62 339 620.39 354.8 620.14 370.61 619.88 386.41 619.62 402.22 619.39 418.02 619.2 433.83 619.07 449.63 619 465.44 619 481.24 619.07 497.04 619.21 512.85 619.4 528.65 605.76 535.73 592.13 542.8 578.5 549.92 564.88 557.12 551.27 564.43 537.65 571.88 524.03 579.49 510.4 587.26 496.77 595.19 483.13 603.27 469.47 611.5 455.81 619.85 442.13 628.29 428.43 636.79 414.72 645.32 400.99 653.85 387.22 646.5 373.43 639.17 359.62 631.82 345.8 624.44 331.97 616.97 318.12 609.4 304.26 601.7 290.39 593.85 276.52 585.84 262.64 577.66 248.76 569.32 234.87 560.82 220.99 552.2 207.12 543.47 193.25 534.68 179.39 525.86 179.2 509.94 179.06 494.01 178.99 478.08 178.99 462.16 179.06 446.23 179.19 430.3 179.38 414.38 179.61 398.45 179.87 382.52 180.13 366.59 180.38 350.67 180.61 334.74 180.79 318.81 180.92 302.88 180.98 286.96 180.97 271.03 194.69 264.57 208.4 258.17 222.08 251.76 235.76 245.26 249.42 238.61 263.06 231.72 276.7 224.56 290.33 217.06 303.95 209.21 317.57 200.99 331.19 192.41 344.81 183.49 358.43 174.26 372.06 164.79 392.52 150.28 399.34 145.4" stroke-dasharray="1 4" transform="rotate(24.24, 400, 400)" opacity="0.30"></path><path d="M399.52 158.11Q412.69 164 425.88 170.02 439.06 176.23 452.25 182.68 465.44 189.41 478.62 196.46 491.81 203.84 504.98 211.55 518.15 219.56 531.31 227.87 544.46 236.42 557.59 245.17 570.71 254.06 583.82 263.03 596.92 272.02 609.99 280.97 609.98 296.01 609.9 311.05 609.76 326.1 609.58 341.14 609.36 356.18 609.11 371.22 608.86 386.27 608.62 401.31 608.4 416.35 608.22 431.39 608.09 446.44 608.01 461.48 608 476.52 608.05 491.56 608.15 506.61 608.32 521.65 595.35 528.34 582.39 535.05 569.45 541.84 556.5 548.71 543.56 555.71 530.63 562.84 517.69 570.13 504.75 577.56 491.81 585.16 478.86 592.89 465.9 600.75 452.93 608.72 439.96 616.77 426.97 624.87 413.97 633.01 400.95 641.14 387.84 634.19 374.72 627.25 361.58 620.3 348.43 613.32 335.27 606.26 322.1 599.11 308.93 591.85 295.74 584.45 282.56 576.9 269.37 569.2 256.18 561.34 242.99 553.33 229.81 545.18 216.63 536.93 203.47 528.59 190.31 520.2 190.14 505.1 190.04 490 189.99 474.9 190 459.8 190.08 444.69 190.21 429.59 190.39 414.49 190.61 399.39 190.85 384.29 191.1 369.19 191.35 354.08 191.57 338.98 191.75 323.88 191.89 308.78 191.97 293.67 191.98 278.57 205.03 272.46 218.06 266.35 231.08 260.19 244.08 253.9 257.07 247.44 270.05 240.75 283.02 233.79 295.97 226.53 308.92 218.94 321.87 211.03 334.81 202.8 347.75 194.27 360.68 185.48 373.62 176.49 393.04 162.73 399.52 158.11" stroke-dasharray="4 2" transform="rotate(28.28, 400, 400)" opacity="0.65"></path><path d="M399.71 170.82Q412.2 176.43 424.7 182.14 437.19 188.02 449.68 194.1 462.17 200.43 474.66 207.04 487.14 213.92 499.61 221.1 512.08 228.56 524.53 236.29 536.97 244.25 549.41 252.42 561.82 260.74 574.23 269.16 586.62 277.65 598.99 286.13 598.95 300.41 598.86 314.69 598.72 328.97 598.53 343.24 598.32 357.52 598.09 371.8 597.85 386.08 597.62 400.36 597.41 414.64 597.24 428.91 597.1 443.19 597.02 457.47 597 471.75 597.02 486.03 597.11 500.31 597.24 514.59 584.95 520.92 572.67 527.3 560.39 533.76 548.13 540.32 535.87 547.01 523.61 553.83 511.35 560.79 499.09 567.9 486.84 575.15 474.58 582.52 462.31 590.01 450.04 597.6 437.76 605.26 425.47 612.97 413.17 620.7 400.86 628.43 388.42 621.87 375.97 615.33 363.51 608.77 351.04 602.19 338.56 595.54 326.07 588.81 313.58 581.98 301.09 575.03 288.59 567.94 276.1 560.71 263.61 553.33 251.12 545.81 238.63 538.16 226.16 530.39 213.69 522.52 201.23 514.58 201.1 500.3 201.01 486.02 200.99 471.74 201.01 457.46 201.09 443.18 201.23 428.9 201.4 414.62 201.61 400.34 201.84 386.06 202.08 371.78 202.31 357.51 202.52 343.23 202.71 328.95 202.85 314.67 202.94 300.39 202.98 286.11 215.36 280.3 227.72 274.45 240.06 268.51 252.4 262.44 264.72 256.17 277.02 249.69 289.32 242.95 301.61 235.93 313.88 228.62 326.15 221.03 338.42 213.16 350.68 205.04 362.94 196.7 375.2 188.19 393.58 175.18 399.71 170.82" stroke-dasharray="5 2" transform="rotate(32.32, 400, 400)" opacity="0.52"></path><path d="M399.92 183.54Q411.72 188.86 423.52 194.27 435.32 199.82 447.11 205.54 458.9 211.48 470.69 217.64 482.46 224.06 494.23 230.72 505.99 237.64 517.74 244.81 529.48 252.19 541.2 259.77 552.92 267.5 564.62 275.37 576.31 283.32 587.98 291.31 587.92 304.82 587.82 318.33 587.67 331.84 587.49 345.35 587.28 358.86 587.06 372.37 586.84 385.89 586.62 399.4 586.42 412.91 586.25 426.42 586.12 439.93 586.04 453.45 586 466.96 586.01 480.47 586.07 493.98 586.18 507.5 574.56 513.49 562.95 519.55 551.35 525.7 539.76 531.96 528.17 538.33 516.59 544.84 505.01 551.48 493.44 558.26 481.86 565.16 470.29 572.17 458.71 579.29 447.13 586.49 435.54 593.75 423.95 601.06 412.35 608.38 400.74 615.71 388.97 609.54 377.2 603.39 365.41 597.23 353.62 591.04 341.83 584.8 330.03 578.48 318.23 572.08 306.43 565.57 294.63 558.94 282.83 552.18 271.04 545.28 259.25 538.25 247.47 531.1 235.69 523.82 223.92 516.44 212.17 508.97 212.06 495.51 212 482.05 211.99 468.59 212.03 455.13 212.11 441.67 212.24 428.21 212.41 414.75 212.61 401.29 212.83 387.83 213.05 374.37 213.27 360.91 213.48 347.45 213.66 333.99 213.81 320.53 213.91 307.07 213.97 293.62 225.67 288.08 237.36 282.46 249.03 276.74 260.69 270.87 272.34 264.81 283.98 258.54 295.61 252.03 307.22 245.28 318.83 238.28 330.43 231.02 342.02 223.53 353.61 215.83 365.19 207.94 376.77 199.9 394.13 187.65 399.92 183.54" stroke-dasharray="1 3" transform="rotate(36.36, 400, 400)" opacity="0.45"></path><path d="M400.13 196.25Q411.24 201.28 422.34 206.38 433.43 211.6 444.53 216.97 455.61 222.52 466.69 228.26 477.76 234.22 488.83 240.39 499.88 246.79 510.93 253.4 521.96 260.22 532.98 267.21 543.99 274.37 554.99 281.67 565.98 289.06 576.96 296.53 576.89 309.27 576.77 322.01 576.62 334.75 576.44 347.49 576.24 360.23 576.04 372.97 575.82 385.72 575.62 398.46 575.43 411.2 575.27 423.94 575.14 436.68 575.05 449.42 575 462.17 575 474.91 575.04 487.65 575.12 500.39 564.18 506.07 553.24 511.82 542.32 517.67 531.4 523.63 520.48 529.7 509.58 535.9 498.68 542.21 487.78 548.65 476.88 555.2 465.99 561.85 455.09 568.58 444.2 575.39 433.3 582.26 422.4 589.16 411.49 596.08 400.58 603 389.49 597.22 378.4 591.45 367.3 585.68 356.19 579.88 345.09 574.04 333.98 568.14 322.88 562.16 311.77 556.09 300.67 549.91 289.57 543.62 278.48 537.2 267.39 530.66 256.31 524 245.23 517.22 234.17 510.33 223.11 503.36 223.03 490.71 222.99 478.07 222.99 465.42 223.04 452.78 223.13 440.13 223.26 427.49 223.42 414.84 223.61 402.2 223.81 389.55 224.03 376.91 224.23 364.27 224.43 351.62 224.61 338.98 224.76 326.33 224.88 313.69 224.95 301.05 235.97 295.75 246.98 290.36 257.98 284.85 268.97 279.18 279.95 273.34 290.92 267.3 301.87 261.05 312.82 254.58 323.76 247.89 334.69 240.98 345.61 233.88 356.52 226.6 367.43 219.16 378.34 211.6 394.68 200.1 400.13 196.25" stroke-dasharray="4 4" transform="rotate(40.400000000000006, 400, 400)" opacity="0.60"></path><path d="M400.34 208.96Q410.74 213.69 421.14 218.49 431.54 223.39 441.92 228.41 452.31 233.58 462.68 238.91 473.05 244.42 483.41 250.12 493.75 256.01 504.09 262.09 514.42 268.35 524.74 274.78 535.06 281.36 545.36 288.08 555.65 294.91 565.93 301.83 565.84 313.79 565.72 325.76 565.57 337.73 565.39 349.69 565.21 361.66 565.01 373.63 564.81 385.6 564.62 397.56 564.45 409.53 564.29 421.5 564.17 433.46 564.07 445.43 564.01 457.4 564 469.37 564.02 481.34 564.07 493.3 553.8 498.67 543.54 504.13 533.29 509.68 523.05 515.34 512.81 521.11 502.58 526.99 492.35 532.97 482.13 539.07 471.91 545.26 461.69 551.54 451.48 557.89 441.27 564.31 431.05 570.77 420.84 577.27 410.62 583.78 400.4 590.29 389.99 584.9 379.58 579.51 369.17 574.12 358.76 568.71 348.35 563.27 337.94 557.77 327.53 552.21 317.12 546.57 306.72 540.84 296.32 535 285.92 529.06 275.54 523.01 265.16 516.84 254.78 510.57 244.42 504.19 234.06 497.71 234.01 485.88 233.99 474.04 234 462.21 234.06 450.38 234.16 438.54 234.28 426.71 234.44 414.87 234.61 403.04 234.8 391.21 235 379.37 235.2 367.54 235.38 355.71 235.56 343.87 235.71 332.04 235.83 320.21 235.92 308.37 246.26 303.31 256.6 298.14 266.92 292.84 277.24 287.39 287.54 281.77 297.84 275.98 308.12 270 318.4 263.83 328.67 257.47 338.92 250.93 349.18 244.23 359.42 237.38 369.66 230.4 379.89 223.31 395.23 212.56 400.34 208.96" stroke-dasharray="2 0" transform="rotate(44.44, 400, 400)" opacity="0.48"></path><path d="M400.53 221.67Q410.23 226.11 419.92 230.6 429.61 235.18 439.3 239.85 448.97 244.65 458.64 249.58 468.31 254.66 477.96 259.9 487.6 265.3 497.24 270.86 506.87 276.58 516.49 282.46 526.1 288.48 535.7 294.62 545.3 300.89 554.89 307.24 554.79 318.43 554.66 329.61 554.51 340.8 554.35 351.99 554.17 363.18 553.98 374.37 553.8 385.55 553.62 396.74 553.46 407.93 553.31 419.12 553.19 430.31 553.09 441.5 553.03 452.68 553 463.87 553 475.06 553.04 486.25 543.44 491.33 533.86 496.49 524.28 501.75 514.71 507.11 505.14 512.56 495.59 518.12 486.03 523.77 476.48 529.52 466.94 535.34 457.4 541.25 447.87 547.22 438.33 553.24 428.8 559.3 419.27 565.38 409.73 571.48 400.2 577.58 390.48 572.57 380.76 567.56 371.04 562.55 361.33 557.53 351.61 552.48 341.9 547.38 332.18 542.23 322.48 537.02 312.77 531.72 303.08 526.34 293.38 520.87 283.7 515.3 274.02 509.63 264.35 503.85 254.68 497.98 245.03 492.01 244.99 480.99 244.99 469.96 245.02 458.93 245.08 447.9 245.18 436.87 245.3 425.84 245.45 414.82 245.61 403.79 245.79 392.76 245.97 381.73 246.16 370.71 246.34 359.68 246.5 348.65 246.65 337.62 246.78 326.59 246.88 315.57 256.54 310.72 266.19 305.77 275.84 300.69 285.48 295.47 295.11 290.1 304.73 284.57 314.35 278.88 323.95 273.03 333.55 267.02 343.14 260.87 352.72 254.57 362.29 248.15 371.86 241.63 381.42 235.03 395.75 225.02 400.53 221.67" stroke-dasharray="1 1" transform="rotate(48.48, 400, 400)" opacity="0.88"></path><path d="M400.69 234.38Q409.69 238.52 418.68 242.7 427.67 246.95 436.64 251.29 445.62 255.72 454.58 260.26 463.54 264.92 472.49 269.72 481.43 274.65 490.37 279.71 499.3 284.92 508.22 290.25 517.13 295.72 526.04 301.3 534.94 307 543.83 312.79 543.73 323.19 543.6 333.6 543.45 344 543.29 354.4 543.13 364.81 542.96 375.21 542.79 385.62 542.62 396.02 542.47 406.42 542.33 416.83 542.21 427.23 542.12 437.64 542.05 448.04 542.01 458.45 542 468.85 542.01 479.26 533.09 484.05 524.18 488.93 515.28 493.89 506.38 498.94 497.49 504.08 488.61 509.31 479.73 514.62 470.86 520.01 461.99 525.46 453.12 530.99 444.26 536.56 435.4 542.18 426.55 547.83 417.69 553.51 408.84 559.19 399.99 564.87 390.96 560.24 381.94 555.61 372.92 550.98 363.9 546.34 354.88 541.67 345.87 536.98 336.85 532.23 327.85 527.44 318.85 522.57 309.85 517.64 300.86 512.62 291.87 507.52 282.9 502.34 273.92 497.06 264.96 491.69 256 486.24 255.99 476.01 256 465.78 256.04 455.56 256.11 445.33 256.2 435.1 256.32 424.88 256.46 414.65 256.61 404.42 256.78 394.19 256.95 383.97 257.12 373.74 257.28 363.51 257.44 353.29 257.59 343.06 262.26 325.41 275.78 313.25 284.75 308.41 293.71 303.43 302.66 298.32 311.61 293.08 320.55 287.7 329.48 282.19 338.41 276.55 347.32 270.78 356.24 264.9 365.14 258.93 374.04 252.87 382.93 246.75 396.25 237.48 400.69 234.38" stroke-dasharray="3 1" transform="rotate(52.52, 400, 400)" opacity="0.69"></path><path d="M400.83 247.09Q409.12 250.93 417.41 254.8 425.69 258.73 433.96 262.73 442.23 266.8 450.49 270.96 458.74 275.22 466.99 279.58 475.24 284.06 483.47 288.65 491.7 293.35 499.93 298.17 508.15 303.1 516.36 308.13 528.61 320.69 532.53 337.73 532.39 347.34 532.24 356.96 532.09 366.58 531.93 376.19 531.77 385.81 531.62 395.42 531.48 405.04 531.35 414.66 531.24 424.27 531.14 433.89 531.07 443.5 531.02 453.12 526.88 469.79 514.52 481.44 506.3 486.1 498.07 490.84 489.86 495.65 481.65 500.54 473.44 505.5 465.24 510.53 457.05 515.61 448.86 520.74 440.67 525.92 432.48 531.14 424.3 536.38 416.13 541.63 399.7 547.4 383.12 543.65 374.8 539.39 366.48 535.13 358.16 530.85 349.85 526.54 341.54 522.2 333.23 517.81 324.93 513.37 316.64 508.87 308.35 504.31 300.06 499.67 291.79 494.97 283.51 490.18 271.12 478.13 267.01 461.51 267.06 452.08 267.13 442.65 267.23 433.22 267.34 423.79 267.47 414.36 267.61 404.92 267.76 395.49 267.92 386.06 268.08 376.63 268.23 367.2 268.38 357.77 268.52 348.34 272.85 331.99 285.35 320.59 293.64 315.99 301.92 311.28 310.2 306.46 318.46 301.52 326.73 296.47 334.99 291.31 343.24 286.05 351.48 280.69 359.72 275.24 367.95 269.71 376.18 264.12 384.4 258.48 396.72 249.94 400.83 247.09" stroke-dasharray="2 2" transform="rotate(56.56, 400, 400)" opacity="0.98"></path><path d="M400.93 259.81Q416.09 266.91 431.24 274.17 446.37 281.68 461.47 289.49 476.56 297.66 491.62 306.2 506.67 315.12 521.7 324.38 521.47 342.03 521.19 359.67 520.9 377.32 520.62 394.96 520.37 412.6 520.17 430.25 520.04 447.89 520 465.53 504.88 474.03 489.78 482.8 474.7 491.83 459.65 501.08 444.61 510.52 429.59 520.1 414.58 529.76 399.58 539.45 384.32 531.67 369.08 523.9 353.85 516.08 338.64 508.14 323.45 500.05 308.27 491.74 293.12 483.19 277.99 474.37 278.03 457.1 278.16 439.82 278.36 422.55 278.61 405.27 278.89 388 279.18 370.72 279.46 353.45 279.69 336.17 294.91 327.78 310.11 319.03 325.3 309.9 340.47 300.41 355.61 290.6 370.74 280.51 385.84 270.22 400.93 259.81 400.93 259.81 400.93 259.81" stroke-dasharray="3 4" transform="rotate(60.599999999999994, 400, 400)" opacity="0.96"></path><path d="M400.98 272.52Q414.74 278.99 428.49 285.6 442.22 292.39 455.93 299.42 469.62 306.73 483.3 314.33 496.97 322.24 510.62 330.45 510.39 346.5 510.14 362.55 509.88 378.6 509.62 394.65 509.39 410.7 509.2 426.75 509.07 442.8 509 458.85 495.25 466.74 481.5 474.85 467.78 483.18 454.07 491.68 440.38 500.33 426.71 509.08 413.05 517.9 399.4 526.74 385.54 519.7 371.7 512.67 357.88 505.6 344.07 498.45 330.27 491.18 316.49 483.74 302.74 476.1 288.99 468.25 289.06 452.55 289.19 436.86 289.38 421.16 289.61 405.46 289.87 389.76 290.13 374.06 290.38 358.36 290.61 342.66 304.46 334.81 318.29 326.66 332.11 318.21 345.92 309.47 359.71 300.49 373.49 291.3 394.11 277.23 400.98 272.52" stroke-dasharray="3 1" transform="rotate(64.64, 400, 400)" opacity="0.98"></path><path d="M400.99 285.23Q413.36 291.08 425.7 297.03 438.04 303.12 450.36 309.39 462.67 315.87 474.97 322.57 487.26 329.52 499.53 336.71 499.32 351.15 499.09 365.6 498.85 380.05 498.62 394.5 498.41 408.95 498.24 423.4 498.1 437.85 498.02 452.3 485.63 459.55 473.25 466.99 460.88 474.58 448.52 482.31 436.18 490.16 423.86 498.08 411.54 506.05 399.24 514.03 386.79 507.72 374.35 501.42 361.93 495.1 349.52 488.72 337.12 482.24 324.74 475.65 312.37 468.9 300.01 461.99 300.09 447.86 300.23 433.73 300.4 419.6 300.61 405.48 300.84 391.35 301.08 377.22 301.31 363.09 301.52 348.96 314 341.7 326.46 334.2 338.91 326.46 351.35 318.52 363.78 310.38 376.2 302.09 394.8 289.46 400.99 285.23" stroke-dasharray="3 0" transform="rotate(68.68, 400, 400)" opacity="0.83"></path><path d="M400.96 297.94Q411.93 303.16 422.89 308.45 433.83 313.85 444.77 319.38 455.7 325.06 466.62 330.9 477.53 336.93 488.44 343.15 488.24 355.99 488.03 368.83 487.82 381.68 487.62 394.52 487.43 407.36 487.27 420.21 487.14 433.05 487.05 445.9 476.02 452.48 465 459.21 454 466.05 443 472.99 432.01 480.01 421.04 487.09 410.07 494.2 399.12 501.32 388.07 495.74 377.03 490.16 366.01 484.57 354.99 478.95 343.99 473.26 332.99 467.48 322.01 461.59 311.04 455.58 311.13 443.02 311.26 430.46 311.42 417.89 311.61 405.33 311.81 392.77 312.02 380.21 312.23 367.64 312.43 355.08 323.52 348.46 334.61 341.65 345.69 334.67 356.76 327.54 367.83 320.27 378.88 312.89 395.44 301.69 400.96 297.94" stroke-dasharray="5 3" transform="rotate(72.72, 400, 400)" opacity="0.92"></path><path d="M400.89 310.65Q410.46 315.24 420.04 319.88 429.6 324.59 439.16 329.39 448.71 334.3 458.26 339.32 467.81 344.48 477.34 349.77 477.17 361.01 476.98 372.24 476.8 383.47 476.62 394.71 476.46 405.94 476.31 417.17 476.19 428.41 476.09 439.64 466.43 445.53 456.78 451.5 447.13 457.57 437.5 463.7 427.87 469.89 418.25 476.11 408.64 482.36 399.04 488.61 389.39 483.74 379.75 478.89 370.11 474.03 360.49 469.14 350.88 464.21 341.27 459.22 331.67 454.17 322.08 449.02 322.18 438.02 322.3 427.02 322.45 416.02 322.61 405.02 322.79 394.02 322.97 383.02 323.16 372.03 323.33 361.03 333.05 355.09 342.75 349.02 352.45 342.84 362.15 336.55 371.85 330.16 381.53 323.7 396.05 313.92 400.89 310.65" stroke-dasharray="2 1" transform="rotate(76.76, 400, 400)" opacity="0.18"></path><path d="M400.77 323.36Q408.97 327.31 417.16 331.29 425.35 335.32 433.53 339.42 441.72 343.58 449.89 347.82 462.08 359.17 465.93 375.81 465.77 385.43 465.62 395.06 465.48 404.68 465.35 414.3 461.05 431.3 448.57 443.89 440.29 449.14 432.02 454.45 423.76 459.78 415.5 465.15 398.99 471.13 382.49 467.6 374.25 463.45 366.01 459.29 357.79 455.11 349.56 450.89 337.29 439.75 333.34 423.44 333.47 414 333.61 404.57 333.76 395.13 333.92 385.69 338.32 368.94 350.88 356.34 359.21 350.98 367.53 345.55 375.84 340.06 384.16 334.52 396.62 326.15 400.77 323.36" stroke-dasharray="5 5" transform="rotate(80.80000000000001, 400, 400)" opacity="0.72"></path><path d="M400.62 336.08Q414.26 342.7 427.89 349.45 441.52 356.37 455.14 363.51 454.88 379.53 454.62 395.55 454.39 411.58 454.2 427.59 440.38 436.35 426.57 445.23 412.78 454.19 399 463.18 385.27 456.3 371.56 449.42 357.87 442.49 344.19 435.46 344.38 419.71 344.61 403.97 344.87 388.22 345.13 372.47 359.01 363.6 372.89 354.54 393.69 340.71 400.62 336.08" stroke-dasharray="5 3" transform="rotate(84.84, 400, 400)" opacity="0.73"></path><path d="M400.44 348.78Q411.34 354.11 422.24 359.49 433.14 364.98 444.04 370.58 443.82 383.38 443.62 396.19 443.43 408.99 443.27 421.79 432.2 428.88 421.14 436.05 410.09 443.25 399.05 450.47 388.09 444.99 377.14 439.51 366.19 434.02 355.26 428.48 355.42 415.86 355.61 403.24 355.81 390.63 356.03 378.01 367.13 370.82 378.24 363.54 394.89 352.49 400.44 348.78" stroke-dasharray="1 3" transform="rotate(88.88, 400, 400)" opacity="0.75"></path><path d="M400.24 361.49Q408.42 365.5 416.59 369.54 428.77 380.48 432.62 396.93 428.26 414 415.74 426.9 399.19 432.99 382.73 429.58 370.5 418.69 366.61 402.42 371.01 385.48 383.58 372.55 396.08 364.26 400.24 361.49" stroke-dasharray="4 1" transform="rotate(92.92, 400, 400)" opacity="0.59"></path><path d="M400.04 374.2Q410.93 379.57 421.82 385.01 421.62 397.77 421.43 410.53 410.35 417.79 399.27 425.05 388.34 419.62 377.42 414.19 377.61 401.52 377.81 388.86 394.48 377.88 400.04 374.2" stroke-dasharray="2 5" transform="rotate(96.96, 400, 400)" opacity="0.50"></path></g></svg>