<svg xmlns="http://www.w3.org/2000/svg" xmlns:xlink="http://www.w3.org/1999/xlink" width="33.05" height="48.343" viewBox="0 0 33.05 48.343">
    <defs>
        <clipPath id="clip-path">
            <path id="Pfad_3" data-name="Pfad 3" d="M304.121,762.75c8.424,2.491,15.23-2.645,15.23,5.879a15.444,15.444,0,0,1-30.889,0C288.462,760.1,295.947,760.333,304.121,762.75Z" transform="translate(-288.462 -761.296)" fill="#b7d969" clip-rule="evenodd" />
        </clipPath>
    </defs>
    <g id="Iter1" transform="translate(-288.38 -36.11)">
        <path id="Pfad_2" data-name="Pfad 2" d="M304.121,762.75c8.424,2.491,15.23-2.645,15.23,5.879a15.444,15.444,0,0,1-30.889,0C288.462,760.1,295.947,760.333,304.121,762.75Z" transform="translate(-0.079 -700.137)" fill="#b7d969" fill-rule="evenodd" />
        <g id="Gruppe_3" data-name="Gruppe 3" transform="translate(288.383 61.159)" clip-path="url(#clip-path)">
            <g id="Gruppe_2" data-name="Gruppe 2" transform="translate(4.785 3.496)">
                <ellipse id="Ellipse_1" data-name="Ellipse 1" cx="1.377" cy="1.284" rx="1.377" ry="1.284" transform="translate(1.177)" fill="#b7d969" />
                <ellipse id="Ellipse_2" data-name="Ellipse 2" cx="0.729" cy="0.68" rx="0.729" ry="0.68" transform="translate(3.202 5.815)" fill="#b7d969" />
                <ellipse id="Ellipse_3" data-name="Ellipse 3" cx="0.729" cy="0.68" rx="0.729" ry="0.68" transform="translate(0.448 5.815)" fill="#b7d969" />
                <ellipse id="Ellipse_4" data-name="Ellipse 4" cx="0.588" cy="0.549" rx="0.588" ry="0.549" transform="translate(1.965 3.696)" fill="#b7d969" />
                <ellipse id="Ellipse_5" data-name="Ellipse 5" cx="0.588" cy="0.549" rx="0.588" ry="0.549" transform="translate(0 2.599)" fill="#b7d969" />
            </g>
        </g>
        <path id="Pfad_4" data-name="Pfad 4" d="M293.3,57.3a15.824,15.824,0,0,0-3.427,4.615,14.469,14.469,0,0,0-1.473,5.64,15.586,15.586,0,0,0,.342,4.035,16.964,16.964,0,0,0,1.336,3.851,16.554,16.554,0,0,0,1.951,3.087,15.612,15.612,0,0,0,2.63,2.592,16.068,16.068,0,0,0,15.276,2.36,17.482,17.482,0,0,0,2.964-1.42,18.633,18.633,0,0,0,4.951-4.325,17.147,17.147,0,0,0,1.832-2.817,16.541,16.541,0,0,0,1.727-8.488,19.767,19.767,0,0,0-2.359-8.315,16.893,16.893,0,0,0-2.861-3.861,13.951,13.951,0,0,0-2.363-1.918l.453-15.805h-3.285l-11.742-.425v7.42l8.58-.31.387,10.71v1.839l1.694.716a8.786,8.786,0,0,1,2.674,1.6,11.775,11.775,0,0,1,2.183,2.54,15.053,15.053,0,0,1,2.251,6.185,12.432,12.432,0,0,1-.814,6.459,13.406,13.406,0,0,1-1.269,2.3,14.956,14.956,0,0,1-1.709,2.063,15.263,15.263,0,0,1-2.065,1.746,14.394,14.394,0,0,1-2.349,1.344,13.272,13.272,0,0,1-6.592,1.106,13.73,13.73,0,0,1-8.943-4.371,15.027,15.027,0,0,1-1.969-2.667,15.709,15.709,0,0,1-1.491-3.467,14.618,14.618,0,0,1-.592-3.751,13.834,13.834,0,0,1,1.022-5.482,15.6,15.6,0,0,1,3.05-4.782l0,0Z" fill="#b7d969" fill-rule="evenodd" />
    </g>
</svg>
  