<?xml version="1.0" standalone="no"?>
<!DOCTYPE svg PUBLIC "-//W3C//DTD SVG 20010904//EN"
 "http://www.w3.org/TR/2001/REC-SVG-20010904/DTD/svg10.dtd">
<svg version="1.0" xmlns="http://www.w3.org/2000/svg"
 width="1020.000000pt" height="1020.000000pt" viewBox="0 0 1020.000000 1020.000000"
 preserveAspectRatio="xMidYMid meet">
<metadata>
Created by potrace 1.14, written by Peter Selinger 2001-2017
</metadata>
<g transform="translate(0.000000,1020.000000) scale(0.100000,-0.100000)"
fill="#000000" stroke="none">
<path d="M4180 9195 l0 -747 78 6 c42 3 138 8 212 11 74 3 167 8 205 10 39 3
124 7 190 10 66 3 156 7 200 10 44 3 136 7 205 10 69 3 157 7 195 10 39 2 138
7 220 10 83 4 157 8 167 11 29 8 24 62 53 -646 3 -80 8 -190 10 -245 2 -55 6
-165 10 -245 3 -80 8 -199 10 -265 3 -66 7 -178 10 -250 9 -198 13 -304 20
-495 4 -96 8 -204 10 -240 2 -36 4 -81 4 -101 1 -39 -6 -35 236 -144 181 -82
360 -174 435 -223 376 -246 684 -639 894 -1141 l35 -83 -62 6 c-187 20 -347
22 -707 10 -563 -18 -869 -8 -1197 42 -171 26 -354 68 -587 135 -433 124 -845
206 -1216 243 -184 18 -532 14 -675 -9 -358 -56 -624 -185 -800 -386 -27 -31
-51 -54 -53 -50 -1 4 16 61 39 127 116 337 280 635 508 923 116 147 106 143
-38 -15 -140 -154 -276 -339 -385 -526 -64 -109 -186 -359 -186 -380 0 -8 -4
-18 -9 -23 -10 -11 -107 -293 -114 -335 -3 -14 -12 -52 -20 -85 -20 -76 -46
-216 -53 -280 -2 -28 -7 -61 -10 -75 -9 -43 -12 -481 -4 -570 15 -164 36 -304
64 -437 54 -253 175 -574 308 -818 312 -572 729 -1002 1269 -1308 126 -72 383
-188 499 -227 49 -16 195 -61 210 -65 8 -2 44 -11 80 -20 36 -9 74 -19 85 -21
98 -20 186 -36 215 -40 19 -2 68 -9 109 -14 81 -11 266 -22 381 -23 79 0 331
13 340 18 3 1 32 6 65 9 59 7 87 11 135 21 13 2 41 7 61 10 71 11 275 64 394
103 257 84 526 211 755 355 70 44 258 174 276 192 7 5 24 19 40 30 60 42 236
198 331 292 354 351 623 755 785 1178 61 156 115 334 131 425 3 14 10 43 15
65 6 22 13 56 16 75 3 19 8 46 10 60 20 115 35 241 42 355 6 87 5 441 0 475
-3 14 -7 61 -10 105 -4 43 -11 111 -17 150 -5 38 -12 84 -14 100 -15 110 -87
423 -119 520 -8 22 -24 72 -36 110 -12 39 -26 79 -30 90 -5 11 -21 52 -35 90
-121 324 -314 663 -544 960 -95 123 -362 394 -461 470 -36 27 -74 58 -85 68
-11 10 -51 39 -90 65 -38 26 -72 50 -76 54 -3 4 -4 34 -3 65 1 32 5 159 8 283
4 124 9 284 11 355 2 72 7 220 10 330 3 110 7 272 10 360 6 193 13 412 20 680
3 110 8 256 10 325 2 69 7 226 10 350 4 124 8 266 9 316 2 51 1 96 -3 101 -3
5 -26 9 -51 9 -72 2 -565 15 -685 19 -60 2 -209 7 -330 10 -212 5 -310 8 -715
20 -102 3 -265 8 -363 10 -176 5 -375 10 -699 20 l-168 6 0 -746z"/>
<path d="M2935 5639 c-4 -6 -5 -12 -2 -15 2 -3 7 2 10 11 7 17 1 20 -8 4z"/>
</g>
</svg>
