<?xml version="1.0" encoding="UTF-8" standalone="no"?>
<!DOCTYPE svg PUBLIC "-//W3C//DTD SVG 1.1//EN" "http://www.w3.org/Graphics/SVG/1.1/DTD/svg11.dtd">
<svg width="100%" height="100%" viewBox="0 0 69 69" version="1.1" xmlns="http://www.w3.org/2000/svg" xmlns:xlink="http://www.w3.org/1999/xlink" xml:space="preserve" xmlns:serif="http://www.serif.com/" style="fill-rule:evenodd;clip-rule:evenodd;stroke-linejoin:round;stroke-miterlimit:2;">
    <g id="Assets-Logos-Thünen-Logo-default" serif:id="Assets/Logos/Thünen-Logo-default">
        <g id="Logo-Gruppe">
           <path id="Fill-27" d="M66,10.502C66,15.199 62.199,19 57.502,19C52.807,19 49,15.199 49,10.502C49,5.803 52.807,2 57.502,2C62.199,2 66,5.803 66,10.502" style="fill:rgb(120,190,30);"/>
            <path id="Fill-29" d="M43,10.499C43,14.643 39.645,18 35.501,18C31.358,18 28,14.643 28,10.499C28,6.352 31.358,3 35.501,3C39.645,3 43,6.352 43,10.499" style="fill:rgb(0,170,130);"/>
            <path id="Fill-31" d="M44,31.496C44,36.193 40.197,40 35.502,40C30.807,40 27,36.193 27,31.496C27,26.804 30.807,23 35.502,23C40.197,23 44,26.804 44,31.496" style="fill:rgb(0,170,170);"/>
            <path id="Fill-33" d="M46,55.498C46,61.3 41.303,66 35.5,66C29.702,66 25,61.3 25,55.498C25,49.698 29.702,45 35.5,45C41.303,45 46,49.698 46,55.498" style="fill:rgb(0,140,210);"/>
            <path id="Fill-35" d="M21,10.5C21,16.304 16.304,21 10.501,21C4.703,21 0,16.304 0,10.5C0,4.699 4.703,0 10.501,0C16.304,0 21,4.699 21,10.5" style="fill:rgb(0,170,170);"/>
            <path id="Fill-37" d="M15,32.997C15,35.205 13.213,37 11,37C8.791,37 7,35.205 7,32.997C7,30.791 8.791,29 11,29C13.213,29 15,30.791 15,32.997" style="fill:rgb(0,140,210);"/>
            <path id="Fill-39" d="M13,55.499C13,56.88 11.884,58 10.502,58C9.119,58 8,56.88 8,55.499C8,54.119 9.119,53 10.502,53C11.884,53 13,54.119 13,55.499" style="fill:rgb(0,140,210);"/>
            <path id="Fill-41" d="M61,55.501C61,57.435 59.436,59 57.501,59C55.571,59 54,57.435 54,55.501C54,53.567 55.571,52 57.501,52C59.436,52 61,53.567 61,55.501" style="fill:rgb(0,170,170);"/>
            <path id="Fill-43" d="M59,32.997C59,34.104 58.104,35 56.997,35C55.896,35 55,34.104 55,32.997C55,31.896 55.896,31 56.997,31C58.104,31 59,31.896 59,32.997" style="fill:rgb(0,170,130);"/>
        </g>
    </g>
</svg>
