<?xml version="1.0" encoding="UTF-8" standalone="no"?>
<!DOCTYPE svg PUBLIC "-//W3C//DTD SVG 1.1//EN" "http://www.w3.org/Graphics/SVG/1.1/DTD/svg11.dtd">
<svg width="100%" height="100%" viewBox="0 0 74 74" version="1.1" xmlns="http://www.w3.org/2000/svg" xmlns:xlink="http://www.w3.org/1999/xlink" xml:space="preserve" xmlns:serif="http://www.serif.com/" style="fill-rule:evenodd;clip-rule:evenodd;stroke-linejoin:round;stroke-miterlimit:2;">
    <g transform="matrix(1,0,0,1,-0.837744,0)">
        <rect x="0" y="0" width="198.42" height="73.7" style="fill:rgb(190,30,60);"/>
    </g>
    <g transform="matrix(1,0,0,1,-12.9151,0.145358)">
        <path d="M41,33.3C41.434,33.064 41.851,32.8 42.25,32.51C42.65,32.188 42.954,31.762 43.13,31.28C42.719,30.738 42.536,30.055 42.62,29.38C42.62,29.24 42.44,29.1 42.2,29.22C41.739,29.434 41.265,29.618 40.78,29.77C40.295,29.922 40.62,30.77 40.83,30.94C41.04,31.11 41.55,31.09 41.51,31.43C41.399,31.731 41.205,31.995 40.95,32.19C40.639,32.43 40.304,32.638 39.95,32.81C39.455,32.658 38.935,32.607 38.42,32.66C38.24,32.658 38.085,32.792 38.06,32.97C37.994,32.96 37.926,32.96 37.86,32.97C37.793,33.003 37.735,33.051 37.69,33.11C37.742,33.171 37.807,33.219 37.88,33.25C37.943,33.261 38.007,33.261 38.07,33.25C38.112,33.404 38.242,33.518 38.4,33.54C38.73,33.611 39.07,33.611 39.4,33.54C39.53,33.54 39.63,33.54 39.66,33.63C39.69,33.72 39.6,33.82 39.51,33.87C39.247,34 39.007,34.173 38.8,34.38C38.659,34.529 38.606,34.742 38.66,34.94C38.611,35.003 38.574,35.074 38.55,35.15C38.526,35.238 38.526,35.332 38.55,35.42C38.616,35.435 38.684,35.435 38.75,35.42C38.828,35.393 38.895,35.34 38.94,35.27C39.16,35.337 39.398,35.24 39.51,35.04C39.652,34.817 39.769,34.579 39.86,34.33C39.86,34.18 39.97,34.15 40.05,34.17C40.13,34.19 40.18,34.24 40.14,34.47C40.11,34.696 40.11,34.924 40.14,35.15C40.24,35.72 40.56,35.69 40.56,35.69C40.578,35.755 40.609,35.816 40.65,35.87C40.709,35.945 40.789,36.001 40.88,36.03C40.92,35.939 40.938,35.839 40.93,35.74C40.937,35.687 40.937,35.633 40.93,35.58C41.055,35.48 41.107,35.313 41.06,35.16C40.996,34.873 40.87,34.603 40.69,34.37C40.61,34.25 40.69,34.15 40.69,34.1C40.69,34.05 40.87,34.1 40.97,34.2C41.106,34.421 41.3,34.601 41.53,34.72C41.669,34.814 41.851,34.814 41.99,34.72C42.041,34.751 42.094,34.778 42.15,34.8C42.232,34.819 42.318,34.819 42.4,34.8C42.387,34.717 42.363,34.637 42.33,34.56C42.299,34.495 42.254,34.437 42.2,34.39C42.221,34.242 42.185,34.092 42.1,33.97C41.768,33.694 41.398,33.468 41,33.3Z" style="fill:white;"/>
    </g>
    <g transform="matrix(1,0,0,1,-12.9151,0.145358)">
        <path d="M47.33,34.72C47.248,34.738 47.162,34.738 47.08,34.72L46.92,34.64C46.781,34.734 46.599,34.734 46.46,34.64C46.23,34.521 46.036,34.341 45.9,34.12C45.8,33.98 45.69,33.96 45.62,34.02C45.55,34.08 45.52,34.17 45.62,34.29C45.801,34.526 45.928,34.799 45.99,35.09C46.037,35.243 45.985,35.41 45.86,35.51C45.927,35.656 45.927,35.824 45.86,35.97C45.769,35.942 45.688,35.886 45.63,35.81C45.588,35.757 45.557,35.696 45.54,35.63C45.523,35.564 45.23,35.63 45.12,35.09C45.09,34.864 45.09,34.636 45.12,34.41C45.12,34.18 45.12,34.13 45.03,34.11C44.94,34.09 44.88,34.11 44.83,34.27C44.739,34.519 44.622,34.757 44.48,34.98C44.368,35.18 44.13,35.277 43.91,35.21C43.865,35.279 43.798,35.332 43.72,35.36C43.654,35.375 43.586,35.375 43.52,35.36C43.495,35.272 43.495,35.178 43.52,35.09C43.545,35.014 43.582,34.943 43.63,34.88C43.576,34.682 43.629,34.469 43.77,34.32C43.978,34.113 44.217,33.941 44.48,33.81C44.56,33.76 44.66,33.68 44.63,33.57C44.6,33.46 44.5,33.45 44.37,33.48C44.04,33.551 43.7,33.551 43.37,33.48C43.212,33.458 43.082,33.344 43.04,33.19C42.977,33.201 42.913,33.201 42.85,33.19C42.777,33.159 42.712,33.111 42.66,33.05C42.705,32.991 42.763,32.943 42.83,32.91C42.896,32.9 42.964,32.9 43.03,32.91C43.096,32.92 43.03,32.65 43.39,32.6C43.901,32.553 44.416,32.618 44.9,32.79C45.144,32.153 45.243,31.47 45.19,30.79C45.09,30.18 44.29,30.35 44.01,29.79C43.73,29.23 43.73,28.01 43.25,27.92C42.45,27.77 43.1,28.39 40.25,29.08C39.39,29.29 38.72,29.17 38.25,29.66C38.06,29.85 37.74,30.76 37.25,31.34C36.876,31.875 36.396,32.327 35.84,32.67C36.142,32.795 36.415,32.983 36.64,33.22C36.721,33.344 36.756,33.493 36.74,33.64C36.796,33.685 36.841,33.744 36.87,33.81C36.903,33.887 36.927,33.967 36.94,34.05C36.858,34.068 36.772,34.068 36.69,34.05L36.59,34C36.451,34.094 36.269,34.094 36.13,34C35.9,33.88 35.706,33.701 35.57,33.48C35.47,33.34 35.36,33.32 35.29,33.38C35.22,33.44 35.19,33.53 35.29,33.65C35.471,33.886 35.598,34.159 35.66,34.45C35.707,34.603 35.655,34.77 35.53,34.87C35.537,34.923 35.537,34.977 35.53,35.03C35.537,35.129 35.52,35.229 35.48,35.32C35.389,35.29 35.309,35.235 35.25,35.16C35.209,35.106 35.178,35.045 35.16,34.98C35.142,34.915 34.85,34.98 34.74,34.44C34.711,34.214 34.711,33.986 34.74,33.76C34.74,33.53 34.74,33.48 34.65,33.46C34.56,33.44 34.5,33.46 34.46,33.62C34.369,33.869 34.252,34.107 34.11,34.33C33.998,34.53 33.76,34.627 33.54,34.56C33.495,34.63 33.428,34.683 33.35,34.71C33.284,34.724 33.216,34.724 33.15,34.71C33.125,34.618 33.125,34.522 33.15,34.43C33.176,34.355 33.213,34.284 33.26,34.22C33.206,34.022 33.259,33.809 33.4,33.66C33.609,33.454 33.848,33.282 34.11,33.15C34.2,33.1 34.29,33.02 34.26,32.91C34.23,32.8 34.13,32.79 34,32.82C33.67,32.89 33.33,32.89 33,32.82C32.842,32.798 32.712,32.684 32.67,32.53C32.607,32.541 32.543,32.541 32.48,32.53C32.406,32.499 32.341,32.451 32.29,32.39C32.335,32.331 32.393,32.283 32.46,32.25C32.526,32.24 32.594,32.24 32.66,32.25C32.715,32.076 32.868,31.949 33.05,31.93C33.604,31.864 34.166,31.929 34.69,32.12C35.206,31.786 35.677,31.386 36.09,30.93C36.357,30.555 36.544,30.13 36.64,29.68C36.73,29.17 36.59,29.12 36.43,29C36.058,28.754 35.722,28.457 35.43,28.12C35.07,27.629 34.867,27.039 34.85,26.43C34.449,26.052 34.081,25.64 33.75,25.2C33.782,25.539 33.737,25.881 33.62,26.2C33.542,26.329 33.416,26.422 33.27,26.46C33.247,26.527 33.209,26.589 33.16,26.64C33.104,26.701 33.04,26.755 32.97,26.8C32.929,26.726 32.906,26.644 32.9,26.56C32.895,26.5 32.895,26.44 32.9,26.38C32.755,26.293 32.676,26.127 32.7,25.96C32.721,25.701 32.81,25.452 32.96,25.24C33.05,25.1 33.02,24.99 32.96,24.94C32.9,24.89 32.78,24.94 32.7,25.02C32.554,25.278 32.352,25.5 32.11,25.67C31.978,25.76 31.802,25.76 31.67,25.67C31.631,25.709 31.588,25.742 31.54,25.77C31.451,25.817 31.351,25.841 31.25,25.84C31.238,25.744 31.255,25.646 31.3,25.56C31.333,25.502 31.377,25.451 31.43,25.41C31.483,25.369 31.27,25.14 31.76,24.82C31.958,24.704 32.169,24.613 32.39,24.55C32.62,24.5 32.64,24.42 32.63,24.35C32.62,24.28 32.56,24.22 32.41,24.23C32.147,24.258 31.883,24.258 31.62,24.23C31.392,24.203 31.212,24.019 31.19,23.79C31.109,23.774 31.035,23.732 30.98,23.67C30.931,23.622 30.894,23.564 30.87,23.5C30.942,23.441 31.028,23.403 31.12,23.39C31.196,23.377 31.274,23.377 31.35,23.39C31.511,23.263 31.728,23.229 31.92,23.3C32.193,23.409 32.446,23.561 32.67,23.75C32.75,23.81 32.87,23.87 32.95,23.75C33.03,23.63 33.02,23.58 32.95,23.47C32.756,23.211 32.616,22.915 32.54,22.6C32.5,22.45 32.551,22.29 32.67,22.19C32.659,22.127 32.659,22.063 32.67,22C32.669,21.92 32.686,21.842 32.72,21.77C32.794,21.786 32.863,21.821 32.92,21.87C32.968,21.92 33.009,21.978 33.04,22.04C33.237,22.007 33.435,22.104 33.53,22.28C33.75,22.657 33.832,23.099 33.76,23.53C33.955,23.909 34.219,24.249 34.54,24.53C34.769,24.725 35.025,24.887 35.3,25.01C35.547,24.645 35.836,24.309 36.16,24.01C36.59,23.59 36.89,23.41 37.16,23.11C37.385,22.904 37.577,22.664 37.73,22.4C37.291,22.281 36.829,22.281 36.39,22.4C36.31,22.28 36.17,22.01 36.3,21.84C36.822,21.662 37.384,21.638 37.92,21.77C38.03,21.59 38.27,21.15 37.99,20.91C37.4,20.594 36.69,20.594 36.1,20.91C35.856,20.757 35.758,20.446 35.87,20.18C35.52,19.8 35.75,19.68 35.87,19.63C36.224,19.512 36.598,19.467 36.97,19.5C36.968,19.359 36.995,19.22 37.05,19.09C37.22,18.66 38.33,18.8 38.75,18.8C39.009,18.792 39.267,18.758 39.52,18.7C39.85,18.63 39.87,18.96 39.78,19.09L39.56,19.38C39.915,19.487 40.206,19.743 40.36,20.08C40.46,20.36 40.36,20.67 40.46,20.92C40.551,21.142 40.672,21.351 40.82,21.54C40.984,21.85 41.083,22.19 41.11,22.54C41.11,22.88 40.82,22.88 40.69,22.78C40.56,22.68 40.42,22.46 40.2,22.49C39.98,22.52 39.95,22.7 39.9,22.85C40.08,23.165 40.221,23.501 40.32,23.85C40.385,24.207 40.385,24.573 40.32,24.93C40.32,25.27 39.94,25.18 39.85,25.04C39.76,24.9 39.68,24.67 39.45,24.64C39.22,24.61 39.01,24.86 38.98,25.12C38.929,25.38 38.983,25.65 39.13,25.87C39.81,26.87 42.91,24.98 44.26,26.05C44.338,25.698 44.338,25.332 44.26,24.98C44.1,24.26 42.86,23.92 42.26,23.1C42.139,22.931 42.05,22.741 42,22.54C41.941,21.525 42.203,20.517 42.75,19.66C42.549,19.16 42.549,18.6 42.75,18.1C42.881,17.771 43.056,17.462 43.27,17.18C43.48,16.89 43.99,16.93 43.99,17.1C43.99,17.1 43.39,17.79 43.62,18.03C43.85,18.27 44.92,17.49 44.12,19.17C43.83,19.77 43.46,19.96 43.12,19.91C42.684,20.645 42.495,21.5 42.58,22.35C42.671,22.651 42.857,22.914 43.11,23.1C43.74,23.62 44.69,23.96 44.89,24.9C44.96,25.521 44.888,26.15 44.68,26.74C44.851,27.28 44.981,27.831 45.07,28.39C45.14,28.59 45.29,28.91 45.53,28.89C45.77,28.87 45.86,28.64 45.95,28.52C46.04,28.4 46.36,28.32 46.41,28.66C46.492,28.988 46.549,29.323 46.58,29.66C46.537,30.864 46.255,32.047 45.75,33.14C46.108,33.248 46.446,33.413 46.75,33.63C47.15,33.9 47.04,34.15 47.02,34.26C47.075,34.307 47.119,34.365 47.15,34.43C47.226,34.516 47.287,34.614 47.33,34.72ZM37.62,19.61C37.62,19.61 38.11,20.26 38.39,20.06C38.67,19.86 38.49,19.64 38.32,19.46C38.15,19.28 37.84,19.39 37.62,19.6L37.62,19.61Z" style="fill:white;"/>
    </g>
    <g transform="matrix(1,0,0,1,-12.9151,0.145358)">
        <path d="M34.52,21.59C35.134,21.807 35.819,21.694 36.33,21.29C35.09,21.47 34.63,21.12 34.92,20.51C34,20.62 34.11,21.42 34.52,21.59Z" style="fill:white;"/>
    </g>
    <g transform="matrix(1,0,0,1,-12.9151,0.145358)">
        <path d="M41,52.31C41.434,52.074 41.851,51.81 42.25,51.52C42.65,51.198 42.954,50.772 43.13,50.29C42.717,49.745 42.534,49.059 42.62,48.38C42.62,48.24 42.44,48.1 42.2,48.22C41.739,48.434 41.265,48.617 40.78,48.77C40.295,48.923 40.62,49.77 40.83,49.94C41.04,50.11 41.55,50.09 41.51,50.43C41.399,50.731 41.205,50.995 40.95,51.19C40.639,51.43 40.303,51.638 39.95,51.81C39.455,51.659 38.935,51.608 38.42,51.66C38.24,51.658 38.085,51.792 38.06,51.97C37.994,51.961 37.926,51.961 37.86,51.97C37.793,52.003 37.735,52.051 37.69,52.11C37.741,52.171 37.806,52.219 37.88,52.25C37.943,52.261 38.007,52.261 38.07,52.25C38.116,52.4 38.245,52.509 38.4,52.53C38.73,52.601 39.07,52.601 39.4,52.53C39.53,52.53 39.63,52.53 39.66,52.62C39.69,52.71 39.6,52.81 39.51,52.86C39.247,52.991 39.008,53.163 38.8,53.37C38.659,53.519 38.606,53.732 38.66,53.93C38.612,53.993 38.575,54.064 38.55,54.14C38.524,54.232 38.524,54.328 38.55,54.42C38.616,54.435 38.684,54.435 38.75,54.42C38.828,54.393 38.895,54.34 38.94,54.27C39.16,54.337 39.398,54.24 39.51,54.04C39.652,53.816 39.769,53.578 39.86,53.33C39.86,53.18 39.97,53.15 40.05,53.17C40.13,53.19 40.18,53.23 40.14,53.47C40.11,53.696 40.11,53.924 40.14,54.15C40.24,54.73 40.56,54.69 40.56,54.69C40.578,54.755 40.609,54.816 40.65,54.87C40.709,54.945 40.789,55.001 40.88,55.03C40.92,54.939 40.938,54.839 40.93,54.74C40.937,54.687 40.937,54.633 40.93,54.58C41.055,54.48 41.107,54.313 41.06,54.16C40.996,53.873 40.87,53.603 40.69,53.37C40.61,53.25 40.69,53.16 40.69,53.1C40.69,53.04 40.87,53.1 40.97,53.2C41.106,53.421 41.299,53.601 41.53,53.72C41.669,53.814 41.851,53.814 41.99,53.72C42.041,53.751 42.094,53.778 42.15,53.8C42.232,53.819 42.318,53.819 42.4,53.8C42.387,53.717 42.363,53.637 42.33,53.56C42.299,53.495 42.255,53.437 42.2,53.39C42.221,53.242 42.185,53.092 42.1,52.97C41.768,52.697 41.397,52.475 41,52.31Z" style="fill:white;"/>
    </g>
    <g transform="matrix(1,0,0,1,-12.9151,0.145358)">
        <path d="M47.26,53.49C47.229,53.425 47.185,53.367 47.13,53.32C47.13,53.21 47.26,52.96 46.86,52.69C46.556,52.473 46.218,52.308 45.86,52.2C46.364,51.106 46.647,49.923 46.69,48.72C46.659,48.383 46.602,48.048 46.52,47.72C46.52,47.39 46.17,47.42 46.06,47.58C45.95,47.74 45.86,47.93 45.64,47.96C45.42,47.99 45.25,47.66 45.18,47.46C45.07,47.06 45.02,46.61 44.9,46.18C45.312,46.077 45.69,45.87 46,45.58C46.478,45.12 46.566,44.38 46.21,43.82C45.97,43.36 45.67,43.18 44.21,42.64C43.72,42.484 43.274,42.213 42.91,41.85C42.792,41.713 42.691,41.562 42.61,41.4C42.476,41.088 42.567,40.723 42.83,40.51L43.16,40.26C43.852,40.506 44.608,40.506 45.3,40.26C45.773,40.083 46.229,39.862 46.66,39.6C47.05,39.37 46.98,38.92 46.78,38.92C46.78,38.92 45.36,39.52 45.11,39.28C44.86,39.04 45.39,38.28 43.88,38.96C43.34,39.2 42.93,39.53 42.96,39.85C42.375,40.053 41.975,40.601 41.96,41.22C41.995,41.46 42.084,41.689 42.22,41.89C42.781,42.541 43.528,43.006 44.36,43.22C45.22,43.5 45.55,43.66 45.7,44.22C45.9,44.97 45.49,45.43 44.7,45.55C44.614,45.386 44.506,45.235 44.38,45.1C43.22,43.9 39.86,45.91 39.18,44.92C39.033,44.7 38.979,44.43 39.03,44.17C39.03,43.91 39.26,43.66 39.5,43.69C39.74,43.72 39.83,43.99 39.9,44.09C39.97,44.19 40.33,44.31 40.37,43.98C40.435,43.623 40.435,43.257 40.37,42.9C40.271,42.551 40.13,42.215 39.95,41.9C40,41.76 40.11,41.56 40.25,41.54C40.39,41.52 40.67,41.78 40.74,41.83C40.81,41.88 41.2,41.92 41.16,41.59C41.134,41.24 41.035,40.9 40.87,40.59C40.722,40.401 40.601,40.192 40.51,39.97C40.44,39.72 40.51,39.4 40.41,39.13C40.256,38.793 39.965,38.537 39.61,38.43L39.83,38.14C39.92,38.01 39.9,37.67 39.57,37.75C39.317,37.809 39.059,37.842 38.8,37.85C38.39,37.85 37.27,37.72 37.1,38.14C37.045,38.27 37.018,38.409 37.02,38.55C36.648,38.517 36.274,38.562 35.92,38.68C35.8,38.73 35.57,38.86 35.92,39.23C35.808,39.496 35.906,39.807 36.15,39.96C36.74,39.644 37.45,39.644 38.04,39.96C38.32,40.2 38.04,40.64 37.97,40.82C37.434,40.688 36.872,40.712 36.35,40.89C36.22,41.06 36.35,41.33 36.44,41.45C36.879,41.331 37.341,41.331 37.78,41.45C37.627,41.714 37.435,41.954 37.21,42.16C36.89,42.45 36.59,42.63 36.21,43.05C35.844,43.383 35.527,43.767 35.27,44.19C34.815,44.103 34.376,43.944 33.97,43.72C33.613,43.509 33.298,43.235 33.04,42.91C33.039,42.476 32.887,42.055 32.61,41.72C32.485,41.561 32.27,41.501 32.08,41.57C32.038,41.513 31.987,41.462 31.93,41.42C31.867,41.38 31.795,41.356 31.72,41.35C31.702,41.426 31.702,41.504 31.72,41.58C31.736,41.641 31.763,41.699 31.8,41.75C31.697,41.869 31.674,42.038 31.74,42.18C31.867,42.478 32.055,42.747 32.29,42.97C32.39,43.06 32.42,43.15 32.35,43.24C32.28,43.33 32.16,43.24 32.07,43.24C31.819,43.091 31.545,42.982 31.26,42.92C31.056,42.882 30.847,42.955 30.71,43.11C30.634,43.097 30.556,43.097 30.48,43.11C30.391,43.138 30.311,43.19 30.25,43.26C30.285,43.32 30.333,43.371 30.39,43.41C30.455,43.462 30.537,43.49 30.62,43.49C30.681,43.712 30.89,43.863 31.12,43.85C31.386,43.848 31.651,43.818 31.91,43.76C32.06,43.76 32.12,43.76 32.15,43.84C32.18,43.92 32.15,43.99 31.95,44.08C31.745,44.179 31.554,44.303 31.38,44.45C30.95,44.85 31.15,45.09 31.15,45.09C31.102,45.138 31.064,45.196 31.04,45.26C31.012,45.351 31.012,45.449 31.04,45.54C31.198,45.518 31.339,45.431 31.43,45.3C31.584,45.354 31.756,45.306 31.86,45.18C32.069,44.971 32.23,44.718 32.33,44.44C32.39,44.31 32.48,44.28 32.57,44.32C32.66,44.36 32.7,44.45 32.63,44.61C32.52,44.844 32.475,45.103 32.5,45.36C32.503,45.527 32.606,45.676 32.76,45.74C32.755,45.8 32.755,45.86 32.76,45.92C32.78,46 32.818,46.076 32.87,46.14C32.932,46.084 32.985,46.02 33.03,45.95C33.071,45.89 33.098,45.822 33.11,45.75C33.247,45.686 33.355,45.571 33.41,45.43C33.485,45.101 33.485,44.759 33.41,44.43C33.872,44.887 34.394,45.28 34.96,45.6L35.02,45.6C35.073,46.131 35.266,46.639 35.58,47.07C35.872,47.407 36.208,47.703 36.58,47.95C36.74,48.07 36.88,48.12 36.79,48.63C36.694,49.08 36.507,49.505 36.24,49.88C35.828,50.336 35.357,50.737 34.84,51.07C34.316,50.88 33.754,50.815 33.2,50.88C33.018,50.899 32.865,51.026 32.81,51.2C32.744,51.191 32.676,51.191 32.61,51.2C32.543,51.233 32.485,51.281 32.44,51.34C32.492,51.401 32.557,51.449 32.63,51.48C32.693,51.491 32.757,51.491 32.82,51.48C32.862,51.634 32.992,51.748 33.15,51.77C33.48,51.841 33.82,51.841 34.15,51.77C34.28,51.77 34.38,51.77 34.41,51.86C34.44,51.95 34.35,52.05 34.26,52.1C33.998,52.232 33.759,52.404 33.55,52.61C33.409,52.759 33.356,52.972 33.41,53.17C33.363,53.234 33.325,53.305 33.3,53.38C33.275,53.472 33.275,53.568 33.3,53.66C33.366,53.674 33.434,53.674 33.5,53.66C33.578,53.633 33.645,53.58 33.69,53.51C33.907,53.578 34.145,53.487 34.26,53.29C34.402,53.066 34.519,52.828 34.61,52.58C34.61,52.43 34.72,52.4 34.8,52.42C34.88,52.44 34.93,52.49 34.89,52.72C34.861,52.946 34.861,53.174 34.89,53.4C35,53.98 35.31,53.94 35.31,53.94C35.328,54.005 35.359,54.066 35.4,54.12C35.459,54.195 35.539,54.251 35.63,54.28C35.695,54.134 35.695,53.966 35.63,53.82C35.755,53.72 35.807,53.553 35.76,53.4C35.698,53.109 35.571,52.836 35.39,52.6C35.31,52.48 35.39,52.38 35.39,52.33C35.39,52.28 35.57,52.33 35.67,52.43C35.806,52.651 36,52.83 36.23,52.95C36.369,53.044 36.551,53.044 36.69,52.95C36.741,52.981 36.794,53.008 36.85,53.03C36.932,53.048 37.018,53.048 37.1,53.03C37.087,52.947 37.063,52.867 37.03,52.79C37.001,52.724 36.957,52.665 36.9,52.62C36.916,52.473 36.881,52.324 36.8,52.2C36.575,51.963 36.302,51.776 36,51.65C36.556,51.308 37.036,50.855 37.41,50.32C37.87,49.73 38.19,48.83 38.41,48.64C38.89,48.15 39.56,48.27 40.41,48.06C43.22,47.37 42.57,46.75 43.41,46.9C43.89,46.99 43.82,48.06 44.17,48.77C44.52,49.48 45.25,49.17 45.35,49.77C45.403,50.45 45.304,51.133 45.06,51.77C44.576,51.598 44.061,51.533 43.55,51.58C43.21,51.58 43.19,51.89 43.19,51.89C43.12,51.88 43.05,51.88 42.98,51.89C42.913,51.923 42.855,51.971 42.81,52.03C42.862,52.091 42.927,52.139 43,52.17C43.063,52.181 43.127,52.181 43.19,52.17C43.232,52.324 43.362,52.438 43.52,52.46C43.849,52.531 44.191,52.531 44.52,52.46C44.65,52.46 44.75,52.46 44.78,52.55C44.81,52.64 44.72,52.74 44.63,52.79C44.367,52.921 44.128,53.093 43.92,53.3C43.779,53.449 43.726,53.662 43.78,53.86C43.732,53.923 43.694,53.994 43.67,54.07C43.645,54.158 43.645,54.252 43.67,54.34C43.736,54.355 43.804,54.355 43.87,54.34C43.948,54.312 44.015,54.259 44.06,54.19C44.277,54.258 44.515,54.167 44.63,53.97C44.772,53.747 44.889,53.509 44.98,53.26C44.98,53.11 45.09,53.08 45.18,53.1C45.27,53.12 45.31,53.17 45.27,53.4C45.24,53.626 45.24,53.854 45.27,54.08C45.37,54.65 45.69,54.62 45.69,54.62C45.707,54.686 45.738,54.747 45.78,54.8C45.838,54.876 45.919,54.932 46.01,54.96C46.05,54.869 46.067,54.769 46.06,54.67C46.067,54.617 46.067,54.563 46.06,54.51C46.185,54.41 46.237,54.243 46.19,54.09C46.128,53.799 46.001,53.526 45.82,53.29C45.74,53.17 45.82,53.07 45.82,53.02C45.82,52.97 46,53.02 46.1,53.12C46.236,53.341 46.43,53.521 46.66,53.64C46.799,53.734 46.981,53.734 47.12,53.64C47.171,53.671 47.224,53.698 47.28,53.72C47.362,53.738 47.448,53.738 47.53,53.72C47.453,53.629 47.362,53.551 47.26,53.49ZM38.39,39.07C38.11,39.27 37.62,38.62 37.62,38.62C37.85,38.41 38.09,38.23 38.32,38.48C38.55,38.73 38.62,38.91 38.39,39.07Z" style="fill:white;"/>
    </g>
    <g transform="matrix(1,0,0,1,-12.9151,0.145358)">
        <path d="M34.52,40.6C35.135,40.811 35.816,40.698 36.33,40.3C35.09,40.48 34.63,40.13 34.92,39.52C34,39.63 34.08,40.42 34.52,40.6Z" style="fill:white;"/>
    </g>
    <g transform="matrix(1,0,0,1,-12.9151,0.145358)">
        <path d="M61.16,25.11C61.16,24.74 60.87,24.55 59.57,24.81C58.01,25.03 57.21,24.41 57.67,23.71C57.649,23.708 57.627,23.708 57.606,23.708C57.134,23.708 56.746,24.096 56.746,24.568C56.746,25.039 57.134,25.428 57.606,25.428C57.644,25.428 57.682,25.425 57.72,25.42C59,25.46 59.76,24.91 61.16,25.11Z" style="fill:white;fill-rule:nonzero;"/>
    </g>
    <g transform="matrix(1,0,0,1,-12.9151,0.145358)">
        <path d="M62.86,40.07L62,39.79C61.162,40.733 60.094,41.443 58.9,41.85C57.22,42.43 56.46,42.92 56.08,43.56C55.807,43.997 55.633,44.489 55.57,45C55.536,45.461 55.56,45.925 55.64,46.38C55.641,46.566 55.794,46.718 55.98,46.718C56.136,46.718 56.273,46.611 56.31,46.46C56.36,46.22 56.52,45.95 56.76,45.92C57,45.89 57.23,46.16 57.23,46.16C57.024,46.868 56.685,47.53 56.23,48.11C55.733,48.715 55.165,49.259 54.54,49.73C54.073,49.503 53.579,49.335 53.07,49.23C52.81,49.23 52.4,49.23 52.27,49.38C52.081,49.381 51.899,49.452 51.76,49.58C51.872,49.703 52.013,49.795 52.17,49.85C52.17,50.17 52.52,50.32 52.87,50.35C53.146,50.373 53.424,50.373 53.7,50.35C53.826,50.325 53.95,50.405 53.98,50.53C53.982,50.543 53.984,50.557 53.984,50.57C53.984,50.696 53.88,50.8 53.754,50.8C53.752,50.8 53.751,50.8 53.75,50.8C52.83,50.93 52.5,51.39 52.53,51.89C52.381,52.049 52.302,52.262 52.31,52.48C52.518,52.479 52.721,52.412 52.89,52.29C53.49,52.37 53.89,51.74 54.09,51.41C54.18,51.24 54.26,51.16 54.39,51.22C54.52,51.28 54.53,51.38 54.46,51.56C54.357,51.815 54.296,52.085 54.28,52.36C54.239,52.674 54.399,52.982 54.68,53.13C54.961,53.278 54.83,53.5 55.01,53.58C55.084,53.428 55.119,53.259 55.11,53.09C55.339,52.897 55.443,52.593 55.38,52.3C55.319,52.045 55.225,51.8 55.1,51.57C55.03,51.42 55.1,51.3 55.16,51.26C55.22,51.22 55.39,51.26 55.48,51.48C55.569,51.682 55.687,51.871 55.83,52.04C55.99,52.2 56.36,52.42 56.62,52.26C56.763,52.351 56.93,52.397 57.1,52.39C57.093,52.208 57.022,52.035 56.9,51.9C57.001,51.605 56.9,51.277 56.65,51.09C56.344,50.816 56.009,50.578 55.65,50.38C56.467,50.032 57.202,49.517 57.81,48.87C58.088,48.513 58.332,48.132 58.54,47.73C58.85,47.8 58.93,48.14 58.95,48.36C58.97,48.58 59.34,48.63 59.43,48.3C59.532,47.946 59.579,47.578 59.57,47.21C59.572,46.729 59.466,46.254 59.26,45.82C59.33,45.67 59.44,45.54 59.58,45.55C59.72,45.56 59.96,45.83 60.02,45.96C60.071,46.11 60.212,46.212 60.371,46.212C60.574,46.212 60.741,46.045 60.741,45.842C60.741,45.835 60.74,45.827 60.74,45.82C60.741,45.463 60.697,45.107 60.61,44.76C60.51,44.451 60.339,44.17 60.11,43.94C60.23,43.16 60.74,43.14 61.76,42.32C62.241,41.956 62.678,41.537 63.06,41.07C63.222,40.883 63.317,40.647 63.33,40.4C63.35,40.23 63.09,40.15 62.86,40.07Z" style="fill:white;fill-rule:nonzero;"/>
    </g>
    <g transform="matrix(1,0,0,1,-12.9151,0.145358)">
        <path d="M69,38.48C68.766,39.389 68.07,40.112 67.17,40.38C67.17,42.11 66.17,42.95 66.17,43.55C66.17,43.99 66.56,44.13 67.01,44.73C67.439,45.403 67.607,46.212 67.48,47C67.418,47.437 67.272,47.858 67.05,48.24C66.83,48.64 66.36,48.48 66.38,48.17C66.46,47.32 65.85,47.62 65.85,47.62C65.814,48.36 65.609,49.082 65.25,49.73C64.854,50.351 64.377,50.916 63.83,51.41C64.206,51.466 64.577,51.55 64.94,51.66C65.25,51.778 65.455,52.078 65.45,52.41C65.612,52.509 65.736,52.661 65.8,52.84C65.635,52.878 65.465,52.878 65.3,52.84C65.135,52.802 65,53.11 64.45,52.79C64.278,52.676 64.123,52.538 63.99,52.38C63.85,52.22 63.72,52.21 63.62,52.3C63.52,52.39 63.53,52.5 63.62,52.63C63.794,52.823 63.951,53.03 64.09,53.25C64.2,53.46 64.26,53.93 64.09,54.1C64.156,54.272 64.18,54.457 64.16,54.64C63.96,54.64 63.69,54.28 63.69,54.28C63.399,54.207 63.173,53.974 63.11,53.68C63.069,53.395 63.069,53.105 63.11,52.82C63.11,52.6 63.06,52.49 62.92,52.48C62.78,52.47 62.69,52.58 62.67,52.74C62.67,53.18 62.32,53.88 61.67,53.98C61.56,54.142 61.398,54.262 61.21,54.32C61.127,54.118 61.127,53.892 61.21,53.69C61.04,53.23 61.21,52.76 62.05,52.29C62.131,52.252 62.183,52.171 62.183,52.081C62.183,52.046 62.175,52.012 62.16,51.98C62.11,51.89 62,51.86 61.86,51.91C61.604,51.99 61.343,52.057 61.08,52.11C60.73,52.18 60.4,52.11 60.26,51.84C60.094,51.833 59.933,51.785 59.79,51.7C59.883,51.538 60.033,51.417 60.21,51.36C60.27,51.13 60.63,50.96 60.89,50.93C61.445,50.895 62.002,50.925 62.55,51.02C62.903,50.656 63.215,50.253 63.48,49.82C63.836,49.216 64.01,48.521 63.98,47.82C63.904,47.717 63.787,47.652 63.66,47.64C63.44,47.64 63.28,47.85 63.18,47.95C63.133,48.002 63.065,48.032 62.994,48.032C62.857,48.032 62.744,47.92 62.744,47.782C62.744,47.765 62.746,47.747 62.75,47.73C62.756,47.413 62.813,47.099 62.92,46.8C63.029,46.506 63.181,46.23 63.37,45.98C63.26,45.83 63.05,45.69 62.92,45.73C62.747,45.789 62.615,45.932 62.57,46.11C62.526,46.227 62.414,46.305 62.289,46.305C62.134,46.305 62.003,46.185 61.99,46.03C61.935,45.689 61.938,45.34 62,45C62.058,44.027 62.406,43.093 63,42.32C63.41,41.76 64.37,40.63 64.39,39.94C64.41,39.25 62.2,39.21 60.56,38.12C59.788,37.555 59.236,36.738 59,35.81C58.563,36.315 58.042,36.741 57.46,37.07C56.824,37.391 56.153,37.636 55.46,37.8C55.687,38.103 55.862,38.441 55.98,38.8C56.134,39.096 56.081,39.46 55.85,39.7C55.873,39.898 55.831,40.098 55.73,40.27C55.6,40.17 55.497,40.039 55.43,39.89C55.13,39.89 54.97,39.72 54.89,39.35C54.845,39.119 54.821,38.885 54.82,38.65C54.82,38.42 54.75,38.31 54.63,38.31C54.51,38.31 54.45,38.39 54.44,38.55C54.425,38.809 54.389,39.067 54.33,39.32C54.26,39.54 54.06,39.89 53.82,39.89C53.747,40.067 53.63,40.221 53.48,40.34C53.405,40.153 53.381,39.949 53.41,39.75C53.26,39.63 53.17,39.36 53.41,38.89C53.51,38.654 53.66,38.442 53.85,38.27C54,38.11 54.06,38 53.96,37.9C53.86,37.8 53.8,37.84 53.66,37.9C53.35,38.11 52.58,38.46 52.1,38.1C51.922,38.129 51.74,38.09 51.59,37.99C51.673,37.783 51.853,37.63 52.07,37.58C52.28,37.27 52.73,37.08 53.66,37.21C53.79,37.21 53.93,37.21 53.97,37.09C53.977,37.067 53.981,37.044 53.981,37.02C53.981,36.914 53.911,36.821 53.81,36.79C53.569,36.676 53.338,36.543 53.12,36.39C52.83,36.19 52.63,35.92 52.75,35.61C52.639,35.488 52.56,35.34 52.52,35.18C52.702,35.135 52.895,35.16 53.06,35.25C53.348,35.162 53.661,35.243 53.87,35.46C54.21,35.796 54.521,36.161 54.8,36.55C55.64,36.393 56.406,35.964 56.98,35.33C57.515,34.558 57.776,33.628 57.72,32.69C57.739,32.545 57.667,32.402 57.54,32.33C57.33,32.24 57.11,32.4 56.98,32.46C56.944,32.479 56.905,32.488 56.865,32.488C56.727,32.488 56.615,32.375 56.615,32.238C56.615,32.193 56.627,32.149 56.65,32.11C56.753,31.808 56.92,31.531 57.14,31.3C57.427,30.982 57.765,30.715 58.14,30.51C57.708,30.176 57.297,29.815 56.91,29.43C56.408,28.86 55.996,28.215 55.69,27.52C55.62,27.74 55.56,28.04 55.48,28.24C55.31,28.66 55.1,28.74 54.85,28.76C54.739,28.926 54.578,29.052 54.39,29.12C54.347,28.949 54.347,28.771 54.39,28.6C54.15,28.41 54.2,28.12 54.32,27.82C54.406,27.62 54.532,27.44 54.69,27.29C54.86,27.12 54.88,26.99 54.78,26.91C54.68,26.83 54.57,26.85 54.47,26.98C54.299,27.177 54.104,27.352 53.89,27.5C53.631,27.637 53.319,27.637 53.06,27.5C52.897,27.575 52.719,27.609 52.54,27.6C52.54,27.4 52.84,27.14 52.84,27.14C52.84,26.88 52.91,26.76 53.38,26.52C53.63,26.402 53.903,26.341 54.18,26.34C54.43,26.34 54.54,26.24 54.54,26.13C54.54,26.02 54.43,25.92 54.25,25.92C53.685,25.965 53.152,25.636 52.94,25.11C52.783,25.017 52.668,24.866 52.62,24.69C52.822,24.607 53.048,24.607 53.25,24.69C53.7,24.48 54.18,24.69 54.71,25.43C54.748,25.493 54.817,25.531 54.89,25.531C55.006,25.531 55.101,25.436 55.101,25.32C55.101,25.281 55.09,25.243 55.07,25.21C55.01,25.06 54.92,24.8 54.82,24.44C54.72,24.08 54.75,23.77 55.03,23.6C55.026,23.433 55.064,23.268 55.14,23.12C55.309,23.202 55.441,23.345 55.51,23.52C55.75,23.52 55.96,23.91 56.02,24.19C56.117,24.662 56.117,25.148 56.02,25.62C56.206,26.174 56.513,26.68 56.92,27.1C57.652,27.782 58.468,28.367 59.35,28.84L59.63,28.55C59.702,28.459 59.702,28.331 59.63,28.24C59.52,28.04 59.24,28.04 59.1,28.01C58.976,27.994 58.883,27.887 58.883,27.762C58.883,27.66 58.945,27.568 59.04,27.53C59.343,27.331 59.683,27.195 60.04,27.13C60.506,27.016 60.994,27.016 61.46,27.13C61.926,27.244 61.8,26.73 61.64,26.6C61.076,26.319 60.428,26.255 59.82,26.42C59.35,25.78 59.76,25.61 60.43,25.59C61.04,25.574 61.648,25.676 62.22,25.89C62.376,25.698 62.461,25.458 62.461,25.21C62.461,24.828 62.259,24.474 61.93,24.28C61.213,23.907 60.357,23.907 59.64,24.28C59.337,24.249 59.074,24.058 58.95,23.78C58.858,23.544 58.841,23.286 58.9,23.04C58.6,22.83 58.61,22.17 60.55,22.3C60.435,21.979 60.417,21.631 60.5,21.3C60.7,20.72 62.81,21.03 63.3,20.92L63.78,20.77C63.813,20.755 63.849,20.747 63.885,20.747C64.022,20.747 64.135,20.86 64.135,20.997C64.135,21.048 64.119,21.098 64.09,21.14C63.983,21.344 63.908,21.563 63.87,21.79C64.449,21.974 64.964,22.321 65.35,22.79C65.654,23.244 65.852,23.76 65.93,24.3C65.939,24.326 65.943,24.353 65.943,24.381C65.943,24.518 65.831,24.631 65.693,24.631C65.633,24.631 65.575,24.609 65.53,24.57C65.42,24.48 65.23,24.28 65.01,24.32C64.79,24.36 64.73,24.57 64.69,24.71C65.292,25.099 65.698,25.73 65.8,26.44C65.856,26.805 65.856,27.175 65.8,27.54C65.8,27.54 65.8,27.541 65.8,27.541C65.8,27.678 65.687,27.791 65.55,27.791C65.458,27.791 65.374,27.741 65.33,27.66C65.25,27.54 65.14,27.29 64.92,27.25C64.7,27.21 64.58,27.39 64.49,27.58C64.719,28.018 64.839,28.505 64.84,29C64.896,29.365 64.896,29.735 64.84,30.1C64.831,30.23 64.721,30.332 64.591,30.332C64.498,30.332 64.413,30.281 64.37,30.2C64.3,30.08 64.2,29.82 63.98,29.78C63.76,29.74 63.59,29.99 63.5,30.18C63.867,30.596 64.103,31.111 64.18,31.66C64.236,32.025 64.236,32.395 64.18,32.76C64.18,33.1 63.79,33.08 63.71,32.88C63.63,32.68 63.55,32.49 63.32,32.45C63.168,32.46 63.027,32.532 62.93,32.65C62.881,33.089 62.915,33.534 63.03,33.96C63.224,34.786 63.734,35.505 64.45,35.96C65.667,36.767 66.595,37.94 67.1,39.31C67.757,39.129 68.216,38.526 68.216,37.845C68.216,37.427 68.044,37.027 67.74,36.74C66.74,35.41 66.01,34.99 65.6,33.43C65.345,32.425 65.604,31.357 66.29,30.58C66.184,30.401 66.125,30.198 66.12,29.99C66.083,29.428 66.222,28.868 66.52,28.39C66.957,27.632 67.612,27.022 68.4,26.64C68.587,26.808 68.664,27.067 68.6,27.31C68.32,27.85 67.26,28.61 67.24,28.93C67.22,29.25 67.66,29.37 67.81,29.32C67.96,29.27 68.43,28.44 68.55,28.32C68.597,28.269 68.664,28.24 68.733,28.24C68.87,28.24 68.983,28.353 68.983,28.49C68.983,28.503 68.982,28.517 68.98,28.53C68.957,28.896 68.879,29.257 68.75,29.6C68.445,30.317 67.774,30.815 67,30.9C66.901,30.915 66.799,30.915 66.7,30.9C66.256,31.526 66.1,32.312 66.27,33.06C66.45,34.06 67.13,34.63 68.01,35.77C68.89,36.91 69.25,37.36 69,38.48ZM61.22,22.43C61.22,22.43 61.78,23.34 62.22,23.06C62.66,22.78 62.37,22.51 62.16,22.27C61.95,22.03 61.54,22.16 61.23,22.43L61.22,22.43Z" style="fill:white;fill-rule:nonzero;"/>
    </g>
    <g transform="matrix(1,0,0,1,-12.9151,0.145358)">
        <path d="M53.39,16C53.09,15.53 52.68,15.08 52.39,14.59C52.1,14.1 52.08,13.37 52.73,13.24C52.975,13.211 53.221,13.3 53.39,13.48C53.574,13.278 53.852,13.186 54.12,13.24C54.77,13.37 54.83,14.05 54.46,14.59C54.09,15.13 53.72,15.53 53.46,16L53.39,16Z" style="fill:white;fill-rule:nonzero;"/>
    </g>
    <g transform="matrix(1,0,0,1,-12.9151,0.145358)">
        <path d="M53.39,60.79C53.09,60.32 52.68,59.87 52.39,59.38C52.1,58.89 52,58.16 52.69,58C52.935,57.971 53.181,58.06 53.35,58.24C53.534,58.038 53.812,57.946 54.08,58C54.73,58.13 54.79,58.81 54.42,59.35C54.05,59.89 53.68,60.29 53.42,60.76L53.39,60.79Z" style="fill:white;fill-rule:nonzero;"/>
    </g>
    <g transform="matrix(1,0,0,1,-12.9151,0.145358)">
        <path d="M58.16,58.59C57.86,58.12 57.45,57.67 57.16,57.18C56.87,56.69 56.85,55.96 57.5,55.83C57.745,55.801 57.991,55.89 58.16,56.07C58.342,55.871 58.615,55.78 58.88,55.83C59.53,55.96 59.59,56.64 59.22,57.18C58.85,57.72 58.48,58.12 58.22,58.59L58.16,58.59Z" style="fill:white;fill-rule:nonzero;"/>
    </g>
    <g transform="matrix(1,0,0,1,-12.9151,0.145358)">
        <path d="M53.39,33.44C53.09,32.97 52.68,32.52 52.39,32.03C52.1,31.54 52.08,30.81 52.73,30.68C52.975,30.651 53.221,30.74 53.39,30.92C53.574,30.718 53.852,30.626 54.12,30.68C54.77,30.81 54.83,31.49 54.46,32.03C54.09,32.57 53.72,32.97 53.46,33.44L53.39,33.44Z" style="fill:white;fill-rule:nonzero;"/>
    </g>
    <g transform="matrix(1,0,0,1,-12.9151,0.145358)">
        <path d="M58.16,18.54C57.86,18.07 57.45,17.62 57.16,17.13C56.87,16.64 56.85,15.91 57.5,15.78C57.745,15.751 57.991,15.84 58.16,16.02C58.344,15.818 58.622,15.726 58.89,15.78C59.54,15.91 59.6,16.59 59.23,17.13C58.86,17.67 58.49,18.07 58.23,18.54L58.16,18.54Z" style="fill:white;fill-rule:nonzero;"/>
    </g>
    <g transform="matrix(1,0,0,1,-12.9151,0.145358)">
        <path d="M58.5,41.19C58.2,40.72 57.79,40.27 57.5,39.78C57.21,39.29 57.19,38.56 57.84,38.43C58.085,38.401 58.331,38.49 58.5,38.67C58.684,38.468 58.962,38.376 59.23,38.43C59.88,38.56 59.94,39.24 59.57,39.78C59.2,40.32 58.83,40.72 58.57,41.19L58.5,41.19Z" style="fill:white;fill-rule:nonzero;"/>
    </g>
    <g transform="matrix(1,0,0,1,-12.9151,0.145358)">
        <path d="M49.4,12.91C49.532,12.921 49.663,12.944 49.79,12.98L49.79,60.81C49.665,60.858 49.534,60.888 49.4,60.9C49.267,60.883 49.137,60.853 49.01,60.81L49.01,13C49.137,12.959 49.268,12.929 49.4,12.91Z" style="fill:white;fill-rule:nonzero;"/>
    </g>
    <g transform="matrix(1,0,0,1,-12.9151,0.145358)">
        <path d="M24,48.68C23.86,48.25 23.75,47.83 23.61,47.4L23.17,46.08L23.57,45.95L23.86,46.66L26.86,45.66L26.59,44.88L27.01,44.75C27.33,45.55 27.64,46.36 27.9,47.18C28.16,48 27.98,48.83 27.36,49.02C26.959,49.119 26.536,48.959 26.3,48.62C26.38,49.146 26.084,49.662 25.59,49.86C24.79,50.16 24.21,49.37 24,48.68ZM25.77,47.77L25.63,47.32L24.47,47.69C24.24,47.76 24.24,47.86 24.35,48.18C24.415,48.506 24.704,48.744 25.037,48.744C25.12,48.744 25.202,48.729 25.28,48.7C25.582,48.604 25.789,48.321 25.789,48.004C25.789,47.925 25.776,47.845 25.75,47.77L25.77,47.77ZM27.43,47.27L27.27,46.8L26.09,47.17L26.21,47.56C26.299,47.784 26.517,47.932 26.758,47.932C26.842,47.932 26.924,47.914 27,47.88C27.28,47.8 27.52,47.61 27.41,47.27L27.43,47.27Z" style="fill:white;fill-rule:nonzero;"/>
    </g>
    <g transform="matrix(1,0,0,1,-12.9151,0.145358)">
        <path d="M26.93,56.19L26.69,55.46C26.47,54.83 27.49,53.53 27.79,53.02L27.7,52.84L26.52,53.46L26.7,53.94L26.32,54.14L25.82,53.14L25.22,52L25.6,51.8L25.98,52.38L28.81,50.89L28.4,50.17L28.79,49.96C29.02,50.34 29.3,50.82 29.48,51.1C29.54,51.2 29.87,51.75 29.98,51.96C30.65,53.23 30.43,53.83 29.79,54.16C29.621,54.28 29.418,54.345 29.211,54.345C28.865,54.345 28.542,54.165 28.36,53.87C28.27,54.03 27.27,55.52 27.28,55.64C27.278,55.784 27.305,55.927 27.36,56.06L26.93,56.19ZM29.48,52.19L29.37,52L28,52.7L28.09,52.88C28.22,53.126 28.476,53.28 28.753,53.28C28.898,53.28 29.039,53.238 29.16,53.16C29.412,53.048 29.574,52.797 29.574,52.521C29.574,52.398 29.542,52.277 29.48,52.17L29.48,52.19Z" style="fill:white;fill-rule:nonzero;"/>
    </g>
    <g transform="matrix(1,0,0,1,-12.9151,0.145358)">
        <path d="M30.42,60L29.56,59L29.89,58.74L30.3,59.18L30.83,58.29L30,57.21L29,57.51L29.42,58.12L29.09,58.38L28.51,57.62L28,57.05L28.32,56.79L28.61,57.05L32.4,56C32.61,56.125 32.84,56.212 33.08,56.26L33.19,56.4L31.05,60.14L31.27,60.51L30.94,60.77L30.42,60ZM31.81,56.64L30.51,57.03L31.09,57.76L31.81,56.64Z" style="fill:white;fill-rule:nonzero;"/>
    </g>
    <g transform="matrix(1,0,0,1,-12.9151,0.145358)">
        <path d="M37.54,61.63L36.13,63.31C35.48,64.09 34.59,64.08 33.65,63.31C32.71,62.54 32.48,61.57 33.02,60.93L34.52,59.13L34,58.63L34.27,58.31L35.22,59.12L36.22,59.97L35.95,60.29L35.38,59.88L34,61.53C33.821,61.707 33.721,61.948 33.721,62.199C33.721,62.483 33.849,62.752 34.07,62.93C34.498,63.348 35.192,63.348 35.62,62.93L37.01,61.26L36.53,60.79L36.8,60.47L37.51,61.07L38.29,61.71L38.02,62.03L37.54,61.63Z" style="fill:white;fill-rule:nonzero;"/>
    </g>
    <g transform="matrix(1,0,0,1,-12.9151,0.145358)">
        <path d="M43,64.44L41.48,67.86L40.82,67.57L39.82,63.88L38.82,66.1L39.38,66.41L39.21,66.8L38.4,66.41L37.5,66L37.67,65.61L38.28,65.82L39.54,63C39.54,62.84 39.3,62.72 38.92,62.55L39.1,62.15L40.67,62.85L41.61,66.19L42.5,64.19L41.93,63.88L42.1,63.49L42.92,63.86L43.83,64.26L43.66,64.65L43,64.44Z" style="fill:white;fill-rule:nonzero;"/>
    </g>
    <g transform="matrix(1,0,0,1,-12.9151,0.145358)">
        <path d="M45.93,68.95C45.55,68.886 45.18,68.772 44.83,68.61L44.83,68.74L44.39,68.67L44.48,68.38L44.68,67.38L45.1,67.45C45.091,67.5 45.087,67.55 45.087,67.601C45.087,68.021 45.395,68.383 45.81,68.45C46.27,68.52 46.52,68.31 46.57,67.98C46.62,67.65 46.02,67.25 45.57,66.78C45.168,66.477 44.942,65.993 44.97,65.49C45.08,64.77 45.73,64.44 46.67,64.58C47.008,64.639 47.342,64.72 47.67,64.82L47.76,64.65L48.15,64.71L47.84,66L47.42,66C47.427,65.959 47.43,65.917 47.43,65.876C47.43,65.494 47.139,65.171 46.76,65.13C46.719,65.12 46.678,65.116 46.636,65.116C46.364,65.116 46.133,65.32 46.1,65.59C46.04,65.96 46.52,66.28 46.97,66.69C47.416,66.98 47.696,67.468 47.72,68C47.6,68.82 46.89,69.1 45.93,68.95Z" style="fill:white;fill-rule:nonzero;"/>
    </g>
    <g transform="matrix(1,0,0,1,-12.9151,0.145358)">
        <path d="M51.87,69.09C51.734,69.116 51.595,69.129 51.456,69.129C50.249,69.129 49.256,68.136 49.256,66.929C49.256,65.744 50.215,64.76 51.4,64.73C51.822,64.686 52.248,64.686 52.67,64.73L52.67,64.56L53.08,64.56L53.08,64.95L53.2,65.95L52.79,65.95C52.68,65.32 52.13,65.16 51.52,65.22C50.749,65.429 50.277,66.223 50.46,67C50.55,68 51.29,68.67 51.96,68.61C52.309,68.6 52.651,68.511 52.96,68.35C52.98,68.08 52.98,67.81 52.96,67.54L53.37,67.54L53.47,68.67C52.969,68.912 52.425,69.054 51.87,69.09Z" style="fill:white;fill-rule:nonzero;"/>
    </g>
    <g transform="matrix(1,0,0,1,-12.9151,0.145358)">
        <path d="M60,66.66L58.79,67.18L58.63,66.79L59.26,66.47L58.74,65.2L56.87,66L57.39,67.27L58.05,67.06L58.21,67.45L57,67.88L55.81,68.39L55.69,68L56.31,67.68L55.08,64.68L54.42,64.9L54.26,64.51L55.46,64.03L56.62,63.53L56.78,63.92L56.16,64.23L56.67,65.47L58.53,64.7L58,63.5L57.33,63.72L57.17,63.33L58.34,62.87L59.54,62.35L59.7,62.74L59.07,63.06L60.3,66.06L60.97,65.85L61.13,66.24L60,66.66Z" style="fill:white;fill-rule:nonzero;"/>
    </g>
    <g transform="matrix(1,0,0,1,-12.9151,0.145358)">
        <path d="M65.42,58.16L66.75,62L66.26,62.42L64.5,61.55L65.13,63.4L64.6,63.86L60.92,62L60.56,62.24L60.29,62L61.02,61.4L61.77,60.72L62,61L61.78,61.25L64.26,62.53L63.76,61.22L62.54,60.61L62.26,60.79L62,60.47L62.65,59.93L63.52,59.15L63.8,59.47L63.43,59.85L65.9,61.13L64.9,58.56L64.45,58.88L64.17,58.56L64.85,58L65.36,57.51L65.65,57.84L65.42,58.16Z" style="fill:white;fill-rule:nonzero;"/>
    </g>
    <g transform="matrix(1,0,0,1,-12.9151,0.145358)">
        <path d="M70.32,57.65L69.97,58.13L69.19,59.26L68.85,59L69.24,58.35L66.61,56.5L66.15,57.02L65.81,56.78L66.59,55.73L67.09,54.99L67.65,54.2L67.49,54L67.74,53.65L68.01,53.85L68.86,54.42L68.62,54.76L68,54.53L67.27,55.53L68.33,56.28L68.88,55.51L68.53,55.19L68.77,54.85L69.97,55.7L69.73,56.04L69.29,55.8L68.74,56.57L69.74,57.28L69.86,57.36C69.947,57.266 70.027,57.165 70.1,57.06L70.53,56.47C70.6,56.38 70.66,56.283 70.71,56.18C70.76,56.077 70.32,55.81 70.24,55.74L70.49,55.39L71.4,56.04L70.32,57.65Z" style="fill:white;fill-rule:nonzero;"/>
    </g>
    <g transform="matrix(1,0,0,1,-12.9151,0.145358)">
        <path d="M73,53.13L72.44,54.29L72.06,54.1L72.31,53.45L69.45,52L69.1,52.6L68.72,52.41L69.31,51.26L69.85,50.12L70.23,50.31L70,51L72.88,52.42L73.24,51.83L73.62,52.02L73,53.13Z" style="fill:white;fill-rule:nonzero;"/>
    </g>
    <g transform="matrix(1,0,0,1,-12.9151,0.145358)">
        <path d="M74.18,45.83L74.66,45.99L74.81,45.99C75.063,46.08 75.336,46.101 75.6,46.05C75.497,46.341 75.427,46.643 75.39,46.95C75.345,47.344 75.261,47.733 75.14,48.11C74.6,49.83 73.36,50.21 72.27,49.87C71.363,49.567 70.747,48.712 70.747,47.755C70.747,47.451 70.809,47.149 70.93,46.87C71.07,46.442 71.24,46.024 71.44,45.62L71.27,45.51L71.39,45.14L71.66,45.23L72.74,45.53L72.62,45.93C72,45.83 71.62,46.26 71.42,46.93C71.419,46.951 71.419,46.971 71.419,46.992C71.419,47.963 72.218,48.762 73.189,48.762C73.799,48.762 74.367,48.447 74.69,47.93C74.774,47.689 74.801,47.433 74.77,47.18L73.84,46.89L73.57,47.55L73.17,47.42L73.58,46.17L73.91,45.07L74.31,45.2L74.18,45.83Z" style="fill:white;fill-rule:nonzero;"/>
    </g>
    <g transform="matrix(1,0,0,1,-12.9151,0.145358)">
        <path d="M26.47,37.44C26.482,37.532 26.487,37.624 26.487,37.716C26.487,38.923 25.494,39.916 24.287,39.916C23.081,39.916 22.087,38.923 22.087,37.716C22.087,37.681 22.088,37.645 22.09,37.61C22.067,37.186 22.087,36.76 22.15,36.34L21.99,36.34L21.99,35.9L22.38,35.9L23.38,35.85L23.38,36.27C22.74,36.34 22.55,36.87 22.56,37.49C22.57,38.11 23.25,38.74 24.26,38.72C25.113,38.781 25.877,38.166 26,37.32C26.009,36.976 25.941,36.634 25.8,36.32C25.536,36.267 25.269,36.233 25,36.22L25,35.8L26.13,35.8C26.349,36.319 26.464,36.876 26.47,37.44Z" style="fill:white;fill-rule:nonzero;"/>
    </g>
    <g transform="matrix(1,0,0,1,-12.9151,0.145358)">
        <path d="M26.79,31.06L26.63,32.42L26.21,32.37L26.21,31.77L25.21,32.01L25.04,33.36L25.95,33.86L26.09,33.13L26.51,33.18L26.37,34.13L26.3,34.89L25.89,34.84L25.89,34.45L22.47,32.45C22.413,32.208 22.315,31.978 22.18,31.77L22.18,31.59L26.35,30.51L26.46,30.1L26.88,30.15L26.79,31.06ZM23.41,32.41L24.6,33.07L24.72,32.14L23.41,32.41Z" style="fill:white;fill-rule:nonzero;"/>
    </g>
    <g transform="matrix(1,0,0,1,-12.9151,0.145358)">
        <path d="M28.86,25L28.52,25.7C28.23,26.3 26.59,26.52 26.02,26.7L25.96,26.89L27.24,27.27L27.45,26.8L27.86,26.92L27.51,28L27.17,29.22L26.76,29.1L26.9,28.42L23.84,27.5L23.63,28.3L23.21,28.17C23.31,27.74 23.45,27.17 23.52,26.87C23.52,26.75 23.7,26.12 23.77,25.87C24.19,24.49 24.77,24.22 25.45,24.42C25.931,24.499 26.288,24.919 26.288,25.407C26.288,25.485 26.278,25.564 26.26,25.64C26.44,25.59 28.2,25.22 28.26,25.13C28.362,25.028 28.44,24.905 28.49,24.77L28.86,25ZM24.22,26.1L24.15,26.33L25.68,26.79L25.74,26.6C25.771,26.516 25.787,26.428 25.787,26.338C25.787,25.977 25.526,25.664 25.17,25.6C25.086,25.565 24.995,25.548 24.904,25.548C24.576,25.548 24.289,25.779 24.22,26.1Z" style="fill:white;fill-rule:nonzero;"/>
    </g>
    <g transform="matrix(1,0,0,1,-12.9151,0.145358)">
        <path d="M29.9,22.12C29.564,22.948 28.755,23.492 27.862,23.492C26.655,23.492 25.662,22.499 25.662,21.292C25.662,20.877 25.779,20.471 26,20.12C26.33,19.301 27.129,18.762 28.012,18.762C28.356,18.762 28.694,18.844 29,19C29.75,19.367 30.228,20.132 30.228,20.967C30.228,21.375 30.114,21.774 29.9,22.12ZM26.41,20.34C26.05,21.04 26.66,21.73 27.41,22.13C28.16,22.53 29.11,22.61 29.47,21.91C29.83,21.21 29.17,20.51 28.47,20.13C27.77,19.75 26.76,19.65 26.41,20.34Z" style="fill:white;fill-rule:nonzero;"/>
    </g>
    <g transform="matrix(1,0,0,1,-12.9151,0.145358)">
        <path d="M33.62,16.27L32.51,17.72L32.14,18.19L31.35,19.25L31,19L31.37,18.41L28.82,16.46L28.36,16.98L28,16.72L28.81,15.72L29.56,14.72L29.9,14.98L29.52,15.57L32.11,17.57L32.72,16.74C32.795,16.648 32.852,16.543 32.89,16.43C32.928,16.317 32.5,15.86 32.44,15.78L32.7,15.43L33.62,16.27Z" style="fill:white;fill-rule:nonzero;"/>
    </g>
    <g transform="matrix(1,0,0,1,-12.9151,0.145358)">
        <path d="M35.85,14.29C35.443,14.667 34.908,14.877 34.354,14.877C33.147,14.877 32.154,13.884 32.154,12.677C32.154,12.032 32.438,11.418 32.93,11C33.34,10.566 33.911,10.32 34.508,10.32C35.133,10.32 35.728,10.59 36.14,11.06C36.512,11.464 36.719,11.994 36.719,12.543C36.719,13.229 36.397,13.876 35.85,14.29ZM33.24,11.37C32.66,11.89 32.97,12.76 33.54,13.37C34.11,13.98 34.95,14.43 35.54,13.91C36.13,13.39 35.77,12.49 35.21,11.91C34.65,11.33 33.82,10.85 33.24,11.37Z" style="fill:white;fill-rule:nonzero;"/>
    </g>
    <g transform="matrix(1,0,0,1,-12.9151,0.145358)">
        <path d="M37.49,10.92L36.99,10.09L38.87,9L39.37,9.84L37.49,10.92Z" style="fill:white;fill-rule:nonzero;"/>
    </g>
    <g transform="matrix(1,0,0,1,-12.9151,0.145358)">
        <path d="M44.75,5.37L44.54,9.45L43.92,9.66L42.61,8.2L42.51,10.2L41.84,10.43L39.1,7.31L38.68,7.4L38.54,7L39.44,6.71L40.44,6.36L40.58,6.76L40.28,6.91L42.07,9L42.07,7.6L41.16,6.6L40.83,6.66L40.69,6.26L41.52,6L42.62,5.6L42.76,6L42.27,6.21L44.1,8.32L44.17,5.57L43.63,5.7L43.49,5.3L44.34,5L45,4.77L45.14,5.19L44.75,5.37Z" style="fill:white;fill-rule:nonzero;"/>
    </g>
    <g transform="matrix(1,0,0,1,-12.9151,0.145358)">
        <path d="M48,8.82L46.71,8.93L46.71,8.51L47.4,8.4L47.18,5.2L46.48,5.2L46.48,4.78L47.77,4.71L49,4.6L49,5L48.31,5.1L48.53,8.3L49.23,8.3L49.23,8.72L48,8.82Z" style="fill:white;fill-rule:nonzero;"/>
    </g>
    <g transform="matrix(1,0,0,1,-12.9151,0.145358)">
        <path d="M54.23,9.33L52.42,9L51.84,8.9L50.53,8.71L50.6,8.29L51.3,8.34L51.81,5.17L51.13,5L51.2,4.58L52.49,4.81L53.73,5L53.66,5.42L53,5.39L52.45,8.6L53.45,8.75C53.566,8.771 53.684,8.771 53.8,8.75C53.916,8.729 54.12,8.14 54.16,8.05L54.59,8.12L54.23,9.33Z" style="fill:white;fill-rule:nonzero;"/>
    </g>
    <g transform="matrix(1,0,0,1,-12.9151,0.145358)">
        <path d="M59.25,11.43L58.05,10.87L58.23,10.49L58.89,10.74L59.48,9.5L57.65,8.62L57.06,9.86L57.66,10.22L57.48,10.6L56.35,10L55.18,9.45L55.36,9.07L56.01,9.32L57.4,6.46L56.8,6.11L57,5.73L58.16,6.31L59.31,6.85L59.13,7.23L58.46,7L57.88,8.21L59.71,9.09L60.29,7.88L59.68,7.53L59.86,7.15L61,7.68L62.19,8.23L62,8.61L61.34,8.35L59.95,11.24L60.56,11.6L60.38,11.98L59.25,11.43Z" style="fill:white;fill-rule:nonzero;"/>
    </g>
    <g transform="matrix(1,0,0,1,-12.9151,0.145358)">
        <path d="M62.47,13.79L62,13.4L61,12.52L61.27,12.2L61.89,12.64L63.97,10.19L63.48,9.69L63.75,9.37L64.75,10.24L65.44,10.81L66.18,11.44L66.36,11.29L66.69,11.57L66.47,11.83L65.83,12.63L65.51,12.36L65.82,11.81L64.82,10.99L64,12L64.72,12.61L65.07,12.29L65.39,12.56L64.39,13.69L64.07,13.42L64.35,13L63.63,12.39L62.84,13.32C62.805,13.356 62.774,13.396 62.75,13.44C62.834,13.536 62.924,13.626 63.02,13.71L63.58,14.19C63.662,14.27 63.752,14.34 63.85,14.4C63.948,14.46 64.26,14.04 64.33,13.97L64.66,14.25L64,15L62.47,13.79Z" style="fill:white;fill-rule:nonzero;"/>
    </g>
    <g transform="matrix(1,0,0,1,-12.9151,0.145358)">
        <path d="M67,18.73L65.88,17.3L65.52,16.83L64.68,15.83L65.01,15.57L65.49,16.07L68,14L67.61,13.42L67.94,13.16L68.75,14.16L69.55,15.16L69.22,15.42L68.73,15L66.19,17L66.85,17.79C66.922,17.885 67.01,17.966 67.11,18.03L67.85,17.75L68.12,18.09L67,18.73Z" style="fill:white;fill-rule:nonzero;"/>
    </g>
    <g transform="matrix(1,0,0,1,-12.9151,0.145358)">
        <path d="M69.94,24L69.44,23L69.82,22.81L70.09,23.23L72.49,22L68.79,22.06L70.85,19.18L68.58,20.23L68.79,20.76L68.4,21L68.1,20.37L67.59,19.37L67.97,19.18L68.31,19.74L71.24,18.39L71,17.77L71.38,17.58L71.87,18.58L72.19,19.19L70.51,21.49L73.31,21.41L73.55,21.91L74.22,23.23L73.84,23.42L73.47,22.79L70.6,24.32L70.88,25L70.5,25.19L69.94,24Z" style="fill:white;fill-rule:nonzero;"/>
    </g>
    <g transform="matrix(1,0,0,1,-12.9151,0.145358)">
        <path d="M71.1,27.4L70.71,26.16L71.12,26.04L71.38,26.69L74.46,25.78L74.31,25.1L74.72,24.98L75.07,26.23L75.45,27.44L75.05,27.56L74.8,26.91L71.72,27.82L71.86,28.5L71.45,28.62L71.1,27.4Z" style="fill:white;fill-rule:nonzero;"/>
    </g>
    <g transform="matrix(1,0,0,1,-12.9151,0.145358)">
        <path d="M76,33.65L72.29,34.17L72.19,33.45L74.78,30.62L72.37,30.95L72.37,31.59L71.94,31.65L71.84,30.75L71.67,29.75L72.09,29.69L72.23,30.32L75.31,29.89C75.42,29.76 75.42,29.54 75.31,29.12L75.75,29.06L75.99,30.77L73.65,33.34L76,33L76,32.36L76.42,32.3L76.54,33.2L76.69,34.2L76.27,34.26L76,33.65Z" style="fill:white;fill-rule:nonzero;"/>
    </g>
    <g transform="matrix(1,0,0,1,-12.9151,0.145358)">
        <path d="M72.43,39.2L72.43,37.84L72.85,37.84L72.85,38.44L73.85,38.1L73.85,36.73L72.85,36.33L72.78,37.07L72.36,37.07L72.36,35.3L72.77,35.3L72.82,35.68L76.43,37.27C76.513,37.502 76.635,37.719 76.79,37.91L76.79,38.09L72.79,39.6L72.72,40.02L72.3,40.02L72.43,39.2ZM75.65,37.51L74.4,37L74.4,37.94L75.65,37.51Z" style="fill:white;fill-rule:nonzero;"/>
    </g>
    <g transform="matrix(1,0,0,1,-12.9151,0.145358)">
        <path d="M92.55,17.34L92.55,25.69L90.73,25.69L90.73,17.34L87.82,17.34L87.82,15.79L95.47,15.79L95.47,17.33L92.55,17.34Z" style="fill:white;fill-rule:nonzero;"/>
    </g>
</svg>
